if (_typeface_js && _typeface_js.loadFace) _typeface_js.loadFace({"glyphs":{"0":{"ha":749,"x_min":35,"x_max":714,"o":"m 374 -15 q 117 121 206 -15 q 35 450 35 246 q 118 782 35 657 q 378 918 210 918 q 636 781 549 918 q 714 456 714 658 q 629 117 714 242 q 374 -15 539 -15 m 374 144 q 501 453 501 144 q 374 758 501 758 q 278 682 313 758 q 244 453 244 606 q 278 221 244 297 q 374 144 311 144 z "},"1":{"ha":749,"x_min":107,"x_max":521,"o":"m 317 0 l 317 715 l 142 633 l 107 792 l 347 903 l 521 903 l 521 0 l 317 0 z "},"2":{"ha":749,"x_min":49,"x_max":689,"o":"m 689 0 l 49 0 l 49 128 l 164 232 q 460 617 460 497 q 426 710 460 676 q 313 749 388 749 q 204 725 258 749 q 119 675 164 707 l 60 825 q 190 892 113 865 q 354 918 268 918 q 588 840 504 918 q 671 635 671 763 q 600 428 671 532 q 431 246 544 347 l 347 176 l 689 174 l 689 0 z "},"3":{"ha":749,"x_min":42,"x_max":679,"o":"m 42 47 l 85 207 q 178 170 118 189 q 294 151 239 151 q 417 185 374 151 q 460 271 460 218 q 407 368 460 335 q 279 401 354 401 l 193 401 l 193 553 l 275 553 q 381 575 339 553 q 435 657 435 604 q 401 726 435 700 q 301 751 368 751 q 193 733 250 751 q 114 697 150 719 l 71 850 q 190 899 115 879 q 350 918 265 918 q 569 854 490 918 q 649 693 649 790 q 483 483 649 539 q 624 406 569 465 q 679 260 679 347 q 579 62 679 139 q 310 -15 479 -15 q 156 3 228 -15 q 42 47 85 21 z "},"4":{"ha":749,"x_min":21,"x_max":728,"o":"m 621 0 l 421 0 l 421 215 l 21 215 l 21 353 l 361 903 l 621 903 l 621 374 l 728 374 l 728 215 l 621 215 l 621 0 m 421 374 l 421 574 q 424 668 421 601 q 426 742 426 735 q 335 574 381 657 l 218 376 l 421 374 z "},"5":{"ha":749,"x_min":47,"x_max":686,"o":"m 650 903 l 650 729 l 300 729 l 281 592 l 339 594 q 469 578 407 594 q 580 528 531 563 q 658 437 629 493 q 686 301 686 381 q 583 81 686 171 q 299 -15 474 -15 q 156 -1 219 -15 q 47 36 92 13 l 86 194 q 176 164 118 178 q 289 150 233 150 q 413 182 364 150 q 469 288 469 219 q 409 400 469 361 q 215 439 349 439 q 94 431 149 439 l 153 903 l 650 903 z "},"6":{"ha":749,"x_min":31,"x_max":722,"o":"m 624 915 l 624 753 q 578 751 610 753 q 542 750 546 750 q 333 682 413 750 q 247 535 268 625 q 333 587 283 568 q 443 606 383 606 q 639 529 561 606 q 722 311 722 447 q 628 80 722 175 q 390 -15 535 -15 q 119 101 217 -15 q 31 379 31 208 q 73 608 31 506 q 192 782 115 711 q 347 880 261 846 q 539 914 433 914 q 563 915 547 914 q 583 917 578 917 q 624 915 613 915 m 386 140 q 475 185 442 140 q 508 300 508 229 q 475 408 508 365 q 374 456 438 456 q 298 434 331 456 q 250 376 265 413 q 240 322 240 358 q 278 193 240 246 q 386 140 317 140 z "},"7":{"ha":749,"x_min":57,"x_max":694,"o":"m 57 903 l 694 903 l 694 771 l 322 0 l 99 0 l 471 726 l 57 729 l 57 903 z "},"8":{"ha":749,"x_min":33,"x_max":715,"o":"m 381 918 q 610 843 528 918 q 681 686 681 778 q 647 573 681 626 q 549 488 614 519 q 665 403 622 457 q 715 260 715 342 q 620 60 715 136 q 368 -15 525 -15 q 115 64 207 -15 q 33 236 33 135 q 76 372 33 315 q 194 463 118 429 q 98 551 132 497 q 64 664 64 604 q 153 848 64 778 q 381 918 243 918 m 376 131 q 467 163 432 131 q 501 243 501 194 q 463 337 501 300 q 360 392 425 374 q 250 257 250 361 q 285 168 250 206 q 376 131 319 131 m 376 775 q 295 745 324 775 q 267 671 267 715 q 301 597 267 628 q 393 549 336 567 q 458 590 432 560 q 485 663 485 621 q 460 740 485 710 q 376 775 431 775 z "},"9":{"ha":749,"x_min":31,"x_max":713,"o":"m 113 -12 l 113 153 q 143 151 124 151 q 171 151 156 151 q 204 153 186 151 q 299 168 251 153 q 383 208 346 183 q 456 280 428 238 q 497 375 485 322 q 418 327 463 343 q 311 311 374 311 q 114 386 193 311 q 31 593 31 465 q 127 823 31 728 q 371 918 224 918 q 628 803 536 918 q 713 529 713 696 q 672 288 713 390 q 556 114 632 185 q 401 20 489 53 q 208 -12 314 -12 l 113 -12 m 365 764 q 276 719 311 764 q 240 606 240 675 q 274 503 240 544 q 368 461 307 461 q 441 477 411 461 q 488 519 471 493 q 497 574 497 539 q 468 704 497 654 q 365 764 433 764 z "}," ":{"ha":333,"x_min":0,"x_max":0,"o":""},"!":{"ha":350,"x_min":50,"x_max":299,"o":"m 254 307 l 96 307 l 65 936 l 285 936 l 254 307 m 175 -15 q 85 21 119 -15 q 50 111 50 57 q 85 203 50 168 q 175 238 119 238 q 265 202 231 238 q 299 111 299 167 q 265 20 299 56 q 175 -15 231 -15 z "},"\"":{"ha":529,"x_min":39,"x_max":492,"o":"m 39 961 l 225 961 l 194 585 l 69 585 l 39 961 m 306 961 l 492 961 l 461 585 l 336 585 l 306 961 z "},"#":{"ha":742,"x_min":40,"x_max":703,"o":"m 299 376 l 426 376 l 447 533 l 321 533 l 299 376 m 243 0 l 118 0 l 154 249 l 40 249 l 40 376 l 175 376 l 197 533 l 81 533 l 81 661 l 217 661 l 253 903 l 375 903 l 340 661 l 468 661 l 503 903 l 626 903 l 592 661 l 703 661 l 703 533 l 571 533 l 550 376 l 664 376 l 664 249 l 528 249 l 493 0 l 368 0 l 404 249 l 278 249 l 243 0 z "},"$":{"ha":749,"x_min":65,"x_max":685,"o":"m 438 -121 l 301 -121 l 301 13 q 174 29 236 13 q 65 71 111 46 l 107 233 q 215 189 158 206 q 338 172 272 172 q 435 195 399 172 q 472 258 472 218 q 324 379 472 329 q 143 474 201 421 q 74 633 74 538 q 135 794 74 728 q 308 881 197 860 l 308 1013 l 444 1013 l 444 890 q 563 876 508 890 q 647 844 600 867 l 606 688 q 531 718 561 708 q 406 736 471 736 q 313 711 344 736 q 286 657 286 690 q 324 598 286 624 q 453 539 361 572 q 631 435 576 496 q 685 278 685 374 q 621 113 685 182 q 438 22 557 43 l 438 -121 z "},"%":{"ha":1200,"x_min":26,"x_max":1172,"o":"m 279 918 q 457 843 392 918 q 522 649 522 768 q 447 435 522 513 q 272 363 378 363 q 96 436 165 363 q 26 635 26 510 q 96 838 26 758 q 279 918 165 918 m 276 803 q 208 758 231 803 q 185 639 185 713 q 209 522 185 567 q 278 476 233 476 q 344 519 322 476 q 367 640 367 561 q 347 756 367 717 q 276 803 324 803 m 929 543 q 1108 469 1043 543 q 1172 276 1172 394 q 1097 61 1172 140 q 922 -12 1028 -12 q 747 61 817 -12 q 678 261 678 135 q 747 463 678 383 q 929 543 815 543 m 928 429 q 859 384 882 429 q 836 265 836 339 q 860 148 836 193 q 928 103 885 103 q 994 145 972 103 q 1017 267 1017 188 q 996 385 1017 342 q 928 429 975 429 m 396 -15 l 282 -15 l 801 917 l 914 917 l 396 -15 z "},"&":{"ha":919,"x_min":32,"x_max":922,"o":"m 922 0 l 676 0 l 615 67 q 501 7 567 29 q 358 -15 436 -15 q 111 68 200 -15 q 32 250 32 142 q 81 410 32 339 q 210 519 125 475 q 159 606 179 557 q 139 704 139 656 q 208 872 139 803 q 421 951 288 951 q 603 892 532 951 q 674 732 674 832 q 629 600 674 660 q 489 492 585 540 l 489 486 q 588 372 556 408 q 644 311 611 346 q 724 539 703 403 l 913 539 q 856 340 893 428 q 757 183 818 251 l 922 0 m 388 138 q 460 151 426 138 q 517 185 494 164 q 418 288 472 228 q 306 414 404 303 q 254 363 272 390 q 231 285 231 326 q 273 180 231 222 q 388 138 315 138 m 414 819 q 352 791 375 819 q 329 724 329 763 q 393 589 329 657 q 472 657 447 626 q 496 726 496 688 q 476 789 496 763 q 414 819 453 819 z "},"'":{"ha":263,"x_min":39,"x_max":225,"o":"m 39 961 l 225 961 l 194 585 l 69 585 l 39 961 z "},"(":{"ha":414,"x_min":72,"x_max":378,"o":"m 231 1029 l 378 1029 q 279 794 315 926 q 238 467 238 642 q 278 144 238 293 q 378 -93 313 17 l 231 -93 q 124 126 164 6 q 72 467 72 282 q 124 808 72 650 q 231 1029 163 931 z "},")":{"ha":414,"x_min":38,"x_max":343,"o":"m 185 -93 l 38 -93 q 136 144 100 10 q 178 469 178 297 q 138 793 178 644 q 38 1029 103 921 l 185 1029 q 292 811 253 931 q 343 468 343 654 q 292 128 343 285 q 185 -93 253 8 z "},"*":{"ha":608,"x_min":31,"x_max":579,"o":"m 385 951 l 506 882 l 357 704 l 579 746 l 579 606 l 356 643 l 506 468 l 383 397 l 303 611 l 221 397 l 101 468 l 250 642 l 31 606 l 31 746 l 247 701 l 101 881 l 225 951 l 301 738 l 385 951 z "},"+":{"ha":806,"x_min":44,"x_max":761,"o":"m 335 739 l 471 739 l 471 436 l 761 436 l 761 307 l 471 307 l 471 0 l 335 0 l 335 307 l 44 307 l 44 436 l 335 436 l 335 739 z "},",":{"ha":339,"x_min":-10,"x_max":307,"o":"m 132 -153 l -10 -165 q 92 229 61 32 l 307 243 q 226 31 271 133 q 132 -153 182 -71 z "},"-":{"ha":425,"x_min":31,"x_max":394,"o":"m 31 435 l 394 435 l 394 294 l 31 294 l 31 435 z "},".":{"ha":339,"x_min":46,"x_max":294,"o":"m 169 -15 q 81 21 115 -15 q 46 113 46 57 q 81 206 46 169 q 171 242 115 242 q 260 206 226 242 q 294 113 294 171 q 260 20 294 56 q 169 -15 226 -15 z "},"/":{"ha":438,"x_min":11,"x_max":449,"o":"m 151 -56 l 11 -56 l 308 951 l 449 951 l 151 -56 z "},":":{"ha":339,"x_min":46,"x_max":294,"o":"m 171 433 q 82 469 117 433 q 47 560 47 506 q 82 651 47 615 q 171 688 117 688 q 260 652 226 688 q 294 560 294 617 q 260 469 294 504 q 171 433 226 433 m 169 -15 q 81 21 115 -15 q 46 111 46 57 q 81 203 46 167 q 169 239 115 239 q 259 203 225 239 q 293 111 293 168 q 259 20 293 56 q 169 -15 225 -15 z "},";":{"ha":339,"x_min":-8,"x_max":314,"o":"m 132 -153 l -8 -165 q 93 229 63 29 l 306 243 q 132 -153 235 18 m 190 433 q 101 469 136 433 q 67 560 67 506 q 101 651 67 615 q 190 688 136 688 q 280 652 246 688 q 314 560 314 617 q 280 469 314 504 q 190 433 246 433 z "},"<":{"ha":806,"x_min":69,"x_max":738,"o":"m 69 308 l 69 428 l 738 738 l 738 590 l 232 369 l 738 147 l 738 0 l 69 308 z "},"=":{"ha":806,"x_min":44,"x_max":761,"o":"m 761 451 l 44 451 l 44 581 l 761 581 l 761 451 m 761 164 l 44 164 l 44 293 l 761 293 l 761 164 z "},">":{"ha":806,"x_min":68,"x_max":736,"o":"m 736 432 l 736 304 l 68 0 l 68 146 l 585 367 l 68 590 l 68 738 l 736 432 z "},"?":{"ha":596,"x_min":57,"x_max":556,"o":"m 365 304 l 182 304 l 179 340 q 197 451 179 399 q 261 557 215 503 q 318 632 303 606 q 342 703 342 671 q 317 763 342 740 q 242 785 292 785 q 103 744 164 785 l 57 894 q 159 935 97 918 q 289 951 221 951 q 490 888 419 951 q 556 736 556 829 q 517 601 556 665 q 436 501 499 572 q 383 419 400 461 q 365 329 365 378 l 365 304 m 269 -15 q 179 21 214 -15 q 144 111 144 57 q 178 202 144 167 q 268 238 213 238 q 358 203 324 238 q 393 111 393 168 q 359 20 393 56 q 269 -15 325 -15 z "},"@":{"ha":1047,"x_min":58,"x_max":999,"o":"m 603 476 l 624 608 q 605 613 614 611 q 581 614 596 614 q 465 556 513 614 q 417 417 417 499 q 485 331 417 331 q 560 372 526 331 q 603 476 594 414 m 722 114 l 746 35 q 626 -4 685 7 q 492 -15 568 -15 q 189 101 313 -15 q 58 422 58 225 q 200 793 58 642 q 578 951 349 951 q 881 839 763 951 q 999 550 999 726 q 925 308 999 399 q 735 218 851 218 q 653 245 685 218 q 615 325 621 272 q 432 218 543 218 q 319 267 363 218 q 276 400 276 315 q 366 628 276 533 q 603 724 456 724 q 694 714 647 724 q 767 690 740 704 l 725 432 q 719 374 719 403 q 761 311 719 311 q 850 368 811 311 q 896 546 896 435 q 811 775 896 688 q 564 867 722 867 q 285 751 397 867 q 165 435 165 629 q 263 167 165 263 q 519 71 360 71 q 626 82 572 71 q 722 114 681 93 z "},"A":{"ha":947,"x_min":65,"x_max":896,"o":"m 354 0 l 65 0 l 201 426 q 164 446 179 431 q 144 490 144 465 q 160 542 144 514 q 194 626 194 607 q 190 665 194 650 q 157 682 168 675 q 135 718 135 696 q 181 778 135 749 q 221 807 214 800 q 263 865 246 833 q 279 915 279 896 q 292 985 279 963 q 361 1018 310 1018 q 428 999 396 1018 q 486 947 460 979 q 504 935 493 939 q 528 932 515 932 l 582 936 q 633 911 614 936 q 649 880 642 901 q 661 836 657 858 q 731 576 693 686 q 856 296 781 429 q 872 255 865 278 q 879 213 879 232 q 874 175 879 193 q 856 143 868 157 l 896 0 l 608 0 l 581 133 l 578 136 q 515 131 551 131 q 394 157 446 131 l 354 0 m 281 636 q 250 643 260 640 q 224 653 240 646 q 218 643 218 646 q 229 624 218 632 q 253 615 240 615 q 272 622 263 615 q 281 636 281 628 m 444 436 q 303 401 383 401 q 343 278 308 328 q 493 201 394 201 q 583 224 547 201 q 486 303 524 253 q 444 421 444 358 l 444 436 m 411 633 l 347 629 q 376 606 350 606 q 403 616 394 606 q 411 633 413 626 z "},"B":{"ha":981,"x_min":124,"x_max":913,"o":"m 124 0 l 124 936 l 247 936 q 272 981 251 961 q 324 1001 292 1001 q 375 983 354 1001 q 400 936 396 965 l 613 936 q 644 975 625 960 q 686 990 663 990 q 740 969 717 990 q 764 911 764 949 l 761 890 q 857 697 857 817 q 815 561 857 621 q 746 494 789 522 q 867 403 821 467 q 913 253 913 339 q 843 74 913 147 q 682 0 774 0 l 124 0 m 588 617 q 560 686 588 658 q 489 714 532 714 q 418 686 446 714 q 390 617 390 658 q 419 546 390 575 q 489 517 449 517 q 561 544 535 517 q 588 617 588 572 m 619 297 q 583 388 619 353 q 499 424 546 424 q 410 389 447 424 q 372 297 372 354 q 409 212 372 250 q 497 174 446 174 q 583 208 547 174 q 619 297 619 243 m 372 793 q 341 780 354 793 q 328 747 328 767 q 340 715 328 728 q 372 703 353 703 q 417 747 417 703 q 404 779 417 765 q 372 793 392 793 m 607 793 q 575 781 589 793 q 561 749 561 768 q 574 716 561 729 q 607 703 588 703 q 639 715 626 703 q 651 749 651 728 q 607 793 651 793 m 374 765 q 390 747 390 765 q 374 731 390 731 q 357 747 357 731 q 374 765 357 765 m 492 646 q 529 631 511 646 q 547 589 547 617 q 532 549 547 565 q 492 532 517 532 q 451 549 468 532 q 435 589 435 565 q 451 629 435 613 q 492 646 468 646 m 607 765 q 624 747 624 765 q 607 731 624 731 q 589 747 589 731 q 607 765 589 765 z "},"C":{"ha":1010,"x_min":21,"x_max":1010,"o":"m 226 44 q 192 160 192 92 q 201 225 192 196 q 186 282 193 253 q 167 440 167 360 q 175 543 167 493 q 133 508 161 543 q 85 403 97 463 l 78 413 q 64 424 67 422 q 50 451 50 436 l 51 463 q 35 494 35 469 l 42 511 q 29 535 32 519 q 36 554 29 543 q 21 579 21 569 q 82 671 21 611 q 264 749 163 749 q 438 897 340 844 q 653 950 536 950 q 796 918 728 950 q 899 853 840 897 q 904 867 904 858 q 885 903 904 879 q 822 996 832 965 q 810 1058 810 1024 q 834 1138 810 1106 q 901 1169 858 1169 q 969 1125 953 1169 l 990 1129 q 1010 1117 1010 1129 q 1001 1106 1004 1107 q 990 1106 999 1106 q 978 1103 982 1106 l 979 1086 q 965 1044 979 1063 q 921 1018 951 1025 q 930 993 922 1008 q 959 952 938 978 q 985 918 981 926 q 996 874 996 899 q 947 796 996 821 q 926 736 954 761 q 896 726 914 726 q 867 725 878 725 q 794 698 822 725 q 765 633 765 671 q 811 586 765 586 q 839 597 825 586 q 853 625 853 608 l 850 649 q 860 661 850 661 q 872 651 868 661 q 875 626 875 640 q 853 581 875 599 q 807 564 832 564 q 761 583 781 564 q 742 629 742 603 q 774 704 742 669 q 719 657 747 704 q 690 565 690 610 q 707 504 690 525 q 756 483 724 483 q 785 494 774 483 q 797 525 797 504 l 793 551 q 796 557 793 556 q 801 560 799 558 q 819 526 819 560 q 803 482 819 501 q 756 463 786 463 q 694 490 718 463 q 671 565 671 518 q 686 642 671 608 q 708 682 693 657 q 621 626 669 672 q 551 486 551 563 q 553 456 551 467 q 564 422 556 444 q 490 403 535 407 q 494 362 490 379 q 511 311 499 344 q 560 313 543 311 q 596 325 578 315 q 600 319 600 322 l 600 297 l 596 244 q 664 236 632 236 q 781 263 726 236 q 878 338 836 289 l 881 340 l 882 301 l 882 -24 q 829 -17 858 -26 q 729 32 800 -8 q 543 -31 654 -31 q 367 22 446 -31 q 272 111 324 51 q 246 81 258 100 q 226 44 244 78 m 951 1118 q 900 1149 942 1149 q 847 1122 867 1149 q 828 1057 828 1096 q 894 926 828 992 q 921 893 914 906 q 928 864 928 881 q 921 835 928 849 q 933 824 928 831 q 939 815 935 821 q 961 833 949 815 q 974 869 974 851 q 967 899 974 885 q 928 956 960 914 q 897 1017 901 990 q 865 1024 881 1018 q 850 1040 850 1029 q 865 1053 850 1051 q 897 1043 881 1047 q 919 1099 897 1078 q 951 1118 933 1113 m 919 1043 q 949 1058 938 1049 q 960 1086 960 1068 l 958 1097 q 928 1077 938 1092 q 919 1043 919 1063 m 693 806 l 688 875 q 682 894 688 894 q 668 883 672 888 q 654 847 654 868 q 667 816 654 829 q 688 803 681 803 l 693 806 m 751 849 q 740 883 751 872 q 718 894 728 894 q 711 881 711 894 l 717 810 l 722 807 q 743 819 735 807 q 751 849 751 832 m 94 568 l 90 575 q 78 564 86 575 q 67 547 69 553 l 71 539 q 82 551 79 547 q 94 568 94 565 m 104 592 l 108 586 q 128 599 114 586 q 144 613 143 613 l 147 618 l 142 624 q 120 610 136 624 q 104 592 104 597 m 240 664 l 232 671 q 185 656 214 671 q 157 631 157 640 l 161 626 l 167 628 q 193 645 182 640 q 236 660 204 650 l 240 664 m 865 269 q 857 278 860 278 q 841 269 851 278 q 822 256 831 261 l 790 236 l 788 228 q 794 219 792 219 q 826 235 801 219 q 861 261 850 250 q 863 265 863 263 q 865 269 864 268 m 776 218 l 768 225 l 743 217 l 715 210 l 710 201 l 715 196 q 746 200 736 199 q 776 218 776 207 m 696 143 q 718 153 718 143 q 711 161 718 156 q 708 163 710 161 l 688 160 l 682 153 q 696 143 682 143 m 742 150 q 761 155 749 150 q 774 168 774 160 l 767 175 q 751 169 758 172 q 738 167 743 167 l 732 158 q 742 150 738 150 m 800 171 q 834 186 808 171 q 860 211 860 201 q 856 218 860 215 q 851 219 853 218 q 838 212 844 215 q 824 203 832 208 q 793 179 793 185 q 800 171 797 171 m 692 203 q 682 208 690 206 q 667 199 667 208 q 676 192 671 192 q 692 203 692 192 m 725 107 q 750 109 738 107 q 763 119 763 111 q 751 128 757 128 l 714 124 q 708 117 711 124 q 725 107 708 107 m 824 89 q 847 95 832 89 q 863 111 863 101 l 856 118 q 836 113 842 114 q 817 94 817 106 l 824 89 m 765 75 q 790 80 781 75 q 800 90 800 85 l 794 96 l 760 89 l 754 82 q 765 75 760 75 m 861 57 q 854 67 857 67 l 818 56 l 814 47 q 824 40 819 40 q 847 46 833 42 q 861 57 861 50 m 844 26 q 832 14 832 26 q 844 3 832 3 q 856 14 856 3 q 844 26 856 26 m 92 633 l 89 639 q 69 622 82 639 q 51 592 56 604 l 56 588 q 74 607 68 600 q 92 633 92 628 m 271 721 l 267 726 q 210 717 232 726 q 193 706 203 714 q 201 700 199 700 q 268 715 232 715 l 271 721 m 150 578 l 158 571 l 207 601 q 212 605 211 603 q 214 608 213 607 l 206 617 q 167 596 196 617 q 150 578 150 583 m 296 540 q 290 558 296 551 q 278 564 283 564 q 260 555 269 564 q 251 532 251 546 q 271 506 251 506 q 288 516 281 506 q 296 540 296 526 m 121 543 l 115 547 q 90 524 108 547 q 72 493 72 501 l 78 486 l 118 536 l 121 543 m 279 397 q 257 421 279 421 q 235 393 235 421 q 256 371 235 371 q 272 379 265 371 q 279 397 279 388 m 860 158 q 856 165 860 163 q 851 167 853 165 q 827 156 846 167 q 808 138 808 144 q 819 128 808 128 q 849 143 829 128 q 860 158 860 151 m 114 653 l 118 654 q 146 674 136 668 q 172 689 156 681 l 175 694 l 169 700 q 126 678 157 700 q 110 658 110 665 l 114 653 m 613 688 q 544 720 567 692 q 521 790 521 749 q 504 746 504 774 q 527 693 504 711 q 575 675 550 675 q 613 688 596 675 m 289 282 q 272 264 272 282 q 289 246 272 246 q 306 264 306 246 q 289 282 306 282 m 344 144 q 332 132 332 144 q 344 118 332 118 q 358 132 358 118 q 344 144 358 144 z "},"D":{"ha":1119,"x_min":121,"x_max":1078,"o":"m 121 818 q 254 643 157 714 q 454 572 351 572 q 507 581 483 572 l 508 576 q 457 533 485 551 q 382 500 442 524 q 325 454 350 483 q 294 375 294 417 q 322 310 294 328 q 358 301 342 297 q 376 381 358 343 q 424 454 393 419 q 427 451 426 454 q 429 447 428 449 q 466 363 436 399 q 535 328 496 328 q 613 377 581 328 q 644 485 644 426 q 592 608 644 558 q 464 658 539 658 l 415 657 q 276 700 331 657 q 224 775 235 733 q 273 816 240 801 q 347 839 306 831 q 447 923 385 896 q 579 950 508 950 q 870 842 736 950 q 1004 593 1004 733 q 1056 486 1035 546 q 1078 374 1078 426 q 1060 286 1078 324 q 1038 333 1054 311 q 997 360 1021 354 q 871 101 997 218 q 556 -21 738 -21 q 400 17 465 -21 q 374 8 382 10 q 328 0 346 0 l 196 4 q 155 -12 174 4 q 128 -51 136 -28 l 122 -53 l 121 818 m 615 174 q 704 229 658 174 q 763 403 763 300 l 761 439 q 724 299 761 365 q 607 196 681 221 q 601 190 603 194 q 600 185 600 186 q 615 174 600 174 m 554 215 q 647 268 597 215 q 717 463 717 342 l 714 503 q 685 370 714 432 q 599 271 657 308 q 572 257 588 264 q 546 246 556 250 q 535 238 536 242 q 533 232 533 233 q 554 215 533 215 m 678 167 q 690 154 678 154 q 779 235 736 154 q 811 372 811 296 l 807 422 q 781 292 807 350 q 682 178 749 221 l 678 167 m 226 818 q 185 901 200 860 q 171 967 171 942 q 185 997 171 985 q 217 1010 199 1010 q 256 978 246 1010 q 261 943 261 960 q 226 818 261 881 m 471 860 q 456 854 465 860 q 447 849 453 853 q 457 829 450 835 q 474 824 464 824 q 493 833 489 824 q 471 860 493 860 m 763 786 q 739 818 763 818 l 728 814 l 732 763 l 731 728 q 751 747 740 729 q 763 786 763 765 m 318 897 q 310 927 313 910 q 307 961 307 944 q 324 1042 307 1011 q 368 1074 340 1074 q 394 1063 383 1074 q 406 1032 406 1051 q 374 958 406 1006 q 318 897 342 911 z "},"E":{"ha":864,"x_min":76,"x_max":779,"o":"m 753 1000 l 757 857 q 682 739 757 783 q 567 697 633 710 q 515 663 535 692 q 494 606 494 633 q 503 572 494 581 q 583 580 542 578 q 682 582 624 582 q 724 581 706 582 q 753 581 742 581 l 753 328 q 532 300 617 328 q 467 264 467 279 l 468 258 q 532 245 474 250 q 621 240 590 240 q 699 244 671 240 q 763 258 726 247 l 768 260 q 777 254 775 260 q 779 242 779 249 q 774 217 779 226 q 754 190 769 208 l 754 167 q 746 172 750 167 q 740 176 742 176 q 729 157 729 172 q 726 144 728 147 q 715 158 719 154 l 694 147 q 693 128 694 136 l 681 140 l 665 135 l 667 122 l 663 117 q 647 129 654 122 q 625 117 636 122 q 633 107 631 110 q 661 96 646 96 q 696 104 672 96 q 735 113 719 113 q 758 108 749 113 q 767 96 767 104 l 763 92 q 715 58 746 85 q 659 23 683 32 q 606 14 635 14 q 517 -20 572 -8 q 403 -32 461 -32 q 263 -12 329 -32 q 176 -22 218 -12 q 100 -50 135 -31 q 92 -49 94 -50 q 89 -46 90 -47 q 101 -3 89 -24 q 151 53 110 11 q 76 232 76 128 q 108 349 76 292 q 196 454 139 406 q 123 543 147 489 q 99 660 99 597 q 226 886 99 814 q 440 938 318 938 q 528 931 478 938 q 597 924 578 924 q 688 942 647 924 q 753 1000 728 960 m 676 426 l 660 419 l 658 379 l 674 382 q 676 405 675 390 q 676 426 678 419 m 615 403 l 614 372 l 632 376 l 632 408 l 615 403 m 721 456 l 707 444 q 705 414 706 431 q 704 389 704 397 q 721 397 713 393 l 724 426 l 721 456 m 708 844 l 710 815 q 726 843 719 828 q 736 875 733 858 l 708 844 m 669 813 l 653 804 l 653 765 l 672 778 l 672 794 q 669 813 672 808 m 625 789 l 610 782 l 606 743 l 622 749 l 625 789 m 158 617 l 169 593 q 174 647 169 624 q 188 701 178 671 l 182 725 q 165 671 171 699 q 158 617 158 643 m 215 651 l 200 671 q 193 628 196 654 q 190 560 190 603 l 203 549 q 205 604 203 588 q 215 651 207 621 m 253 613 l 235 629 q 226 553 226 592 l 228 518 q 246 504 236 511 q 247 556 246 531 q 253 613 247 582 m 275 506 l 296 517 l 300 583 l 279 593 q 275 554 276 568 q 274 528 274 540 q 275 506 275 513 m 350 538 l 350 567 l 326 574 q 324 529 322 550 l 350 538 m 565 360 l 583 365 q 585 396 586 383 l 565 388 l 565 360 m 143 297 l 139 347 q 111 240 111 300 q 117 193 111 214 q 126 251 121 229 q 143 297 132 274 m 175 219 q 165 238 171 225 q 154 260 158 250 q 140 169 140 219 q 144 126 140 136 q 169 96 147 115 l 167 144 q 175 219 167 183 m 260 40 l 283 31 q 276 64 278 53 q 269 121 269 97 l 242 142 q 260 40 242 86 m 313 24 l 342 19 q 328 86 332 49 l 294 103 q 301 65 296 85 q 313 24 306 46 m 371 18 l 400 18 l 394 58 l 354 72 q 362 45 356 63 q 371 18 368 28 m 501 31 l 422 49 q 431 19 425 31 q 460 22 450 19 q 501 31 471 24 m 143 688 q 159 740 153 724 q 182 778 165 756 q 188 801 185 792 q 197 826 190 810 q 142 706 142 781 q 143 688 143 694 m 574 767 q 513 713 533 744 l 533 722 q 568 735 550 728 l 574 767 m 379 560 l 379 549 l 411 558 l 379 560 m 529 346 l 529 367 q 501 347 515 361 q 476 321 488 333 l 529 346 m 603 182 q 571 207 603 207 q 522 174 522 207 q 556 149 522 149 q 589 158 575 149 q 603 182 603 167 m 217 167 l 194 192 l 190 146 q 199 75 190 108 q 213 63 203 68 q 231 54 222 57 q 219 105 222 78 q 217 167 217 132 m 547 182 q 563 194 547 194 q 576 181 576 194 q 572 172 576 175 q 563 168 568 169 q 547 182 547 168 z "},"F":{"ha":797,"x_min":119,"x_max":729,"o":"m 119 936 l 729 936 l 729 790 q 711 793 721 793 q 697 793 701 793 q 598 772 642 793 q 536 717 554 750 q 483 694 517 703 q 421 676 450 685 q 366 647 389 669 q 339 593 343 624 q 326 507 331 536 q 313 389 313 410 q 314 380 313 386 q 318 367 315 374 l 374 567 q 437 636 386 613 q 540 660 488 660 l 549 653 l 544 647 q 447 624 497 647 q 385 560 397 601 l 335 379 q 350 386 343 376 l 504 556 q 540 578 517 575 q 594 581 563 581 l 729 579 l 729 449 q 669 383 729 404 q 568 364 642 374 q 488 321 522 358 q 447 215 447 278 q 458 161 447 188 q 489 111 468 135 q 524 0 524 67 l 119 0 l 119 936 m 658 713 l 675 701 l 676 696 q 667 688 671 688 q 640 672 651 678 q 621 665 629 665 q 588 699 588 665 q 594 722 588 710 q 617 735 600 735 q 658 713 642 735 m 628 708 q 615 717 625 717 q 608 713 611 717 q 606 707 606 708 q 617 696 606 696 q 628 708 628 703 z "},"G":{"ha":1082,"x_min":67,"x_max":989,"o":"m 982 404 l 982 168 q 736 1 883 53 q 540 -33 636 -33 q 185 128 317 -33 q 67 469 67 271 q 222 828 67 692 q 543 947 360 947 q 821 861 707 947 q 989 617 935 775 q 882 658 943 642 q 764 674 821 674 q 662 660 707 674 q 578 614 617 647 q 560 598 568 604 q 546 592 551 592 q 525 615 525 592 q 551 661 525 629 q 565 692 565 678 l 565 764 l 561 768 l 556 764 q 518 711 540 744 q 488 654 488 664 q 495 627 488 644 q 504 606 503 610 q 486 592 504 592 q 469 604 479 592 q 419 658 451 628 q 365 704 393 682 l 361 710 l 364 722 q 354 744 364 735 q 332 754 344 754 q 310 747 321 754 q 299 721 299 739 q 332 688 299 688 q 350 694 340 688 q 411 644 381 672 q 464 585 442 615 q 453 574 464 579 q 437 565 443 568 q 422 549 431 561 q 413 521 413 536 q 425 496 413 503 q 401 471 407 488 q 394 429 394 454 q 453 314 394 361 q 446 281 446 296 q 482 199 446 238 q 435 160 450 176 q 401 108 413 138 l 408 103 q 417 114 415 111 q 453 158 429 133 q 490 189 482 189 q 514 179 506 179 l 525 178 q 546 184 536 178 q 565 201 556 190 q 574 196 572 201 q 576 176 576 190 q 599 128 576 156 q 653 88 622 101 l 656 97 q 643 151 656 121 q 585 206 624 197 l 582 213 q 637 227 593 219 q 699 242 681 235 q 694 256 697 250 l 674 249 q 626 238 663 244 q 571 221 589 232 q 560 244 563 225 q 557 264 557 263 q 589 346 557 303 q 624 386 597 358 q 637 408 631 394 q 643 436 643 421 q 637 469 643 457 q 610 499 631 482 q 590 524 590 515 q 628 547 590 540 q 686 553 667 553 q 867 499 775 553 q 982 404 935 458 m 496 426 q 488 406 496 417 q 479 394 486 404 q 472 374 472 383 l 475 364 l 472 361 q 450 375 461 361 q 439 404 439 389 q 451 435 439 419 q 464 458 464 450 l 461 471 q 485 455 475 471 q 496 426 496 439 z "},"H":{"ha":932,"x_min":19,"x_max":935,"o":"m 718 772 q 702 914 718 850 q 661 1015 686 978 q 633 933 643 974 q 622 850 622 892 q 623 818 622 833 q 629 786 624 803 q 694 608 661 697 q 718 772 718 688 m 218 753 q 225 674 218 714 q 244 597 232 635 q 299 751 264 671 q 310 797 308 772 q 311 835 311 822 q 294 935 311 883 q 269 994 283 968 q 218 753 218 881 m 560 440 q 565 419 560 429 l 576 429 l 589 426 q 651 456 622 426 q 679 524 679 486 q 674 547 679 539 q 661 556 668 556 q 599 521 632 556 q 560 440 560 481 m 253 508 q 288 442 253 471 q 343 417 317 417 l 356 418 q 368 411 364 418 l 375 410 l 379 411 l 381 428 q 368 471 381 451 q 325 521 353 500 q 267 542 297 542 q 253 508 253 531 m 661 536 l 663 525 q 640 472 663 499 q 579 440 614 440 l 576 453 q 606 510 576 485 q 661 536 636 536 m 360 446 q 339 436 360 436 q 286 465 308 436 q 271 521 264 493 q 332 496 304 521 q 360 446 360 471 m 807 269 l 807 288 q 621 325 724 325 l 614 313 q 639 314 622 314 q 807 269 729 314 m 807 0 l 542 0 l 542 194 q 508 183 526 186 q 465 179 490 179 q 426 185 450 179 q 388 197 403 190 l 388 0 l 125 0 l 125 210 q 47 135 82 181 l 38 146 q 76 191 49 167 q 125 228 103 215 l 125 265 q 29 190 72 240 l 19 203 q 67 248 42 229 q 125 281 93 267 l 125 311 q 28 256 78 294 l 19 265 q 65 299 39 285 q 125 328 92 314 l 125 731 q 170 931 136 842 q 272 1093 204 1021 l 282 1096 q 300 1079 300 1096 l 297 1061 l 301 1049 q 358 901 335 986 q 388 736 388 794 l 388 539 l 543 539 l 543 744 q 574 908 543 822 q 643 1060 594 965 q 638 1082 638 1075 q 642 1090 639 1086 q 653 1094 646 1094 l 661 1093 q 767 935 719 1056 q 807 715 807 833 l 807 335 q 874 301 842 322 q 935 251 899 285 l 926 240 q 807 319 876 292 l 807 288 q 871 246 849 264 q 925 190 903 221 l 915 182 q 869 231 897 208 q 807 269 842 253 l 807 240 q 858 200 826 229 q 903 151 890 171 l 893 142 q 852 185 874 164 q 807 224 831 206 l 807 0 m 406 331 q 370 364 390 350 q 332 378 350 378 l 317 376 q 308 343 308 368 l 354 338 l 351 322 l 310 329 l 317 311 l 346 307 l 346 296 l 324 299 l 332 288 l 363 288 l 360 274 l 343 274 q 376 247 360 257 q 413 238 393 238 l 431 240 l 435 261 q 406 331 435 294 m 608 385 q 535 345 572 385 q 499 268 499 306 q 504 246 499 256 q 545 251 524 243 q 596 289 567 260 l 572 288 l 572 297 l 604 299 l 614 313 l 590 311 l 592 322 l 621 325 l 625 342 l 594 335 l 594 347 l 626 354 q 608 385 624 385 m 807 319 l 807 335 q 668 357 750 357 q 626 354 639 357 l 625 342 q 676 346 650 346 q 807 319 744 346 m 807 224 l 807 240 q 711 283 767 267 q 604 299 656 299 l 596 289 q 705 275 660 289 q 807 224 750 261 m 125 328 l 125 311 q 249 333 182 333 q 310 329 281 333 l 308 343 q 272 345 288 344 q 247 346 257 346 q 125 328 183 346 m 125 281 l 125 265 q 218 292 168 285 q 324 299 268 299 l 317 311 q 213 305 261 311 q 125 281 165 299 m 125 228 l 125 210 q 228 257 174 240 q 343 274 282 274 l 332 288 q 125 228 222 288 z "},"I":{"ha":610,"x_min":72,"x_max":525,"o":"m 357 976 l 360 972 q 343 935 344 950 l 394 956 q 447 964 419 964 q 456 963 453 964 q 464 960 460 963 q 438 946 451 953 q 415 931 424 939 l 454 935 q 482 933 469 935 q 494 926 494 931 l 490 922 q 466 919 476 922 q 440 907 456 915 q 484 892 465 901 q 514 865 503 883 l 510 863 l 493 864 l 468 860 q 501 829 486 847 q 521 792 515 811 q 521 783 521 789 q 521 771 521 776 q 511 776 514 775 q 494 786 497 785 l 478 790 q 501 763 493 774 q 519 726 515 743 l 515 725 q 483 750 501 742 q 497 717 492 733 q 507 687 501 701 q 525 663 513 672 l 524 660 q 498 678 511 663 q 478 701 485 693 q 482 681 478 692 q 490 661 486 671 l 517 615 l 514 613 q 481 631 499 631 q 499 599 493 614 q 506 567 506 585 l 482 582 q 511 508 496 544 l 507 506 q 493 524 503 514 q 475 539 483 533 q 489 499 475 533 q 503 463 503 464 l 493 469 q 482 475 486 476 q 493 452 486 468 q 500 411 500 436 q 498 382 500 394 q 493 356 496 369 q 485 203 488 289 q 483 85 483 118 l 483 47 q 462 10 483 22 q 404 -3 440 -3 q 355 0 390 -3 q 317 3 319 3 l 214 -6 q 140 31 164 -6 q 122 96 122 58 q 131 160 122 117 q 139 228 139 203 q 137 296 139 265 q 129 374 135 326 l 129 381 q 147 457 129 428 q 201 496 171 496 q 231 485 217 496 q 246 465 246 474 l 240 463 l 229 464 q 199 444 214 464 q 185 399 185 424 q 189 361 185 379 q 197 328 193 343 q 201 286 200 313 q 203 229 203 260 q 222 125 203 158 q 285 92 242 92 q 345 122 324 92 q 367 199 367 153 q 344 282 367 244 q 351 251 347 269 q 356 221 356 232 q 345 159 356 186 q 313 119 335 132 l 321 142 q 328 181 329 165 q 302 170 318 188 q 286 132 286 153 q 291 117 286 121 q 300 110 296 113 l 292 108 q 260 149 260 108 q 263 165 260 156 q 269 185 265 174 q 253 166 258 175 q 247 146 247 157 l 249 135 l 246 131 q 233 145 239 131 q 228 169 228 160 q 244 208 228 193 q 269 224 253 217 q 226 208 247 229 l 224 214 q 237 237 224 225 q 265 249 250 249 l 297 244 l 308 246 q 239 300 264 271 q 207 381 207 338 q 221 429 207 413 q 253 446 235 446 q 288 435 271 446 q 321 408 306 425 q 294 456 313 433 q 250 497 276 478 q 219 526 224 515 q 214 558 214 538 q 258 651 214 610 l 254 654 q 236 642 242 647 q 207 606 217 625 q 199 583 203 590 q 186 576 196 576 l 182 565 l 185 549 q 192 531 188 539 l 189 524 q 168 544 176 528 q 160 582 160 561 q 124 633 124 592 q 125 648 124 642 q 131 663 126 654 q 115 669 121 667 q 104 676 108 672 q 96 699 96 685 q 108 720 96 711 q 129 729 119 729 q 153 747 138 747 q 188 741 165 747 q 217 735 210 735 q 242 743 231 735 q 250 751 244 746 q 244 758 250 756 q 233 761 238 760 l 222 760 q 215 778 215 760 l 192 776 q 183 779 186 776 q 181 783 181 782 l 182 793 q 176 799 182 796 q 106 829 138 799 q 79 871 79 854 q 88 889 79 882 l 74 904 l 72 913 l 75 921 q 94 932 83 929 q 117 938 106 935 l 201 960 q 213 954 211 957 q 229 967 219 963 l 250 971 q 275 964 263 971 q 310 933 300 951 q 331 955 315 939 q 357 976 347 971 m 142 125 q 178 140 154 140 q 183 143 181 142 q 165 150 179 150 q 142 125 144 146 m 143 81 q 158 103 147 92 q 178 118 168 115 l 172 119 q 151 108 160 119 q 143 81 143 97 m 156 63 q 156 51 156 56 q 161 38 157 47 q 167 73 161 57 q 192 94 174 89 l 183 96 q 162 85 168 96 q 156 63 156 74 m 208 75 q 190 69 201 75 q 181 36 181 56 l 182 22 q 208 75 182 58 m 233 825 l 242 828 l 239 832 q 176 849 211 838 q 113 872 142 860 q 156 845 110 865 q 233 825 203 825 m 261 796 q 270 780 261 788 q 292 772 279 772 q 336 801 336 772 q 297 826 336 826 q 274 817 286 826 q 261 796 261 807 m 218 908 q 243 915 235 913 q 269 931 269 925 q 247 944 269 944 q 223 933 232 944 q 218 908 214 922 m 118 911 l 125 904 q 135 909 131 904 q 140 919 140 914 l 133 926 l 118 911 m 125 686 q 135 669 125 676 q 154 684 143 676 q 175 694 165 692 l 201 701 l 161 703 q 143 710 149 703 q 125 686 125 710 m 154 619 q 161 597 154 607 q 181 635 167 619 q 218 665 194 651 q 172 657 190 671 q 154 619 154 643 m 461 411 q 471 401 461 401 q 481 411 481 401 q 471 421 481 421 q 461 411 461 421 m 160 331 q 169 321 160 321 q 178 331 178 328 q 174 339 178 335 q 169 340 171 339 q 160 331 160 340 m 161 288 q 171 279 168 279 l 179 288 q 176 294 179 292 q 171 299 172 297 q 161 288 161 299 m 444 215 q 454 206 444 206 q 463 215 463 213 q 458 225 463 221 q 454 226 456 225 q 444 215 444 226 m 443 172 q 451 163 443 163 q 460 172 460 163 q 451 183 460 183 q 443 172 443 183 m 150 167 q 176 172 160 172 q 170 178 174 178 q 165 179 167 179 q 151 171 158 179 q 150 167 151 169 m 443 126 q 453 117 443 117 q 461 126 461 124 q 458 133 461 131 q 453 138 454 136 q 443 126 443 138 m 442 81 q 450 71 442 71 q 458 81 458 71 q 450 90 458 90 q 442 81 442 90 m 457 365 q 468 356 457 356 q 479 365 479 356 q 468 376 479 376 q 457 365 457 376 m 363 551 q 379 546 365 550 q 389 582 389 563 l 385 601 q 363 551 378 572 m 410 582 q 408 562 410 571 q 404 543 406 553 l 417 547 l 418 563 q 408 594 418 583 l 410 582 m 278 906 l 274 911 l 224 892 q 251 881 228 881 q 269 889 261 881 q 278 906 278 897 m 324 581 q 331 569 326 574 q 339 564 336 565 q 356 589 349 574 q 364 618 364 604 l 363 629 q 348 602 357 614 q 324 581 339 590 m 301 601 q 310 593 306 597 q 328 628 325 608 q 301 601 310 611 m 456 319 q 465 310 456 310 q 475 319 475 317 l 465 328 q 458 324 461 328 q 456 319 456 321 m 447 265 q 458 251 447 251 q 469 265 469 251 q 458 276 469 276 q 447 265 447 276 z "},"J":{"ha":853,"x_min":68,"x_max":768,"o":"m 764 961 q 758 933 758 949 q 763 899 758 922 q 768 865 768 875 q 758 826 768 842 q 717 806 744 806 q 708 800 708 803 q 721 738 708 782 q 728 697 728 713 q 726 674 728 681 q 715 632 721 653 l 731 607 q 761 481 761 551 q 701 286 761 374 q 743 125 722 206 q 731 71 743 99 q 740 43 740 51 q 715 -6 740 18 q 649 -29 690 -29 q 594 -12 614 -29 q 575 40 575 4 q 581 77 575 58 q 599 114 588 96 q 608 161 611 132 q 581 138 590 144 q 540 111 550 113 l 536 74 q 560 25 536 44 q 574 -11 574 13 q 560 -45 574 -32 q 525 -58 547 -58 q 492 -46 507 -58 q 464 -58 479 -58 q 438 -50 450 -58 q 414 -26 426 -42 q 404 -36 408 -33 q 378 -47 390 -47 q 326 -15 343 -47 q 314 -7 325 -11 l 297 -8 q 140 85 208 -8 q 68 329 68 183 q 105 490 68 426 q 193 553 142 553 q 242 534 218 553 q 265 481 265 515 q 258 451 265 468 q 228 347 228 407 q 260 238 228 279 q 332 197 292 197 q 375 208 357 197 q 411 288 411 231 q 409 317 411 301 q 403 349 407 333 q 386 410 399 365 q 374 482 374 456 q 425 614 374 558 l 428 626 q 417 653 428 636 q 404 675 406 671 q 394 733 394 700 q 403 792 394 767 q 360 824 371 813 q 339 874 339 846 q 352 910 339 899 q 388 921 365 921 q 440 906 419 921 q 462 921 449 910 q 482 935 475 932 q 563 960 518 960 q 614 949 592 960 q 660 914 636 938 q 708 940 674 918 q 764 961 742 961 m 301 167 q 289 181 301 181 q 263 159 278 181 q 249 119 249 138 q 256 93 249 103 q 269 83 263 83 l 276 88 l 275 107 q 288 146 275 126 l 301 167 m 354 136 q 351 146 353 142 q 346 150 350 150 q 327 131 338 150 q 317 90 317 111 q 344 46 317 46 q 354 54 354 51 l 344 88 q 351 119 344 94 q 354 136 354 129 m 476 724 l 474 708 q 429 676 449 700 l 435 665 q 450 685 443 678 q 475 700 463 697 q 476 688 475 692 q 482 681 478 685 q 465 665 472 674 q 453 644 457 656 q 460 640 458 642 q 463 639 461 639 q 489 675 468 658 q 496 669 490 672 q 511 681 506 678 q 550 689 528 689 q 599 675 579 689 q 617 689 604 676 q 654 672 644 683 q 668 640 664 661 q 676 646 674 642 q 660 681 671 669 q 621 697 650 692 l 626 708 q 665 697 650 708 q 694 665 681 686 l 699 676 q 668 708 686 696 q 626 719 650 719 q 624 735 626 732 q 674 726 657 735 q 704 700 692 717 l 707 713 q 635 746 679 746 q 619 744 625 744 q 594 765 614 765 q 564 736 576 765 l 567 729 q 544 711 567 711 l 539 711 q 527 723 531 714 q 521 739 524 732 q 508 747 518 746 q 483 736 494 747 q 446 729 468 736 q 418 715 424 722 q 422 704 418 706 q 449 719 431 713 q 476 724 467 726 m 581 643 q 550 664 581 664 q 525 660 536 664 q 514 642 514 657 q 547 617 514 617 q 569 624 558 617 q 581 643 581 632 m 631 451 q 669 469 653 451 q 682 508 685 486 q 619 467 658 474 l 617 460 q 631 451 617 454 m 221 457 q 204 471 221 471 q 175 450 175 471 q 193 436 175 436 q 221 457 221 436 m 203 393 q 192 403 203 403 q 165 389 181 403 q 149 364 149 375 q 163 353 149 353 q 189 367 175 353 q 203 393 203 381 m 675 36 q 664 8 665 18 q 672 3 664 6 q 690 10 681 3 q 699 29 699 17 q 686 40 699 40 l 675 36 m 635 22 q 622 38 635 38 q 615 33 617 38 q 613 26 613 28 q 626 10 613 10 q 632 13 631 10 q 635 22 633 17 m 701 415 l 699 422 q 632 394 667 394 q 611 397 618 394 q 608 389 610 396 q 640 363 608 363 q 685 379 668 363 q 701 415 701 396 m 156 265 q 171 281 164 275 q 188 296 175 288 q 204 307 201 304 l 206 315 q 202 322 206 319 q 194 326 199 325 q 166 312 185 326 q 147 275 147 297 q 156 265 151 265 m 213 240 q 221 254 221 247 q 210 265 221 265 q 183 243 199 265 q 167 199 167 221 q 169 192 168 194 q 172 189 171 190 q 190 217 181 203 q 213 240 199 232 m 251 203 q 240 215 251 211 q 213 196 226 215 q 199 161 199 176 q 213 133 199 133 q 217 142 217 138 q 232 181 217 169 q 242 190 233 183 q 251 203 251 197 m 444 836 l 449 856 l 444 860 q 431 843 431 860 q 474 807 431 811 q 488 790 481 803 q 494 807 494 796 q 488 835 494 825 q 472 850 481 844 q 464 843 467 847 q 460 833 461 839 l 461 822 l 458 817 q 447 825 450 817 q 444 836 444 833 m 669 844 q 663 858 669 854 q 649 860 656 861 l 651 842 q 648 831 651 835 q 639 825 644 828 l 632 832 l 633 842 l 626 851 q 604 813 604 836 l 606 801 q 616 810 611 803 q 624 818 621 817 l 635 817 q 661 826 653 817 q 669 844 669 836 m 692 593 q 689 605 690 599 q 679 611 688 611 q 675 608 676 611 q 674 604 674 606 q 669 579 674 590 q 654 553 664 568 q 677 563 663 549 q 692 593 692 576 m 672 325 l 671 332 q 582 292 635 292 l 556 296 q 567 273 554 282 q 597 264 581 264 q 649 282 626 264 q 672 325 672 300 z "},"K":{"ha":1132,"x_min":18,"x_max":1099,"o":"m 531 0 l 250 0 q 176 35 210 0 q 143 118 143 69 q 159 185 143 158 q 204 228 175 211 q 150 261 167 240 q 126 350 126 290 q 150 442 126 397 q 206 518 167 472 q 217 540 221 533 q 161 564 182 536 q 151 590 151 578 l 147 594 q 136 585 136 588 l 139 572 q 131 567 133 567 q 83 600 111 567 q 54 646 61 626 q 34 657 38 651 q 31 685 31 663 l 33 736 q 18 754 25 744 q 49 808 18 781 q 138 842 85 842 l 168 838 q 230 918 186 886 q 326 950 274 950 q 359 1035 326 999 q 444 1072 392 1072 l 450 1069 l 450 1046 q 500 1056 475 1056 q 563 1035 536 1056 q 590 1001 590 1014 q 583 992 590 997 q 576 982 576 986 q 608 941 596 960 q 621 914 621 922 q 604 896 621 907 q 619 842 619 872 q 617 810 619 824 q 603 796 614 796 q 585 813 593 804 l 567 817 l 556 786 q 567 725 567 757 l 564 694 q 569 689 567 690 q 574 688 572 688 q 582 694 581 692 l 713 936 l 1074 936 l 992 788 q 1026 736 1026 776 q 986 688 1022 700 q 994 657 994 671 q 979 625 994 640 q 942 610 964 610 q 924 570 942 589 q 879 551 907 551 l 858 554 l 818 485 l 856 419 l 872 421 q 909 401 896 421 q 918 367 922 382 q 960 353 942 367 q 979 315 979 340 q 972 292 979 303 q 990 279 982 289 q 1004 240 1004 264 q 988 192 1004 215 l 1099 0 l 722 0 l 531 363 l 531 0 m 446 678 q 422 738 446 710 q 357 769 394 769 q 305 745 324 769 q 286 688 286 721 q 314 619 286 649 q 356 596 338 596 q 369 613 369 596 l 367 622 q 335 651 346 632 q 324 690 324 669 q 334 717 324 707 q 358 728 344 728 q 388 715 372 728 q 413 676 403 701 q 415 660 414 674 q 429 651 415 651 q 446 678 446 651 m 399 860 q 370 848 382 860 q 358 819 358 836 q 369 792 358 803 q 399 781 381 781 q 426 792 415 781 q 438 819 438 803 q 426 848 438 836 q 399 860 414 860 m 935 681 q 901 672 919 672 q 856 685 878 672 q 865 660 850 668 q 899 651 881 651 q 926 662 915 651 q 935 681 936 672 m 957 738 l 954 744 q 929 739 940 739 q 892 750 910 739 l 890 739 q 925 718 890 718 q 957 738 957 718 m 894 617 q 856 620 869 617 q 824 642 842 624 q 818 626 818 636 q 831 605 818 613 q 858 597 844 597 q 894 617 894 597 m 238 760 q 211 750 222 760 q 200 722 200 740 q 211 694 200 707 q 238 682 222 682 q 266 694 254 682 q 278 722 278 706 q 266 749 278 738 q 238 760 254 760 m 428 628 q 403 617 415 628 q 390 594 390 606 q 401 588 390 590 q 418 593 410 588 q 438 619 438 606 q 433 624 438 622 q 428 628 429 626 m 869 358 q 856 374 869 371 q 826 338 843 356 q 806 314 818 328 l 818 313 q 854 328 839 313 q 869 358 869 343 m 856 258 q 903 274 882 258 q 924 301 924 289 q 918 311 924 307 q 907 315 913 315 q 880 295 899 315 q 856 258 861 275 m 957 236 q 956 247 957 244 q 936 260 950 260 q 917 233 929 246 q 890 217 904 221 l 910 215 q 943 219 929 215 q 957 236 957 224 m 399 835 q 413 819 413 835 q 399 804 413 804 q 382 819 382 804 q 399 835 382 835 m 238 738 q 254 722 254 738 q 238 706 254 706 q 224 722 224 706 q 238 738 224 738 z "},"L":{"ha":839,"x_min":119,"x_max":756,"o":"m 518 683 q 553 667 540 683 q 567 633 567 651 q 553 599 567 613 q 518 585 539 585 q 483 598 497 585 q 468 633 468 611 q 481 667 468 651 q 518 683 494 683 m 532 650 q 518 635 518 650 q 532 621 518 621 q 546 635 546 621 q 532 650 546 650 m 119 0 l 119 936 l 622 936 q 503 883 557 928 q 429 775 450 838 q 351 764 397 764 l 322 765 l 293 768 q 275 751 275 768 q 317 714 275 733 q 408 694 360 694 q 397 681 406 690 q 382 663 389 671 q 297 375 297 536 q 307 294 297 336 q 336 251 317 251 q 352 257 340 251 q 369 267 364 263 q 390 288 374 272 q 410 304 407 304 q 419 293 419 300 q 402 254 419 276 q 361 219 385 232 q 381 191 367 204 q 417 178 394 178 q 461 194 443 178 q 482 226 474 206 q 497 176 479 197 q 542 154 514 154 q 592 178 574 154 q 608 215 603 192 q 628 192 615 201 q 658 183 642 183 q 707 203 689 183 q 725 246 725 222 l 721 264 l 756 271 l 756 0 l 119 0 m 414 747 l 408 719 l 388 718 q 328 728 357 718 q 300 744 300 738 l 310 747 l 372 744 l 414 747 z "},"M":{"ha":1332,"x_min":88,"x_max":1275,"o":"m 88 0 l 181 936 l 281 936 q 274 985 274 961 q 306 1078 274 1039 q 390 1117 338 1117 q 477 1077 442 1117 q 513 988 513 1038 q 504 931 513 963 q 490 876 490 878 l 486 825 q 508 717 486 765 q 579 633 531 669 q 599 597 589 626 q 632 564 610 568 q 658 581 649 564 q 669 607 661 585 q 690 640 678 629 q 789 826 789 706 q 781 900 789 839 q 774 965 774 961 q 815 1071 774 1033 q 896 1103 850 1103 q 975 1067 942 1103 q 1008 979 1008 1031 l 1004 936 l 1104 936 l 1167 161 q 1206 186 1182 161 q 1235 253 1235 217 q 1215 328 1235 271 q 1163 475 1189 401 q 1153 538 1153 503 q 1192 649 1153 604 q 1222 676 1208 665 q 1253 693 1236 688 q 1258 689 1256 693 q 1196 638 1217 671 q 1175 561 1175 604 q 1183 507 1175 533 q 1204 456 1185 501 q 1247 353 1233 388 q 1275 243 1275 286 q 1244 156 1275 194 q 1171 104 1214 118 l 1179 0 l 868 0 l 864 36 q 831 83 831 51 q 858 125 831 110 l 835 403 l 785 281 q 808 231 808 260 q 790 183 808 201 q 743 165 772 165 l 679 0 l 575 0 l 553 57 q 517 78 533 60 q 500 121 500 96 q 519 168 500 153 l 439 424 l 417 251 q 443 233 433 244 q 453 206 453 222 q 441 174 453 189 q 407 160 429 160 l 390 0 l 88 0 m 968 972 q 947 1034 968 1011 q 897 1057 925 1057 q 838 1028 861 1057 q 815 960 815 999 q 836 903 815 926 q 889 879 857 879 q 944 908 919 879 q 968 972 968 936 m 803 753 l 1021 772 l 1021 783 l 803 764 l 803 753 m 468 978 q 439 1050 468 1025 q 389 1069 417 1069 q 338 1047 358 1069 q 318 986 318 1024 q 340 922 318 953 q 396 892 363 892 q 447 915 426 892 q 468 978 468 939 m 247 796 l 244 785 l 464 756 l 464 765 l 247 796 m 460 103 q 481 93 471 103 q 490 71 490 83 q 460 39 490 39 q 437 48 446 39 q 428 71 428 57 q 438 93 428 83 q 460 103 447 103 m 756 64 q 778 54 768 64 q 788 29 788 44 q 778 7 788 17 q 756 -3 768 -3 q 731 6 742 -3 q 721 29 721 15 q 731 54 721 44 q 756 64 740 64 m 603 861 q 617 856 610 861 q 624 840 624 850 q 603 819 624 819 q 581 840 581 819 q 603 861 581 861 m 681 819 q 660 840 660 819 q 681 861 660 861 q 703 840 703 861 q 681 819 703 819 m 776 692 l 1025 625 l 1031 636 l 781 700 l 776 692 m 253 644 l 256 633 l 483 689 l 479 697 l 253 644 m 956 521 l 963 532 l 743 647 l 735 639 l 956 521 m 304 544 l 308 533 l 515 636 l 507 644 l 304 544 z "},"N":{"ha":1329,"x_min":-4,"x_max":1318,"o":"m 381 936 l 544 936 l 756 576 q 769 653 756 610 q 801 771 801 753 q 781 832 801 806 q 742 898 756 863 q 729 971 729 933 q 756 1076 729 1028 q 822 1135 782 1124 q 897 988 822 1040 q 1031 929 964 958 q 1079 877 1061 907 q 1097 813 1097 847 l 1097 319 q 1112 307 1097 310 q 1151 304 1126 304 q 1172 304 1161 304 q 1190 325 1190 307 l 1189 344 q 1174 356 1181 351 q 1157 382 1160 365 q 1167 406 1157 394 q 1190 417 1176 417 q 1214 407 1204 417 q 1224 382 1224 397 q 1211 357 1224 369 q 1204 343 1204 350 q 1204 324 1204 333 q 1217 310 1207 310 q 1249 322 1231 310 q 1259 347 1254 335 q 1285 360 1264 360 q 1311 349 1304 360 q 1318 326 1318 339 q 1309 305 1318 314 q 1289 296 1300 296 q 1270 299 1282 296 q 1254 303 1258 303 q 1243 299 1246 300 q 1231 281 1231 292 q 1238 267 1231 278 q 1249 251 1244 257 q 1281 241 1254 246 q 1307 214 1307 236 q 1297 188 1307 199 q 1275 178 1286 178 q 1253 187 1264 178 q 1243 204 1243 196 q 1234 243 1243 225 q 1210 261 1225 261 q 1198 247 1201 261 q 1192 219 1194 233 q 1199 203 1192 214 q 1206 181 1206 192 q 1195 158 1206 167 q 1174 149 1185 149 q 1150 159 1160 149 q 1140 183 1140 169 q 1155 210 1140 201 q 1174 225 1169 218 q 1178 240 1174 226 q 1183 261 1183 254 q 1174 275 1183 275 l 1100 275 q 1097 260 1097 268 l 1097 0 l 850 0 q 778 19 808 0 q 763 6 767 10 q 747 -19 747 -11 q 763 -35 747 -24 q 782 -46 778 -46 l 803 -42 q 836 -76 836 -42 q 826 -99 836 -92 q 806 -107 815 -107 q 793 -106 797 -107 q 771 -71 771 -97 q 759 -55 771 -64 q 740 -46 747 -46 q 731 -59 733 -46 q 728 -86 728 -72 q 744 -124 736 -104 q 736 -146 740 -140 q 711 -157 726 -157 q 688 -145 696 -157 q 679 -124 679 -133 q 692 -100 679 -110 q 706 -89 704 -90 q 713 -58 713 -78 q 696 -44 713 -44 q 664 -54 674 -44 q 648 -77 656 -69 q 628 -85 640 -85 q 606 -74 618 -85 q 594 -54 594 -64 q 606 -27 594 -37 q 628 -17 618 -17 q 653 -32 638 -17 q 674 -29 667 -31 q 696 -15 696 -24 q 677 9 689 0 q 658 18 665 18 l 650 17 q 628 26 639 17 q 617 49 617 36 q 626 73 617 63 q 649 83 635 83 q 683 50 683 83 q 681 32 683 43 q 692 19 688 24 q 708 6 706 6 q 733 24 718 6 q 749 50 749 43 l 746 57 l 556 367 q 518 226 518 303 q 538 143 518 176 q 582 60 582 68 l 579 28 q 533 -53 574 -7 q 485 -131 492 -100 q 457 -183 479 -161 q 410 -206 435 -206 q 333 -156 365 -206 q 300 -78 315 -128 q 225 15 285 -28 q 165 92 165 57 q 213 193 165 119 q 235 256 235 228 l 235 463 q 224 475 235 475 l 146 475 q 128 454 136 475 q 121 415 121 433 l 124 406 q 142 378 142 394 q 131 350 142 360 q 108 340 119 340 q 85 350 96 340 q 74 374 74 360 q 87 399 74 390 q 104 421 100 407 q 108 449 108 435 q 89 463 108 463 q 62 443 67 458 q 53 422 57 428 q 26 410 43 410 q 6 422 15 410 q -4 442 -4 433 q 6 469 -4 460 q 31 478 15 478 l 56 471 q 70 476 61 471 q 89 490 79 482 q 99 503 99 497 q 69 528 99 511 q 46 538 53 538 l 31 535 q 4 568 4 535 q 13 591 4 581 q 36 601 22 601 q 59 594 49 601 q 69 571 69 586 q 75 553 69 557 l 107 525 q 117 526 114 518 q 121 543 121 533 q 119 566 121 551 q 104 585 118 581 q 92 607 92 592 q 104 635 92 628 q 126 643 117 643 q 151 632 143 643 q 158 614 158 621 q 151 591 158 600 q 144 579 144 582 l 146 525 q 158 515 146 515 l 224 515 q 235 528 235 515 l 235 760 q 268 876 235 826 q 381 936 308 936 m 972 286 q 958 313 972 299 q 924 361 924 349 q 947 398 924 382 q 969 433 969 414 q 954 456 969 447 q 926 497 926 471 q 936 522 926 513 q 961 532 946 531 q 981 542 976 533 l 983 554 q 952 581 983 565 q 926 629 921 597 q 960 658 929 646 q 990 685 990 671 q 962 708 990 692 q 933 751 933 724 q 940 786 933 761 q 946 815 947 811 q 888 867 908 844 q 867 929 867 890 l 865 940 q 860 931 861 935 q 854 894 854 915 q 884 842 854 871 q 914 799 914 814 q 900 771 914 789 q 886 742 886 753 q 916 712 886 724 q 946 681 946 700 q 928 657 946 667 q 908 640 911 647 q 904 626 904 633 q 917 602 904 617 q 931 578 931 588 q 906 544 931 558 q 882 506 882 531 q 903 479 882 493 q 924 435 924 465 q 899 410 924 422 q 874 385 874 397 q 900 351 874 375 q 926 307 926 328 q 918 283 926 296 q 883 265 906 265 q 847 291 856 265 q 831 325 838 317 q 814 333 824 333 q 794 326 804 329 q 775 324 785 324 q 751 350 751 324 q 756 385 756 372 q 746 406 756 400 q 693 415 713 410 q 654 472 654 428 q 663 510 654 490 q 671 538 671 529 q 661 556 671 549 q 639 563 651 563 q 623 559 632 561 q 603 557 614 557 q 569 565 582 557 q 551 607 551 578 q 564 635 551 617 q 576 664 576 653 l 575 671 q 543 690 571 689 q 508 696 515 692 q 481 738 486 703 q 458 781 476 774 l 451 781 q 425 758 425 781 q 438 714 431 736 q 444 678 444 692 q 393 615 444 636 q 368 588 368 606 q 381 561 368 579 q 393 532 393 543 q 361 493 393 510 q 329 457 329 476 q 350 432 329 442 q 381 422 363 426 q 405 408 399 418 q 411 386 411 397 q 386 329 411 363 q 361 274 361 296 q 376 234 361 254 q 407 203 390 214 q 392 235 397 222 q 388 264 388 247 q 407 317 388 290 q 453 396 453 381 q 429 428 453 415 q 406 457 406 440 q 421 483 406 467 q 436 514 436 500 q 422 542 436 528 q 407 569 407 557 q 436 597 407 597 q 465 633 465 599 q 464 658 465 649 q 470 674 465 668 q 485 681 475 681 q 506 672 497 681 q 524 641 519 658 q 531 593 529 624 q 535 552 532 563 q 565 542 538 542 q 617 518 593 542 q 640 463 640 494 q 636 433 636 444 q 644 412 636 418 q 665 403 651 406 q 715 383 703 394 q 733 340 733 367 q 731 310 731 322 q 738 283 731 289 q 761 276 746 276 q 780 280 764 276 q 803 283 796 283 q 834 276 821 283 q 853 251 847 269 q 861 222 858 233 q 875 211 864 211 q 899 240 888 211 q 933 268 910 268 l 954 264 q 972 286 972 264 m 376 781 q 354 758 354 781 q 376 733 354 733 q 401 758 401 733 q 376 781 401 781 m 901 164 q 882 143 882 164 q 901 126 882 126 q 921 143 921 126 q 901 164 921 164 m 304 111 q 274 99 288 111 q 260 67 260 86 q 272 33 260 47 q 304 19 285 19 q 338 33 324 19 q 351 67 351 47 q 338 99 351 86 q 304 111 324 111 m 474 -12 q 504 1 490 -12 q 518 35 518 15 q 506 68 518 54 q 474 82 493 82 q 440 68 454 82 q 426 35 426 54 q 439 1 426 15 q 474 -12 451 -12 m 850 461 q 832 443 832 461 q 850 426 832 426 q 864 443 864 426 q 850 461 864 461 m 304 86 q 326 67 326 86 q 304 44 326 44 q 285 67 285 44 q 304 86 285 86 m 471 15 q 451 35 451 15 q 471 54 451 54 q 493 35 493 54 q 471 15 493 15 z "},"O":{"ha":1232,"x_min":-3,"x_max":1226,"o":"m 754 715 q 781 669 754 694 q 840 644 807 644 q 888 683 888 644 q 874 717 888 700 q 843 700 861 700 q 815 708 825 700 q 806 733 806 717 l 810 756 q 769 747 783 758 q 754 715 754 735 m 404 764 l 408 740 q 399 721 408 733 q 376 708 390 708 q 344 722 361 708 q 332 689 332 704 q 371 650 332 650 q 434 673 407 650 q 461 725 461 696 q 451 755 461 742 q 422 768 442 768 l 404 764 m 536 150 q 562 124 536 135 q 626 114 588 114 q 692 124 667 114 q 718 150 718 133 q 692 174 718 164 q 626 183 667 183 q 563 174 589 183 q 536 150 536 164 m 13 272 l -3 293 q 59 343 25 321 q 131 381 93 365 q 124 434 125 418 q 124 460 124 450 q 153 628 124 547 q 240 781 183 710 q 218 840 218 803 q 242 897 218 875 q 299 919 265 919 q 344 906 326 919 q 365 886 350 901 q 483 934 417 917 q 619 951 550 951 q 825 907 736 951 l 849 893 q 918 931 876 931 q 975 907 951 931 q 999 851 999 883 q 976 794 999 817 q 1108 457 1108 650 l 1104 393 q 1169 354 1147 369 q 1226 299 1206 329 l 1208 283 q 1167 325 1193 304 q 1099 367 1122 360 l 1081 303 q 1137 265 1110 286 q 1183 221 1164 244 l 1165 204 q 1122 244 1136 233 q 1071 275 1099 263 q 1046 221 1061 244 q 1089 190 1071 204 q 1129 150 1115 169 l 1114 135 q 1076 169 1090 158 q 1032 199 1056 186 q 851 27 961 89 q 614 -35 740 -35 q 363 33 478 -35 q 194 201 256 96 q 79 126 131 174 l 64 147 q 119 192 85 169 q 179 226 129 197 q 166 253 172 239 q 156 281 160 268 q 90 244 115 261 q 39 201 65 226 l 24 221 q 146 306 74 272 q 139 331 142 318 q 135 351 136 344 q 69 315 103 336 q 13 272 36 294 m 460 278 l 454 247 q 415 249 432 249 q 383 250 397 250 l 358 250 q 453 171 392 188 q 533 213 479 200 q 635 225 586 225 q 725 216 688 225 q 794 183 763 207 q 882 260 851 204 q 742 275 813 275 l 742 299 q 819 296 783 299 q 892 283 856 293 q 901 333 901 304 q 806 344 857 344 q 782 344 793 344 q 758 342 765 342 l 758 369 q 808 374 783 374 q 851 372 836 374 q 901 363 865 369 q 899 389 901 374 q 890 414 896 404 q 875 415 885 415 q 861 415 865 415 q 803 413 829 415 q 761 408 778 410 l 758 431 q 826 439 799 436 q 876 442 854 442 q 726 528 829 528 q 674 465 699 479 q 614 451 650 451 q 557 468 586 451 q 508 518 528 485 q 427 497 465 518 q 365 436 389 475 q 433 435 418 436 q 471 426 449 433 l 465 400 q 424 407 444 404 q 382 410 404 410 l 350 408 q 343 385 347 400 q 338 363 339 371 l 399 367 q 471 357 440 367 l 465 329 q 427 336 446 333 q 388 339 408 339 q 354 338 365 339 q 335 333 340 333 q 339 300 335 317 q 344 278 343 283 q 406 282 381 282 q 460 278 435 282 m 179 226 l 194 201 q 358 250 274 238 q 344 278 349 261 q 254 257 282 265 q 179 226 226 249 m 146 306 l 156 281 q 335 333 242 318 l 338 363 q 238 341 289 356 q 146 306 188 326 m 131 381 l 135 351 q 235 387 176 372 q 350 408 293 401 l 365 436 q 131 381 264 436 m 876 442 l 890 414 q 1003 400 944 414 q 1099 367 1063 386 l 1104 393 q 997 426 1060 411 q 876 442 935 442 m 901 363 l 901 333 q 1071 275 992 318 l 1081 303 q 997 338 1042 322 q 901 363 951 353 m 892 283 l 882 260 q 1032 199 965 242 l 1046 221 q 975 257 1013 242 q 892 283 938 272 z "},"P":{"ha":1028,"x_min":-29,"x_max":993,"o":"m 189 683 l 189 853 q 212 912 189 888 q 269 936 235 936 l 663 936 q 897 844 800 936 q 993 610 993 751 q 896 382 993 468 q 636 296 799 296 q 549 301 588 296 q 533 269 543 283 q 510 239 517 249 q 497 200 497 219 l 499 188 q 508 122 508 157 q 475 9 508 60 q 415 -42 442 -42 q 396 -29 396 -42 q 403 -11 396 -21 q 415 7 415 6 q 433 47 426 26 q 439 88 439 68 q 436 114 439 106 q 417 167 422 147 q 411 197 411 186 l 419 249 q 406 292 419 276 q 383 278 397 292 q 364 229 364 258 q 366 205 364 211 q 381 189 368 199 q 403 142 403 169 q 351 35 403 90 q 229 -26 294 -26 q 195 -22 206 -26 q 165 -1 185 -17 l 151 -3 q 110 11 131 -3 q 71 49 90 25 q 44 63 58 57 q 17 69 31 69 q -25 44 -7 69 q -15 74 -29 57 q 25 92 -1 92 l 38 90 q 60 85 54 83 q 43 124 49 114 q 13 153 32 143 l 3 160 q 33 150 15 160 q 60 128 51 140 q 88 68 64 124 q 113 33 99 43 q 144 22 126 18 q 142 46 142 29 q 154 129 147 88 q 165 165 154 149 q 197 182 175 182 l 222 179 l 224 204 q 217 261 224 235 q 196 318 210 288 q 190 364 190 339 q 256 506 190 449 q 235 572 256 535 q 189 683 189 656 m 483 761 l 489 761 q 510 753 504 761 q 511 749 510 751 q 500 726 500 732 q 514 722 506 722 q 532 732 522 722 q 538 743 535 735 q 542 755 540 751 q 549 760 543 758 q 563 761 556 761 q 574 753 574 761 l 572 747 q 583 740 572 743 q 599 747 596 744 q 621 764 613 764 q 642 754 633 764 q 650 738 650 744 q 645 725 650 735 q 640 710 640 715 q 651 700 640 700 q 669 726 665 704 q 676 754 672 749 q 681 761 679 760 q 700 768 689 768 l 714 761 q 721 746 714 749 q 758 743 728 743 q 779 725 779 743 q 771 710 779 717 q 751 685 751 692 q 775 671 751 671 q 783 673 779 671 q 790 679 786 675 q 825 714 807 701 q 867 726 843 726 q 900 717 890 717 q 910 729 913 717 q 882 746 908 746 q 847 738 871 746 q 811 729 824 729 q 782 751 782 729 q 795 769 782 763 q 810 781 808 776 l 811 788 q 788 808 811 808 q 775 799 775 808 q 747 763 775 763 q 722 786 722 763 q 726 800 722 793 q 735 816 729 807 q 750 828 742 825 q 775 832 758 832 l 790 832 q 799 847 799 832 q 791 860 799 853 q 778 868 783 868 q 753 860 769 868 q 726 826 736 851 q 714 795 717 800 q 707 789 711 790 q 700 786 703 788 q 683 792 693 786 q 656 804 661 804 q 639 797 647 804 q 621 779 631 789 l 614 778 l 588 785 q 574 781 581 785 q 560 772 567 776 l 547 769 q 529 793 529 769 l 533 831 q 524 855 533 843 q 507 867 515 867 q 490 854 490 867 q 496 832 490 843 q 511 794 511 803 q 501 777 511 783 q 482 771 490 771 q 469 774 476 771 q 446 781 451 781 q 426 771 436 781 q 418 761 424 768 q 438 743 418 743 q 456 749 444 743 q 483 761 479 761 m 679 625 q 644 681 679 657 q 564 704 610 704 q 498 691 524 704 q 472 643 472 678 q 485 610 479 632 q 492 569 490 588 q 599 558 543 569 q 652 578 625 558 q 679 625 679 597 m 769 650 q 750 632 750 650 q 771 611 750 611 q 783 617 778 611 q 789 629 789 622 q 769 650 789 650 m 738 394 q 722 425 738 410 q 688 475 688 461 q 698 495 688 488 q 718 503 708 503 q 750 482 728 503 q 771 471 763 471 q 779 483 779 471 q 764 510 779 492 l 763 517 q 799 542 763 542 q 841 517 818 542 q 864 469 864 493 q 888 442 864 442 q 901 456 896 442 q 906 482 906 469 q 893 519 906 507 q 858 539 881 532 q 829 550 836 546 q 815 571 815 558 q 825 588 815 581 q 838 614 838 603 q 828 628 838 628 q 815 618 819 628 q 808 600 811 608 q 761 568 792 568 q 746 583 749 568 q 741 601 743 599 q 726 604 739 604 q 711 589 711 604 q 720 574 711 582 q 742 558 729 567 q 749 536 749 551 l 747 526 q 721 514 739 514 q 694 517 711 514 q 674 521 676 521 l 664 513 q 657 481 664 492 q 624 471 650 471 q 607 481 617 471 q 593 490 597 490 l 585 486 q 572 469 576 472 q 550 461 563 461 q 526 478 533 461 q 510 499 521 499 q 494 483 501 499 q 485 465 488 468 q 449 453 472 453 l 433 454 q 400 470 419 463 q 365 478 381 478 q 333 469 350 478 q 297 435 304 456 q 290 383 290 415 l 286 333 l 294 328 q 311 342 304 328 q 315 361 315 358 q 310 383 315 368 q 304 406 304 399 q 312 427 304 417 q 331 438 319 438 q 352 426 347 438 q 357 388 357 414 q 360 363 357 372 q 375 354 364 354 q 394 372 394 354 q 384 394 394 382 q 374 413 374 406 q 406 447 374 447 q 435 438 421 447 q 460 413 450 428 q 472 388 465 400 q 489 376 479 376 q 501 386 501 376 q 499 396 500 394 q 476 433 476 414 q 487 453 476 447 q 514 458 497 458 q 545 441 532 458 q 558 406 558 424 q 553 383 558 400 q 549 356 549 365 q 568 332 549 332 q 586 358 586 332 q 568 436 576 397 q 589 461 568 461 q 608 449 601 461 q 619 438 613 444 q 631 432 625 432 q 640 444 638 432 q 649 460 643 457 l 660 464 q 681 447 672 464 q 689 410 689 431 l 685 369 q 701 354 685 354 q 724 366 711 354 q 738 394 738 378 m 608 856 q 593 875 593 856 q 583 882 592 878 q 574 877 576 882 q 571 871 571 872 q 579 857 571 867 q 589 842 588 847 l 590 836 q 583 815 583 821 q 585 811 583 813 q 590 810 588 810 q 615 827 611 810 q 640 846 618 844 q 661 853 661 847 q 649 865 657 865 q 608 856 622 856 m 904 665 q 889 683 904 683 q 868 671 878 683 q 858 649 858 658 q 876 632 858 632 q 894 644 883 632 q 904 665 904 656 m 350 857 q 365 835 350 840 l 379 850 q 390 871 390 868 q 375 888 390 888 q 350 857 350 888 m 492 308 q 475 313 488 313 q 447 307 456 313 q 456 288 456 296 q 453 274 456 281 q 446 249 446 254 q 460 235 446 235 q 476 251 476 235 l 472 281 q 492 308 472 300 m 242 126 q 248 108 243 118 q 258 90 253 99 l 253 86 q 222 111 238 99 l 218 97 q 227 77 218 85 q 244 69 236 69 q 265 78 256 69 q 274 97 274 86 q 269 114 274 107 q 242 126 260 129 z "},"Q":{"ha":1150,"x_min":67,"x_max":1264,"o":"m 132 593 q 150 551 144 564 q 193 490 168 515 q 225 547 204 525 q 236 556 228 550 q 317 453 260 490 q 421 422 364 422 q 463 429 439 422 q 416 483 433 451 q 399 550 399 514 q 419 631 399 596 q 450 667 431 650 q 383 626 414 657 q 340 558 351 594 q 324 551 331 551 q 299 580 308 551 q 289 650 289 608 q 299 731 289 694 q 332 808 310 768 q 293 787 311 808 q 269 744 275 765 q 254 665 258 722 q 232 590 250 607 q 204 578 219 578 q 163 622 163 578 q 176 648 163 638 q 206 658 189 658 q 232 644 219 658 l 247 728 q 276 793 256 767 q 344 825 306 829 l 386 871 q 356 879 369 879 q 310 860 335 879 q 244 767 271 829 q 215 718 232 736 q 167 694 193 694 q 131 728 131 694 q 140 752 131 742 q 163 763 149 763 q 183 756 174 763 q 197 738 192 750 q 235 781 217 751 q 286 860 279 854 q 323 887 308 881 q 357 893 338 893 q 401 883 378 893 q 442 911 414 894 q 451 917 444 913 q 407 935 438 935 q 300 896 346 935 q 239 821 272 872 q 217 796 231 806 q 185 786 203 786 q 157 797 167 786 q 147 819 147 808 q 182 857 147 857 q 202 847 193 857 q 215 825 211 838 q 247 857 229 836 q 300 914 286 903 q 347 940 319 929 q 404 950 375 950 q 469 925 444 950 q 582 949 524 949 q 753 897 681 949 q 863 753 825 844 q 903 763 882 763 q 1009 671 960 763 q 1058 458 1058 579 q 1021 275 1058 360 q 919 117 989 203 l 1264 -117 l 1136 -79 l 1197 -172 l 1060 -101 l 1117 -206 l 1019 -126 l 1019 -133 l 1044 -222 l 958 -129 l 982 -244 l 978 -246 l 808 32 q 551 -35 692 -35 q 268 53 400 -35 q 85 283 136 142 l 96 283 l 113 283 q 92 328 99 313 q 75 375 79 354 q 67 451 67 415 l 113 443 q 108 470 108 464 q 107 492 107 476 q 132 593 107 549 m 656 174 q 578 194 617 171 q 594 159 578 174 q 628 144 610 144 q 656 174 656 144 m 750 108 q 719 113 732 108 q 686 128 707 117 q 700 101 686 113 q 731 90 714 90 q 750 108 750 90 m 790 164 q 725 175 761 164 q 769 147 736 147 q 790 164 790 147 m 863 214 l 838 213 q 799 215 814 213 q 779 218 785 218 q 802 194 788 203 q 835 186 817 186 q 858 196 849 186 q 863 214 867 206 m 908 279 q 876 268 896 272 q 842 264 857 264 l 806 267 q 854 239 825 239 q 885 244 875 239 q 902 258 896 250 q 908 279 908 267 m 667 554 q 624 449 667 496 q 517 403 582 403 q 506 382 506 403 q 528 356 506 363 q 582 349 551 349 q 682 393 633 349 q 740 522 740 446 q 702 633 740 582 q 626 683 664 683 q 610 671 610 683 q 667 554 667 626 m 878 383 q 939 404 914 383 q 964 451 964 425 q 950 478 964 468 q 895 428 929 449 q 824 399 861 407 q 878 383 847 383 m 740 244 l 715 243 q 644 263 688 243 q 661 235 649 247 q 708 214 681 214 q 735 229 726 214 q 740 244 738 233 m 456 750 q 433 774 456 774 q 410 750 410 774 q 433 726 410 726 q 456 750 456 726 m 874 321 q 904 313 879 313 q 933 320 921 313 q 944 343 944 328 q 940 358 944 356 q 910 338 929 347 q 874 321 892 328 z "},"R":{"ha":1040,"x_min":33,"x_max":1010,"o":"m 151 936 l 367 936 q 358 978 358 961 q 371 1019 358 1006 q 399 1033 383 1033 q 465 1001 435 1033 q 506 936 490 975 l 742 936 q 782 981 763 965 q 838 1003 810 1003 q 879 956 879 1003 q 874 919 879 935 q 853 879 868 904 q 972 656 972 800 q 911 490 972 561 q 790 413 861 433 l 769 406 l 789 369 l 1010 0 l 635 0 l 478 272 l 478 0 l 151 0 l 151 181 q 169 172 158 176 q 192 165 181 167 q 228 238 207 206 q 283 293 249 269 q 244 324 261 306 q 126 197 160 281 q 71 254 97 219 q 120 327 86 293 q 200 382 154 361 q 188 408 193 393 q 178 439 182 424 q 38 339 100 414 l 33 386 q 39 444 33 418 q 96 479 67 465 q 160 504 125 493 l 156 561 q 110 549 133 560 q 67 526 97 543 q 100 593 78 558 q 151 658 122 628 l 151 936 m 843 672 q 763 805 843 746 q 572 864 682 864 q 413 824 474 864 q 353 731 353 783 l 360 739 q 497 814 404 814 q 555 799 535 814 q 575 760 575 783 q 535 703 575 724 q 479 667 494 683 q 460 607 460 644 q 473 561 460 579 q 513 543 486 543 l 533 547 q 518 596 518 569 q 537 649 518 629 q 581 669 556 669 q 626 647 610 669 q 643 599 643 624 q 621 540 643 565 q 683 562 658 540 q 707 617 707 583 q 701 649 707 633 q 682 674 694 665 q 640 703 646 697 q 615 751 615 725 q 635 783 615 769 q 679 797 654 797 q 785 742 742 797 q 824 636 824 692 q 824 614 824 625 q 818 599 819 603 q 835 630 828 611 q 843 672 843 649 m 350 265 l 315 275 q 271 151 271 219 q 310 153 294 151 q 342 161 325 156 q 340 190 340 171 q 342 226 340 208 q 350 265 344 244 m 439 229 q 410 257 439 257 l 394 253 l 397 225 l 394 183 q 423 201 407 188 q 439 229 439 215 m 449 760 q 482 726 449 726 q 505 737 496 726 q 514 760 514 747 q 479 793 514 793 q 449 760 449 793 m 672 735 q 707 703 672 703 q 729 713 719 703 q 739 736 739 722 q 706 768 739 768 q 672 735 672 768 z "},"S":{"ha":868,"x_min":71,"x_max":824,"o":"m 146 69 l 121 99 q 78 89 93 101 l 74 88 l 71 94 q 75 113 71 104 q 97 129 79 121 q 76 210 76 165 q 121 322 76 274 q 228 371 165 371 q 328 332 285 371 q 371 231 371 293 q 340 153 371 185 q 268 122 308 122 q 203 149 229 122 q 178 210 178 176 q 185 247 178 231 q 203 268 192 264 l 197 232 q 215 186 197 210 q 222 219 215 207 q 232 208 231 211 q 279 186 250 186 q 258 214 261 200 q 291 222 279 213 q 303 246 303 232 q 285 267 303 267 q 257 253 272 267 l 251 256 l 253 267 q 243 293 253 285 q 222 301 233 301 q 176 279 199 301 q 150 211 150 251 q 194 122 150 157 q 310 88 238 88 q 457 142 401 88 q 506 249 506 189 q 453 361 506 319 q 371 393 413 393 q 346 379 346 393 q 351 364 350 368 l 343 360 q 324 369 333 360 q 319 378 322 371 q 313 405 317 385 q 293 425 308 425 q 281 418 283 421 q 276 404 278 415 q 274 392 275 393 q 261 397 265 394 q 247 425 247 408 q 254 453 247 436 q 233 474 249 474 q 210 454 219 474 q 222 440 222 451 q 204 421 222 421 q 191 431 197 421 q 185 450 185 442 q 192 474 185 463 q 210 496 199 486 l 213 513 q 207 531 213 525 q 196 536 201 536 q 172 524 179 536 q 185 503 185 518 q 163 483 185 483 q 147 493 153 483 q 142 514 142 503 q 154 543 142 531 q 185 594 185 571 q 163 626 185 626 q 143 619 153 626 q 136 611 140 618 q 144 601 143 606 l 147 588 q 125 568 147 568 q 108 578 111 568 q 104 603 104 589 q 113 633 107 622 q 135 655 118 644 q 172 676 153 665 q 193 714 189 689 q 164 742 193 742 q 142 736 151 742 q 146 719 146 729 q 125 697 146 697 q 100 724 100 697 q 128 762 100 749 q 183 775 157 775 q 203 788 199 783 q 217 822 217 800 q 206 840 217 835 q 188 844 194 846 l 192 828 q 186 810 192 819 q 165 800 181 800 q 138 826 138 800 q 158 858 138 842 q 207 875 179 875 l 229 871 q 250 879 243 876 q 271 907 271 890 q 257 928 271 918 q 250 931 256 929 q 240 910 247 915 q 229 903 233 904 q 222 901 225 901 q 201 910 210 901 q 192 931 192 919 q 205 955 192 946 q 240 964 218 964 q 263 960 253 964 q 287 949 274 957 q 313 933 300 940 q 340 926 326 926 q 371 933 360 926 q 382 957 382 939 q 363 994 382 968 q 335 975 354 975 q 318 981 324 975 q 308 1001 313 988 q 344 1032 308 1032 q 376 1021 361 1032 q 401 994 392 1010 q 413 967 408 978 q 431 951 418 957 l 454 947 q 491 963 474 947 q 508 1013 508 979 l 490 1008 q 476 1013 479 1008 q 469 1024 472 1017 q 489 1053 469 1053 q 531 1024 519 1053 q 538 965 538 1004 q 557 930 544 944 q 589 915 569 915 q 623 925 610 915 q 636 958 636 935 q 633 965 636 961 l 624 961 q 597 982 597 961 q 621 1001 597 1001 q 650 987 642 1001 q 658 953 658 972 q 643 904 658 933 q 671 865 660 892 q 683 818 678 847 q 720 770 694 790 q 774 750 746 750 q 806 768 788 768 l 824 761 l 792 672 l 683 708 q 665 696 678 696 q 637 704 651 696 q 608 721 622 713 q 544 746 574 738 q 481 754 515 754 q 431 734 450 754 q 413 685 413 714 q 425 650 413 667 q 449 628 438 633 q 498 622 461 624 q 547 617 535 621 q 710 528 639 600 q 790 332 790 444 q 704 118 790 208 q 461 -17 608 17 q 433 -40 447 -21 q 410 -21 415 -40 l 369 -22 l 328 -21 q 304 -40 317 -21 q 288 -12 293 -37 q 244 3 265 -4 q 225 -4 232 3 l 204 -25 q 194 -7 194 -25 q 206 24 194 1 q 178 33 196 33 q 156 31 163 33 q 129 14 150 29 q 118 31 118 18 q 126 52 118 43 q 146 69 133 61 m 324 553 q 403 529 375 553 q 424 493 424 511 l 447 496 q 506 476 478 496 q 526 424 533 456 q 568 401 556 413 q 586 361 586 385 q 575 328 586 342 q 588 285 588 310 q 564 243 588 261 q 572 211 569 222 q 574 197 574 200 q 560 156 574 172 q 519 128 547 140 q 578 146 556 128 q 607 196 607 169 q 603 214 607 201 q 599 233 599 226 q 613 253 599 246 q 635 267 628 260 q 647 299 647 278 q 638 324 647 311 q 615 360 615 351 l 617 368 q 626 408 626 386 q 610 453 626 436 q 560 469 593 469 l 542 468 q 526 515 549 493 q 461 536 503 536 l 433 533 q 425 547 428 536 q 419 563 422 558 q 394 581 411 576 q 354 586 378 586 q 349 590 351 588 q 347 593 347 592 l 349 611 q 340 651 349 633 q 312 673 331 669 q 293 690 293 676 q 307 719 293 704 q 325 740 321 733 q 335 763 335 756 q 328 782 335 772 l 324 758 q 296 727 318 743 q 268 697 274 711 l 267 690 q 285 670 267 679 q 308 653 303 661 q 329 588 329 625 q 324 553 329 568 m 601 831 q 594 851 601 842 q 563 869 582 869 l 550 867 q 560 843 550 854 l 567 844 q 579 831 579 844 q 567 818 579 818 l 557 822 q 539 797 539 814 q 561 790 546 790 q 591 801 581 790 q 601 831 601 813 m 279 819 q 268 808 268 819 q 279 797 268 797 q 290 808 290 797 q 279 819 290 819 m 289 308 q 282 305 285 308 q 279 300 279 301 q 289 292 279 292 q 297 300 297 297 l 289 308 m 481 111 q 469 99 469 111 q 481 86 469 86 q 493 99 493 86 q 481 111 493 111 z "},"T":{"ha":953,"x_min":32,"x_max":914,"o":"m 314 624 l 129 624 q 85 599 99 624 q 71 546 71 575 q 76 514 71 526 l 69 514 q 50 549 56 529 q 44 592 44 568 q 53 652 44 624 q 86 711 63 681 q 56 696 68 707 q 35 668 50 690 q 42 735 32 703 q 74 794 51 767 q 93 850 89 817 q 70 837 83 849 q 49 814 57 825 q 58 906 49 864 q 90 982 67 947 q 108 1024 100 996 q 119 1071 117 1053 q 222 1031 176 1071 q 288 936 263 994 l 676 936 q 746 1008 708 982 q 840 1040 792 1040 l 861 1039 l 863 1019 q 869 979 863 1000 q 884 943 872 972 q 900 894 896 914 q 904 839 904 875 l 901 824 l 899 826 q 863 856 883 847 q 869 813 863 831 q 889 772 882 788 q 908 728 901 747 q 914 685 914 710 q 864 719 893 715 q 900 606 900 665 q 892 557 900 581 q 871 514 885 533 l 874 540 q 851 599 874 578 q 804 621 828 621 l 644 621 l 644 456 q 558 419 599 447 q 508 342 508 383 q 549 257 508 292 q 644 222 589 222 l 644 0 l 314 0 l 314 221 q 413 263 376 232 q 449 338 449 293 q 424 399 449 371 q 314 451 386 440 l 314 624 m 719 799 q 712 849 724 825 q 676 890 700 874 q 681 872 679 878 q 682 860 682 867 q 665 817 682 840 q 624 775 647 793 q 626 788 626 782 q 594 854 626 822 q 525 886 563 886 q 557 828 547 861 q 567 757 567 794 q 558 690 567 722 q 661 749 614 728 q 779 775 722 775 q 788 794 785 782 q 790 817 790 806 q 788 842 790 833 q 779 871 786 851 q 756 824 765 838 q 719 799 742 804 m 629 700 q 606 685 622 694 q 589 672 590 675 q 602 658 589 663 q 628 654 615 654 q 702 681 661 654 q 751 740 743 707 l 696 732 q 658 688 700 688 q 629 700 649 688 m 344 781 q 310 825 324 797 q 297 879 297 853 l 300 901 q 263 851 275 881 q 250 804 250 822 q 210 847 225 824 q 197 899 194 871 q 174 828 174 868 q 185 783 174 801 q 310 749 249 783 q 415 668 351 725 q 397 760 397 714 q 406 828 397 797 q 436 886 415 858 q 385 863 408 881 q 350 818 361 844 q 344 781 344 804 m 365 672 l 335 700 q 303 686 321 686 q 278 696 288 686 q 268 721 268 706 l 271 735 q 244 744 261 740 q 213 750 228 749 q 256 679 213 713 q 333 646 300 646 q 359 653 349 646 q 365 672 369 661 m 589 288 l 593 304 q 708 270 654 297 q 801 193 761 243 l 789 178 q 589 288 710 275 m 578 332 l 578 347 l 618 350 q 720 332 672 350 q 811 281 768 314 l 801 267 q 608 333 718 333 q 578 332 589 333 m 347 388 q 317 393 326 392 q 285 394 307 394 q 150 365 213 394 l 143 381 q 282 413 210 413 q 317 411 304 413 q 351 403 329 410 l 347 388 m 251 915 l 261 922 q 215 997 244 968 q 140 1036 186 1026 l 133 1025 q 206 986 175 1015 q 251 915 238 957 m 842 1014 q 761 989 799 1014 q 693 922 724 964 l 700 915 q 763 976 731 956 q 844 1001 801 1001 l 842 1014 m 594 379 l 590 390 q 654 400 621 400 q 721 392 685 400 q 790 368 757 385 q 788 360 789 364 q 782 354 786 356 q 650 383 721 383 q 594 379 622 383 m 143 261 l 132 274 q 343 357 222 357 l 369 356 l 369 340 q 246 322 301 340 q 143 261 190 303 m 178 172 l 164 186 q 367 310 238 290 l 371 293 q 178 172 251 274 m 567 157 q 541 200 567 183 q 481 217 515 217 q 415 199 442 217 q 388 154 388 181 q 412 110 388 131 q 476 90 436 90 q 533 106 508 90 q 567 157 567 125 m 479 207 q 494 189 494 207 q 479 172 494 172 q 463 189 463 172 q 479 207 463 207 m 431 192 q 449 175 449 192 q 431 160 449 160 q 414 175 414 160 q 431 192 414 192 m 524 192 q 539 175 539 192 q 524 158 539 158 q 508 175 508 158 q 524 192 508 192 z "},"U":{"ha":1060,"x_min":118,"x_max":942,"o":"m 406 936 l 406 656 l 321 778 l 322 772 l 494 456 l 494 461 l 424 688 l 424 693 l 494 551 l 494 572 l 465 850 l 525 497 l 528 504 l 547 778 l 551 526 l 576 628 l 632 858 l 588 549 l 658 729 l 606 567 l 672 672 l 672 660 l 831 906 l 826 904 l 672 692 l 672 936 l 942 936 l 942 240 q 824 46 942 125 q 538 -33 706 -33 q 224 54 344 -33 q 118 229 118 131 l 118 936 l 406 936 m 140 364 l 303 368 l 385 368 l 344 358 l 163 313 l 207 317 l 363 342 l 372 342 l 182 226 l 406 329 l 408 310 l 454 351 l 406 329 l 406 350 l 454 374 l 454 381 l 418 378 l 406 379 l 406 397 l 140 364 m 603 404 l 672 404 l 672 390 l 876 403 l 885 404 l 672 417 l 672 424 l 603 404 m 672 360 l 633 372 l 672 339 l 672 357 l 906 285 l 672 382 l 672 360 m 508 242 l 521 240 l 550 33 l 546 239 l 538 240 l 529 331 l 508 242 m 554 319 l 560 242 l 572 242 l 554 319 m 672 581 l 672 628 l 581 490 l 661 593 l 663 582 l 568 447 l 567 442 l 672 558 l 672 542 l 858 757 l 672 581 m 321 640 l 406 492 l 457 418 q 434 461 444 444 q 406 501 424 478 l 406 532 l 321 640 m 672 506 l 672 536 l 585 442 q 627 466 604 451 q 672 494 650 481 l 672 479 l 875 611 l 885 619 l 672 506 m 406 553 l 494 421 l 406 590 l 406 553 m 672 449 l 672 468 l 590 418 l 672 442 l 672 428 l 894 535 l 907 542 l 672 449 m 165 504 l 424 394 l 432 399 l 406 421 l 165 504 m 518 419 q 532 408 518 408 q 544 419 544 408 q 532 432 544 432 q 518 419 518 432 m 514 372 q 525 358 514 358 q 538 372 538 358 q 525 383 529 383 q 518 380 521 383 q 514 372 515 376 m 553 389 q 565 376 553 376 q 576 389 576 376 q 565 401 576 401 q 553 389 553 401 m 565 358 l 592 247 l 576 242 l 649 25 l 601 247 l 610 253 l 565 358 m 479 250 l 493 246 l 522 338 l 522 344 l 479 250 m 794 85 l 664 299 l 668 306 l 607 344 l 794 85 m 671 313 l 879 174 l 674 335 l 671 313 m 276 567 l 406 435 l 406 469 l 250 600 l 276 567 m 490 344 l 425 282 q 440 264 428 274 l 365 107 l 468 253 l 443 263 q 466 306 454 285 q 490 344 478 326 m 233 121 l 418 282 q 407 310 407 300 l 233 121 m 626 260 l 724 36 l 647 272 l 626 260 m 457 186 l 419 46 l 485 194 l 490 210 l 457 186 z "},"V":{"ha":981,"x_min":7,"x_max":978,"o":"m 478 936 l 599 936 l 601 908 q 574 825 601 858 q 531 799 547 792 q 558 831 550 814 q 565 861 565 849 q 536 853 550 853 q 499 863 514 853 q 474 915 474 879 l 478 936 m 274 936 l 274 906 l 256 903 l 257 892 l 276 894 l 282 863 l 261 856 l 264 844 l 283 850 l 292 818 l 274 810 l 276 801 l 297 807 l 308 779 l 292 768 l 297 757 l 315 768 l 332 743 l 315 732 l 322 722 l 338 733 l 354 711 l 339 699 l 346 692 l 361 704 q 442 576 421 632 q 463 458 463 521 l 460 424 q 470 465 467 439 q 474 519 474 492 q 456 658 474 596 q 393 768 438 721 l 392 776 q 406 792 392 792 q 435 757 429 792 l 433 743 q 483 599 467 660 q 506 438 506 514 q 488 382 506 406 q 444 358 469 358 l 433 360 q 513 326 467 326 q 606 380 567 326 q 646 513 646 433 q 640 608 646 564 q 619 708 633 651 l 607 760 l 622 789 l 647 778 l 651 789 l 625 797 l 633 824 l 660 818 l 663 826 l 635 832 l 640 865 l 667 863 l 667 874 l 640 876 l 640 903 l 667 903 l 667 914 l 640 914 q 636 936 638 929 l 978 936 l 607 0 l 339 0 l 206 376 q 256 521 238 443 q 275 674 275 599 q 250 836 275 757 q 258 740 254 788 q 186 438 258 586 l 178 458 q 211 558 196 499 q 226 679 226 618 q 216 785 226 729 q 189 867 206 842 q 199 824 190 860 q 204 794 203 806 l 207 740 q 157 513 207 628 l 147 540 q 175 708 175 624 q 140 868 175 799 q 143 846 140 860 q 149 811 146 832 q 153 749 153 790 q 129 593 153 668 l 111 642 l 115 722 q 110 800 115 768 q 93 868 106 832 q 97 825 96 839 q 99 783 99 811 q 89 706 99 739 l 7 936 l 274 936 m 524 885 l 524 879 q 558 889 546 876 l 553 894 q 524 885 543 888 m 567 697 q 594 689 583 697 q 606 669 606 681 q 567 644 606 644 q 540 651 551 644 q 529 669 529 658 q 540 689 529 681 q 567 697 551 697 z "},"W":{"ha":1514,"x_min":11,"x_max":1472,"o":"m 665 185 q 706 169 686 181 q 735 129 735 153 q 722 113 735 113 l 694 115 q 634 101 669 115 q 599 68 599 88 q 624 56 599 58 q 678 54 649 54 q 721 46 704 51 q 753 14 753 35 q 747 -4 753 3 q 720 -10 743 -6 q 694 -15 697 -14 q 564 -35 629 -35 q 347 33 433 -35 q 247 261 247 113 l 257 407 q 175 667 257 579 q 22 735 111 735 q 11 793 11 765 q 56 910 11 860 q 190 967 107 967 q 393 865 303 967 q 508 506 508 736 q 519 489 508 489 q 526 497 524 489 q 517 603 517 546 q 583 851 517 750 q 781 964 657 964 q 988 845 903 964 q 1074 550 1074 726 q 1086 547 1083 547 q 1118 642 1100 567 q 1142 824 1142 740 l 1136 915 q 1154 958 1136 942 q 1194 975 1172 975 q 1242 951 1224 975 q 1271 886 1260 926 q 1317 885 1294 886 q 1364 876 1339 885 q 1378 918 1364 906 q 1419 931 1393 931 q 1456 916 1442 931 q 1471 881 1471 901 q 1447 833 1471 850 q 1443 829 1444 831 q 1448 811 1442 828 q 1463 754 1454 794 q 1472 681 1472 714 q 1460 601 1472 639 q 1438 600 1451 600 q 1408 602 1426 600 q 1383 604 1390 604 q 1376 572 1379 588 q 1372 547 1374 557 q 1301 349 1353 439 q 1138 188 1236 235 q 1152 151 1140 169 q 1182 122 1164 133 q 1201 111 1194 115 q 1208 100 1208 107 q 1186 78 1208 90 q 1142 67 1164 67 q 1047 124 1076 67 l 1042 129 q 1039 113 1039 124 q 1061 58 1039 85 q 1138 25 1090 25 q 1146 17 1146 22 q 1122 -24 1146 -6 q 1040 -47 1092 -47 q 900 8 967 -47 q 824 167 824 72 q 833 228 824 200 l 836 282 q 814 422 836 360 q 772 485 792 485 l 768 478 l 771 454 l 774 413 q 749 281 774 339 q 665 185 724 222 m 1313 781 q 1289 817 1313 817 q 1279 814 1283 817 q 1275 800 1275 811 q 1281 777 1275 789 q 1300 765 1286 765 q 1313 781 1313 765 m 1422 758 q 1415 781 1422 769 q 1396 793 1407 793 q 1388 775 1388 790 q 1395 749 1388 760 q 1410 739 1403 739 q 1422 758 1422 739 m 463 628 q 458 662 458 654 q 451 689 457 669 q 331 878 425 808 q 242 924 300 900 l 233 918 q 256 901 233 913 q 289 883 279 890 q 394 771 346 844 q 463 628 436 707 m 401 639 q 332 814 401 739 q 218 878 272 878 q 211 874 215 878 l 214 868 q 330 782 283 840 q 401 639 376 724 m 361 607 q 334 724 361 669 q 254 810 307 778 q 227 824 242 817 q 199 833 213 832 l 193 829 l 196 825 q 299 735 256 793 q 361 607 343 676 m 1199 332 q 1287 464 1253 393 q 1335 614 1321 535 l 1282 633 q 1231 451 1268 532 q 1114 294 1189 363 l 1111 286 q 1126 278 1115 278 q 1166 302 1149 290 q 1199 332 1183 314 z "},"X":{"ha":1210,"x_min":22,"x_max":1192,"o":"m 664 796 q 824 763 754 796 l 836 757 q 849 763 842 757 q 857 776 857 769 q 800 817 857 800 q 711 835 743 835 l 688 833 q 666 841 672 833 q 660 860 660 849 q 698 898 660 883 q 779 913 736 913 q 817 911 804 913 q 838 907 832 907 q 888 940 867 907 q 904 989 904 968 l 903 1021 q 908 1045 903 1038 q 932 1054 914 1053 q 958 1047 947 1054 q 968 1021 968 1039 q 956 999 968 1004 q 924 974 932 988 q 915 951 915 961 q 922 940 915 947 q 926 938 924 939 q 978 966 951 940 q 1006 1006 1006 992 q 1017 1036 1006 1026 q 1042 1046 1028 1046 q 1056 1042 1049 1046 q 1074 1011 1074 1031 q 1067 990 1074 997 q 1007 957 1035 972 q 951 913 951 926 l 954 908 l 1033 919 q 1042 923 1039 921 q 1053 939 1044 925 q 1081 953 1061 953 q 1103 941 1093 953 q 1114 918 1114 929 q 1103 893 1114 903 q 1075 883 1092 883 q 1042 890 1064 883 q 1008 897 1019 897 q 938 878 960 897 q 917 831 917 860 q 940 795 917 814 q 1000 776 964 776 q 1031 780 1010 776 q 1078 789 1051 783 q 1097 786 1090 789 q 1118 760 1118 778 q 1104 733 1118 740 q 1055 713 1083 721 q 999 697 1026 704 q 978 681 988 694 q 961 657 969 668 q 890 596 929 617 q 794 563 851 575 q 771 546 781 558 q 761 517 761 533 q 770 488 761 503 q 788 461 779 474 q 807 405 800 432 q 814 350 814 378 l 822 346 q 831 378 831 346 q 828 409 831 399 q 819 447 826 419 q 843 469 819 469 q 896 452 869 469 q 938 410 922 435 q 969 309 954 385 q 1021 204 985 233 q 1076 161 1049 182 q 1118 106 1106 136 q 1135 94 1122 94 l 1160 99 q 1182 86 1172 99 q 1192 60 1192 74 q 1182 36 1192 47 q 1156 25 1172 25 q 1115 60 1129 25 q 1107 79 1110 75 q 1090 90 1100 90 q 1068 64 1068 90 q 1072 32 1068 44 q 1107 -6 1082 3 q 1135 -12 1125 -8 q 1154 -43 1154 -22 q 1147 -69 1154 -57 q 1121 -82 1140 -82 q 1089 -68 1097 -82 q 1078 -32 1081 -54 q 1042 60 1049 6 q 1036 67 1040 64 q 1026 72 1032 69 q 1014 63 1018 72 q 1010 36 1010 53 q 1014 6 1010 19 q 1026 -26 1018 -8 q 1035 -58 1035 -43 q 1001 -94 1035 -94 q 963 -58 963 -94 q 972 -33 963 -42 q 986 -22 982 -25 q 992 -1 992 -14 q 983 29 992 14 q 954 44 975 44 q 916 31 936 44 q 896 -12 896 18 q 883 -43 896 -33 q 860 -53 871 -53 q 837 -43 850 -53 q 824 -17 824 -33 q 846 18 824 4 q 879 40 876 38 q 939 179 939 96 q 886 326 939 258 q 864 281 878 297 q 831 265 850 265 q 788 289 806 265 q 778 308 783 294 q 768 342 774 321 q 735 374 757 374 q 719 361 719 374 q 725 341 719 349 q 743 322 731 333 q 771 271 771 299 q 760 237 771 253 q 731 210 749 221 q 695 201 722 206 q 664 182 668 196 q 636 106 657 128 q 604 90 621 90 q 556 119 572 90 q 543 154 549 129 q 501 214 533 199 q 453 226 482 224 q 417 247 425 228 l 413 268 q 425 310 413 293 q 450 331 432 318 q 475 350 468 343 l 476 357 q 467 368 476 368 q 414 333 443 368 q 385 261 385 299 q 364 250 378 250 q 341 270 347 250 q 313 290 335 290 q 289 231 303 281 q 275 167 275 182 q 293 129 275 142 q 336 117 311 117 l 382 119 q 408 115 400 119 q 426 81 426 106 q 388 42 426 42 q 360 53 371 42 q 349 81 349 64 q 321 88 335 88 q 293 72 301 88 q 288 56 290 68 q 292 38 288 44 q 317 3 307 11 q 359 -23 335 -14 q 383 -58 383 -32 q 372 -87 383 -74 q 340 -100 360 -100 q 317 -90 328 -100 q 306 -68 306 -81 q 271 8 306 -31 q 229 40 242 40 q 211 18 211 40 l 214 -6 q 228 -40 215 -12 q 240 -83 240 -68 q 204 -124 240 -124 q 182 -117 193 -124 q 164 -90 164 -104 q 193 -47 164 -64 q 188 -8 193 -26 q 174 38 183 11 q 144 51 161 51 q 118 42 129 51 q 97 18 107 33 q 85 -5 94 4 q 63 -14 76 -14 q 34 -3 46 -14 q 22 24 22 7 q 29 49 22 38 q 51 62 36 60 q 72 67 65 64 q 197 188 149 107 q 261 346 235 249 q 293 440 261 407 q 349 465 318 465 q 363 454 363 465 l 360 447 q 338 386 343 421 q 342 378 338 381 q 351 374 346 375 q 360 382 357 374 q 389 456 367 421 q 446 513 411 492 q 459 522 453 517 q 465 538 465 528 q 435 578 465 560 q 360 596 404 596 q 303 633 326 607 q 276 693 279 660 q 271 695 275 694 q 261 697 267 696 l 226 686 l 194 682 q 153 696 167 682 q 139 724 139 710 q 165 759 139 751 q 228 767 192 767 q 243 774 240 771 q 247 796 238 789 q 303 813 267 811 q 374 818 340 815 l 376 824 q 336 854 376 835 q 228 879 285 879 q 173 873 194 879 q 131 847 151 867 l 133 833 q 100 801 133 801 q 78 810 88 801 q 68 831 68 818 q 101 874 68 856 q 167 893 135 893 l 222 894 q 235 903 235 894 q 224 913 235 911 q 192 915 214 915 q 151 913 175 915 q 108 908 128 910 q 94 913 101 908 q 79 940 79 922 q 88 964 79 954 q 108 974 96 974 q 140 960 133 974 q 143 942 143 954 q 150 934 143 935 q 193 931 157 933 q 246 925 229 928 q 258 936 258 925 q 233 954 254 950 q 199 960 213 958 q 163 965 185 961 q 135 988 140 969 l 133 997 q 144 1019 133 1011 q 165 1028 156 1028 q 195 1008 190 1028 q 219 977 200 988 q 281 960 238 967 q 342 940 324 953 q 416 895 394 903 q 482 888 438 888 q 519 893 494 888 q 554 899 544 899 q 585 892 574 899 q 596 865 596 885 l 594 854 q 556 829 588 838 q 519 818 524 821 q 446 781 468 797 q 424 749 424 764 q 450 726 424 726 q 549 778 494 761 q 664 796 603 796 m 649 729 l 649 722 q 624 674 649 701 q 596 635 600 647 l 594 625 q 601 606 594 615 q 614 588 607 596 l 617 572 q 597 531 617 557 q 576 489 576 506 q 587 466 576 476 q 597 436 597 456 q 589 411 597 428 q 581 379 581 394 q 592 347 581 357 q 617 338 604 338 q 606 374 606 357 q 617 408 606 390 q 639 443 628 426 l 643 458 q 633 483 643 471 q 624 507 624 496 q 636 542 624 517 q 649 569 649 560 q 641 596 649 576 q 633 624 633 615 q 644 651 633 632 q 652 667 649 658 q 656 694 656 676 q 649 729 656 711 m 486 472 q 507 419 488 460 q 515 389 515 401 l 513 374 q 526 413 526 388 l 519 472 q 531 500 519 485 q 556 546 556 535 q 549 567 556 553 l 547 546 q 515 512 544 528 q 486 472 486 496 m 689 415 l 696 414 q 713 426 707 414 q 719 454 719 439 q 690 515 719 493 q 703 494 701 504 q 706 476 706 483 q 702 448 706 460 q 689 415 699 436 m 504 324 q 471 311 485 324 q 457 279 457 299 q 471 246 457 260 q 504 232 485 232 q 538 244 524 232 q 551 279 551 257 q 538 310 551 296 q 504 324 524 324 m 696 317 q 664 304 678 317 q 650 272 650 292 q 663 238 650 251 q 696 225 676 225 q 730 238 717 225 q 743 272 743 251 q 729 304 743 292 q 696 317 715 317 m 325 742 q 340 721 325 721 q 352 727 349 721 q 356 750 356 733 q 342 767 356 767 q 325 742 325 767 m 960 739 q 939 753 960 753 q 919 738 919 753 q 939 725 919 725 q 960 739 960 725 m 458 690 q 403 664 438 674 l 401 657 q 417 647 401 647 q 453 660 442 647 q 464 683 464 672 l 458 690 m 824 644 q 847 656 839 644 q 856 686 856 667 q 846 706 856 699 q 838 682 844 693 q 819 661 831 671 q 815 653 817 656 q 814 650 814 651 l 824 644 m 500 285 q 519 265 519 285 q 500 243 519 243 q 476 265 476 243 q 483 279 476 274 q 500 285 490 285 m 700 279 q 722 258 722 279 q 700 236 722 236 q 678 258 678 236 q 700 279 678 279 z "},"Y":{"ha":983,"x_min":13,"x_max":967,"o":"m 649 381 l 649 194 q 675 183 667 194 q 683 150 683 171 q 657 58 683 125 q 643 0 643 24 l 511 0 q 475 17 493 8 l 467 15 q 450 7 464 14 q 424 0 436 0 l 317 0 l 318 13 q 301 74 318 33 q 285 133 285 114 q 297 170 285 156 q 322 185 308 185 l 322 386 q 303 425 322 407 q 268 453 278 443 q 182 632 182 536 q 169 669 182 650 q 136 688 157 688 q 103 678 121 688 q 79 649 86 668 q 58 629 72 629 q 42 645 49 629 q 35 678 35 661 q 40 702 35 690 q 67 750 46 714 q 83 797 83 779 l 79 818 l 13 936 l 118 936 q 110 1001 110 968 q 162 1151 110 1082 q 289 1221 214 1221 q 219 1167 243 1196 q 176 1040 176 1115 q 183 981 176 1006 q 204 936 190 957 l 371 936 l 476 732 l 578 936 l 771 936 q 800 1044 800 985 q 774 1146 800 1101 q 697 1219 747 1190 q 797 1164 746 1214 q 864 1008 864 1099 q 861 973 864 989 q 854 936 858 957 l 967 936 l 894 814 q 894 790 892 807 q 924 732 908 763 q 940 679 940 701 q 931 646 940 661 q 915 631 922 631 l 911 632 q 878 676 894 654 q 839 692 863 692 q 804 672 814 692 q 783 596 794 651 q 736 493 771 540 q 658 414 707 454 q 649 381 649 406 m 292 601 q 324 540 292 575 q 388 506 356 506 q 378 561 392 536 l 357 556 q 335 565 346 556 q 325 589 325 574 q 332 610 325 600 q 301 621 307 621 q 292 601 292 621 m 336 118 q 351 82 336 103 q 383 57 365 61 q 390 68 386 58 q 374 106 390 83 q 344 129 358 129 q 336 118 336 129 m 576 71 q 588 58 576 58 q 600 67 596 64 q 631 124 631 90 l 625 128 q 594 108 611 128 q 576 71 576 88 m 204 936 l 118 936 q 194 832 138 879 q 281 789 247 789 q 314 824 314 789 q 306 843 314 835 q 256 878 278 860 q 204 936 228 901 m 644 615 q 651 594 651 606 q 642 572 651 582 q 618 563 632 563 q 599 569 606 563 q 588 529 588 551 l 592 508 q 658 549 626 513 q 689 611 689 586 q 675 626 689 626 l 644 615 m 854 936 l 771 936 q 683 857 733 881 q 661 826 661 846 q 694 785 661 785 q 775 828 722 785 q 854 936 838 879 z "},"Z":{"ha":1032,"x_min":85,"x_max":940,"o":"m 940 0 l 642 0 q 614 -4 628 0 q 593 -10 600 -8 q 551 -21 563 -21 q 528 -4 528 -21 q 558 29 531 14 q 653 85 647 79 q 725 194 708 133 q 749 226 732 213 q 767 247 767 239 q 599 194 661 233 q 419 0 497 131 l 228 0 l 192 -11 q 169 -18 183 -14 q 143 -22 154 -22 q 128 -16 136 -22 q 121 -1 121 -10 q 130 31 126 15 q 133 58 133 47 q 103 119 133 94 q 89 156 89 133 q 139 246 89 207 q 231 286 181 278 q 304 432 264 376 q 432 539 358 507 q 450 576 450 546 q 435 608 450 599 q 393 622 421 617 q 319 642 343 633 q 269 665 294 651 q 242 644 257 664 q 213 625 226 625 q 185 638 197 625 q 146 672 151 671 q 96 703 107 693 q 85 731 85 714 q 113 778 85 761 q 160 788 136 782 q 151 810 154 797 q 147 836 147 824 q 119 849 128 843 q 92 897 92 868 q 112 939 92 925 q 154 953 132 953 l 165 951 q 215 929 186 949 q 267 899 251 904 q 323 922 300 914 q 374 931 346 931 l 407 928 q 424 964 424 928 q 424 976 424 969 q 450 989 428 989 q 470 985 460 989 q 497 974 481 982 q 522 964 514 967 q 542 961 529 961 q 576 966 557 961 q 604 978 596 971 q 666 1047 639 1019 q 711 1074 693 1074 q 721 1068 719 1074 q 724 1057 722 1063 q 718 1024 724 1036 q 697 989 713 1013 q 700 983 699 986 q 708 979 701 979 q 728 988 719 979 q 763 1021 751 1011 q 808 1046 785 1040 q 849 1060 831 1051 q 886 1093 872 1072 q 892 1088 890 1093 q 894 1075 893 1082 q 888 1051 894 1063 q 878 1032 882 1039 q 842 983 860 1008 q 824 932 824 957 q 839 936 832 932 q 853 944 846 940 l 857 928 q 844 892 857 911 l 839 878 q 853 875 843 875 q 876 875 863 875 q 849 818 883 856 q 887 794 874 807 q 900 769 900 781 q 871 763 883 768 q 844 746 858 758 q 864 708 857 729 q 876 660 871 688 q 858 658 865 658 q 831 663 843 658 l 835 640 l 839 590 q 835 554 839 565 q 815 558 824 554 q 799 564 806 561 q 804 519 804 539 q 790 460 804 478 q 769 471 782 461 q 744 483 756 481 q 754 445 751 464 q 757 414 757 426 q 753 383 757 392 q 727 385 750 383 q 700 386 704 386 l 703 358 q 701 331 703 344 q 686 296 699 318 l 940 296 l 940 0 m 557 758 q 600 856 600 794 q 583 910 600 888 q 539 928 567 932 q 556 886 556 908 q 548 860 556 871 q 529 850 540 850 q 494 866 508 850 q 479 918 479 882 q 449 908 467 910 q 432 893 432 906 l 433 885 q 467 849 442 861 q 518 828 493 838 q 540 812 536 818 q 543 790 543 806 q 513 717 543 754 q 453 664 494 694 l 450 657 q 464 650 457 650 q 517 668 490 650 q 590 750 553 693 l 578 749 q 557 758 561 749 m 767 757 q 758 785 767 772 q 742 807 749 797 q 762 839 754 818 q 769 878 769 860 q 742 911 769 911 q 718 890 718 911 l 724 828 q 714 774 724 797 q 640 692 696 729 q 546 632 593 661 q 527 619 532 624 q 519 604 522 614 l 522 600 l 529 603 q 644 678 590 657 q 683 689 656 682 q 719 699 710 696 q 754 721 742 707 q 767 757 767 735 m 356 671 q 371 654 356 654 q 394 664 385 654 l 464 733 q 474 753 472 742 q 476 768 476 765 q 433 832 476 794 q 382 892 389 869 q 349 881 376 888 q 318 854 322 874 q 356 835 329 844 q 417 817 383 826 q 453 792 440 807 q 461 767 461 781 l 457 746 q 431 726 450 733 q 389 711 413 719 q 356 671 356 693 m 674 890 q 665 934 674 915 q 638 953 657 953 q 618 946 628 953 q 608 932 608 939 l 611 928 q 644 906 628 924 q 671 869 661 888 l 674 890 m 226 869 q 212 902 226 889 q 181 915 197 915 q 167 904 167 915 q 174 894 171 896 q 201 884 194 888 q 219 868 207 881 l 224 864 l 226 869 m 508 881 q 528 867 518 867 q 542 881 542 867 q 535 894 542 888 q 523 883 529 885 q 508 881 517 882 m 174 708 l 197 729 q 226 745 201 732 q 253 768 250 758 l 254 776 q 251 788 254 783 q 242 797 247 792 q 236 792 238 797 q 233 779 235 786 q 218 760 233 768 q 186 740 192 746 q 171 719 171 731 l 174 708 m 728 626 q 704 619 718 621 q 606 599 656 610 q 519 565 556 588 q 480 527 493 549 q 467 496 467 506 l 469 490 l 481 496 q 517 521 508 515 q 563 543 539 536 q 633 558 579 550 q 692 569 686 567 q 728 626 728 581 m 699 483 q 696 492 697 489 q 668 500 689 500 q 583 478 626 500 q 506 431 574 472 q 465 409 489 418 q 424 400 442 400 q 385 410 403 400 q 365 439 367 419 q 343 398 353 421 q 333 354 333 375 q 346 323 333 331 q 382 315 358 315 q 465 349 422 315 q 546 417 507 383 q 609 456 572 442 q 690 476 646 469 q 696 481 694 479 q 699 483 697 482 m 451 201 q 530 247 469 219 q 610 310 590 274 q 622 342 615 321 q 629 376 629 363 l 610 364 q 519 325 588 349 q 422 272 451 301 q 379 232 400 256 q 314 158 318 163 l 311 172 l 315 214 q 307 254 315 233 q 281 321 293 288 q 258 258 258 294 q 265 208 258 236 q 282 122 282 140 l 279 97 q 372 133 325 96 q 451 201 411 167 m 375 783 q 319 801 344 790 l 311 804 q 301 794 301 804 l 303 788 q 315 768 311 776 q 318 749 318 760 l 314 732 l 304 717 q 313 708 304 707 q 335 726 318 715 q 360 742 351 738 q 377 753 368 747 q 386 769 386 758 q 375 783 386 781 z "},"[":{"ha":414,"x_min":83,"x_max":367,"o":"m 367 -86 l 83 -86 l 83 1021 l 367 1021 l 367 904 l 235 904 l 235 31 l 367 31 l 367 -86 z "},"\\":{"ha":453,"x_min":6,"x_max":442,"o":"m 442 -56 l 301 -56 l 6 951 l 146 951 l 442 -56 z "},"]":{"ha":414,"x_min":47,"x_max":331,"o":"m 47 1021 l 331 1021 l 331 -86 l 47 -86 l 47 31 l 179 31 l 179 904 l 47 904 l 47 1021 z "},"^":{"ha":806,"x_min":49,"x_max":758,"o":"m 758 246 l 607 246 l 404 740 l 197 246 l 49 246 l 339 903 l 468 903 l 758 246 z "},"_":{"ha":694,"x_min":0,"x_max":694,"o":"m 0 -104 l 694 -104 l 694 -174 l 0 -174 l 0 -104 z "},"`":{"ha":417,"x_min":-18,"x_max":322,"o":"m -18 1222 l 201 1222 l 322 1049 l 156 1049 l -18 1222 z "},"a":{"ha":947,"x_min":65,"x_max":896,"o":"m 354 0 l 65 0 l 201 426 q 164 446 179 431 q 144 490 144 465 q 160 542 144 514 q 194 626 194 607 q 190 665 194 650 q 157 682 168 675 q 135 718 135 696 q 181 778 135 749 q 221 807 214 800 q 263 865 246 833 q 279 915 279 896 q 292 985 279 963 q 361 1018 310 1018 q 428 999 396 1018 q 486 947 460 979 q 504 935 493 939 q 528 932 515 932 l 582 936 q 633 911 614 936 q 649 880 642 901 q 661 836 657 858 q 731 576 693 686 q 856 296 781 429 q 872 255 865 278 q 879 213 879 232 q 874 175 879 193 q 856 143 868 157 l 896 0 l 608 0 l 581 133 l 578 136 q 515 131 551 131 q 394 157 446 131 l 354 0 m 281 636 q 250 643 260 640 q 224 653 240 646 q 218 643 218 646 q 229 624 218 632 q 253 615 240 615 q 272 622 263 615 q 281 636 281 628 m 444 436 q 303 401 383 401 q 343 278 308 328 q 493 201 394 201 q 583 224 547 201 q 486 303 524 253 q 444 421 444 358 l 444 436 m 411 633 l 347 629 q 376 606 350 606 q 403 616 394 606 q 411 633 413 626 z "},"b":{"ha":981,"x_min":124,"x_max":913,"o":"m 124 0 l 124 936 l 247 936 q 272 981 251 961 q 324 1001 292 1001 q 375 983 354 1001 q 400 936 396 965 l 613 936 q 644 975 625 960 q 686 990 663 990 q 740 969 717 990 q 764 911 764 949 l 761 890 q 857 697 857 817 q 815 561 857 621 q 746 494 789 522 q 867 403 821 467 q 913 253 913 339 q 843 74 913 147 q 682 0 774 0 l 124 0 m 588 617 q 560 686 588 658 q 489 714 532 714 q 418 686 446 714 q 390 617 390 658 q 419 546 390 575 q 489 517 449 517 q 561 544 535 517 q 588 617 588 572 m 619 297 q 583 388 619 353 q 499 424 546 424 q 410 389 447 424 q 372 297 372 354 q 409 212 372 250 q 497 174 446 174 q 583 208 547 174 q 619 297 619 243 m 372 793 q 341 780 354 793 q 328 747 328 767 q 340 715 328 728 q 372 703 353 703 q 417 747 417 703 q 404 779 417 765 q 372 793 392 793 m 607 793 q 575 781 589 793 q 561 749 561 768 q 574 716 561 729 q 607 703 588 703 q 639 715 626 703 q 651 749 651 728 q 607 793 651 793 m 374 765 q 390 747 390 765 q 374 731 390 731 q 357 747 357 731 q 374 765 357 765 m 492 646 q 529 631 511 646 q 547 589 547 617 q 532 549 547 565 q 492 532 517 532 q 451 549 468 532 q 435 589 435 565 q 451 629 435 613 q 492 646 468 646 m 607 765 q 624 747 624 765 q 607 731 624 731 q 589 747 589 731 q 607 765 589 765 z "},"c":{"ha":1010,"x_min":21,"x_max":1010,"o":"m 226 44 q 192 160 192 92 q 201 225 192 196 q 186 282 193 253 q 167 440 167 360 q 175 543 167 493 q 133 508 161 543 q 85 403 97 463 l 78 413 q 64 424 67 422 q 50 451 50 436 l 51 463 q 35 494 35 469 l 42 511 q 29 535 32 519 q 36 554 29 543 q 21 579 21 569 q 82 671 21 611 q 264 749 163 749 q 438 897 340 844 q 653 950 536 950 q 796 918 728 950 q 899 853 840 897 q 904 867 904 858 q 885 903 904 879 q 822 996 832 965 q 810 1058 810 1024 q 834 1138 810 1106 q 901 1169 858 1169 q 969 1125 953 1169 l 990 1129 q 1010 1117 1010 1129 q 1001 1106 1004 1107 q 990 1106 999 1106 q 978 1103 982 1106 l 979 1086 q 965 1044 979 1063 q 921 1018 951 1025 q 930 993 922 1008 q 959 952 938 978 q 985 918 981 926 q 996 874 996 899 q 947 796 996 821 q 926 736 954 761 q 896 726 914 726 q 867 725 878 725 q 794 698 822 725 q 765 633 765 671 q 811 586 765 586 q 839 597 825 586 q 853 625 853 608 l 850 649 q 860 661 850 661 q 872 651 868 661 q 875 626 875 640 q 853 581 875 599 q 807 564 832 564 q 761 583 781 564 q 742 629 742 603 q 774 704 742 669 q 719 657 747 704 q 690 565 690 610 q 707 504 690 525 q 756 483 724 483 q 785 494 774 483 q 797 525 797 504 l 793 551 q 796 557 793 556 q 801 560 799 558 q 819 526 819 560 q 803 482 819 501 q 756 463 786 463 q 694 490 718 463 q 671 565 671 518 q 686 642 671 608 q 708 682 693 657 q 621 626 669 672 q 551 486 551 563 q 553 456 551 467 q 564 422 556 444 q 490 403 535 407 q 494 362 490 379 q 511 311 499 344 q 560 313 543 311 q 596 325 578 315 q 600 319 600 322 l 600 297 l 596 244 q 664 236 632 236 q 781 263 726 236 q 878 338 836 289 l 881 340 l 882 301 l 882 -24 q 829 -17 858 -26 q 729 32 800 -8 q 543 -31 654 -31 q 367 22 446 -31 q 272 111 324 51 q 246 81 258 100 q 226 44 244 78 m 951 1118 q 900 1149 942 1149 q 847 1122 867 1149 q 828 1057 828 1096 q 894 926 828 992 q 921 893 914 906 q 928 864 928 881 q 921 835 928 849 q 933 824 928 831 q 939 815 935 821 q 961 833 949 815 q 974 869 974 851 q 967 899 974 885 q 928 956 960 914 q 897 1017 901 990 q 865 1024 881 1018 q 850 1040 850 1029 q 865 1053 850 1051 q 897 1043 881 1047 q 919 1099 897 1078 q 951 1118 933 1113 m 919 1043 q 949 1058 938 1049 q 960 1086 960 1068 l 958 1097 q 928 1077 938 1092 q 919 1043 919 1063 m 693 806 l 688 875 q 682 894 688 894 q 668 883 672 888 q 654 847 654 868 q 667 816 654 829 q 688 803 681 803 l 693 806 m 751 849 q 740 883 751 872 q 718 894 728 894 q 711 881 711 894 l 717 810 l 722 807 q 743 819 735 807 q 751 849 751 832 m 94 568 l 90 575 q 78 564 86 575 q 67 547 69 553 l 71 539 q 82 551 79 547 q 94 568 94 565 m 104 592 l 108 586 q 128 599 114 586 q 144 613 143 613 l 147 618 l 142 624 q 120 610 136 624 q 104 592 104 597 m 240 664 l 232 671 q 185 656 214 671 q 157 631 157 640 l 161 626 l 167 628 q 193 645 182 640 q 236 660 204 650 l 240 664 m 865 269 q 857 278 860 278 q 841 269 851 278 q 822 256 831 261 l 790 236 l 788 228 q 794 219 792 219 q 826 235 801 219 q 861 261 850 250 q 863 265 863 263 q 865 269 864 268 m 776 218 l 768 225 l 743 217 l 715 210 l 710 201 l 715 196 q 746 200 736 199 q 776 218 776 207 m 696 143 q 718 153 718 143 q 711 161 718 156 q 708 163 710 161 l 688 160 l 682 153 q 696 143 682 143 m 742 150 q 761 155 749 150 q 774 168 774 160 l 767 175 q 751 169 758 172 q 738 167 743 167 l 732 158 q 742 150 738 150 m 800 171 q 834 186 808 171 q 860 211 860 201 q 856 218 860 215 q 851 219 853 218 q 838 212 844 215 q 824 203 832 208 q 793 179 793 185 q 800 171 797 171 m 692 203 q 682 208 690 206 q 667 199 667 208 q 676 192 671 192 q 692 203 692 192 m 725 107 q 750 109 738 107 q 763 119 763 111 q 751 128 757 128 l 714 124 q 708 117 711 124 q 725 107 708 107 m 824 89 q 847 95 832 89 q 863 111 863 101 l 856 118 q 836 113 842 114 q 817 94 817 106 l 824 89 m 765 75 q 790 80 781 75 q 800 90 800 85 l 794 96 l 760 89 l 754 82 q 765 75 760 75 m 861 57 q 854 67 857 67 l 818 56 l 814 47 q 824 40 819 40 q 847 46 833 42 q 861 57 861 50 m 844 26 q 832 14 832 26 q 844 3 832 3 q 856 14 856 3 q 844 26 856 26 m 92 633 l 89 639 q 69 622 82 639 q 51 592 56 604 l 56 588 q 74 607 68 600 q 92 633 92 628 m 271 721 l 267 726 q 210 717 232 726 q 193 706 203 714 q 201 700 199 700 q 268 715 232 715 l 271 721 m 150 578 l 158 571 l 207 601 q 212 605 211 603 q 214 608 213 607 l 206 617 q 167 596 196 617 q 150 578 150 583 m 296 540 q 290 558 296 551 q 278 564 283 564 q 260 555 269 564 q 251 532 251 546 q 271 506 251 506 q 288 516 281 506 q 296 540 296 526 m 121 543 l 115 547 q 90 524 108 547 q 72 493 72 501 l 78 486 l 118 536 l 121 543 m 279 397 q 257 421 279 421 q 235 393 235 421 q 256 371 235 371 q 272 379 265 371 q 279 397 279 388 m 860 158 q 856 165 860 163 q 851 167 853 165 q 827 156 846 167 q 808 138 808 144 q 819 128 808 128 q 849 143 829 128 q 860 158 860 151 m 114 653 l 118 654 q 146 674 136 668 q 172 689 156 681 l 175 694 l 169 700 q 126 678 157 700 q 110 658 110 665 l 114 653 m 613 688 q 544 720 567 692 q 521 790 521 749 q 504 746 504 774 q 527 693 504 711 q 575 675 550 675 q 613 688 596 675 m 289 282 q 272 264 272 282 q 289 246 272 246 q 306 264 306 246 q 289 282 306 282 m 344 144 q 332 132 332 144 q 344 118 332 118 q 358 132 358 118 q 344 144 358 144 z "},"d":{"ha":1119,"x_min":121,"x_max":1078,"o":"m 121 818 q 254 643 157 714 q 454 572 351 572 q 507 581 483 572 l 508 576 q 457 533 485 551 q 382 500 442 524 q 325 454 350 483 q 294 375 294 417 q 322 310 294 328 q 358 301 342 297 q 376 381 358 343 q 424 454 393 419 q 427 451 426 454 q 429 447 428 449 q 466 363 436 399 q 535 328 496 328 q 613 377 581 328 q 644 485 644 426 q 592 608 644 558 q 464 658 539 658 l 415 657 q 276 700 331 657 q 224 775 235 733 q 273 816 240 801 q 347 839 306 831 q 447 923 385 896 q 579 950 508 950 q 870 842 736 950 q 1004 593 1004 733 q 1056 486 1035 546 q 1078 374 1078 426 q 1060 286 1078 324 q 1038 333 1054 311 q 997 360 1021 354 q 871 101 997 218 q 556 -21 738 -21 q 400 17 465 -21 q 374 8 382 10 q 328 0 346 0 l 196 4 q 155 -12 174 4 q 128 -51 136 -28 l 122 -53 l 121 818 m 615 174 q 704 229 658 174 q 763 403 763 300 l 761 439 q 724 299 761 365 q 607 196 681 221 q 601 190 603 194 q 600 185 600 186 q 615 174 600 174 m 554 215 q 647 268 597 215 q 717 463 717 342 l 714 503 q 685 370 714 432 q 599 271 657 308 q 572 257 588 264 q 546 246 556 250 q 535 238 536 242 q 533 232 533 233 q 554 215 533 215 m 678 167 q 690 154 678 154 q 779 235 736 154 q 811 372 811 296 l 807 422 q 781 292 807 350 q 682 178 749 221 l 678 167 m 226 818 q 185 901 200 860 q 171 967 171 942 q 185 997 171 985 q 217 1010 199 1010 q 256 978 246 1010 q 261 943 261 960 q 226 818 261 881 m 471 860 q 456 854 465 860 q 447 849 453 853 q 457 829 450 835 q 474 824 464 824 q 493 833 489 824 q 471 860 493 860 m 763 786 q 739 818 763 818 l 728 814 l 732 763 l 731 728 q 751 747 740 729 q 763 786 763 765 m 318 897 q 310 927 313 910 q 307 961 307 944 q 324 1042 307 1011 q 368 1074 340 1074 q 394 1063 383 1074 q 406 1032 406 1051 q 374 958 406 1006 q 318 897 342 911 z "},"e":{"ha":864,"x_min":76,"x_max":779,"o":"m 753 1000 l 757 857 q 682 739 757 783 q 567 697 633 710 q 515 663 535 692 q 494 606 494 633 q 503 572 494 581 q 583 580 542 578 q 682 582 624 582 q 724 581 706 582 q 753 581 742 581 l 753 328 q 532 300 617 328 q 467 264 467 279 l 468 258 q 532 245 474 250 q 621 240 590 240 q 699 244 671 240 q 763 258 726 247 l 768 260 q 777 254 775 260 q 779 242 779 249 q 774 217 779 226 q 754 190 769 208 l 754 167 q 746 172 750 167 q 740 176 742 176 q 729 157 729 172 q 726 144 728 147 q 715 158 719 154 l 694 147 q 693 128 694 136 l 681 140 l 665 135 l 667 122 l 663 117 q 647 129 654 122 q 625 117 636 122 q 633 107 631 110 q 661 96 646 96 q 696 104 672 96 q 735 113 719 113 q 758 108 749 113 q 767 96 767 104 l 763 92 q 715 58 746 85 q 659 23 683 32 q 606 14 635 14 q 517 -20 572 -8 q 403 -32 461 -32 q 263 -12 329 -32 q 176 -22 218 -12 q 100 -50 135 -31 q 92 -49 94 -50 q 89 -46 90 -47 q 101 -3 89 -24 q 151 53 110 11 q 76 232 76 128 q 108 349 76 292 q 196 454 139 406 q 123 543 147 489 q 99 660 99 597 q 226 886 99 814 q 440 938 318 938 q 528 931 478 938 q 597 924 578 924 q 688 942 647 924 q 753 1000 728 960 m 676 426 l 660 419 l 658 379 l 674 382 q 676 405 675 390 q 676 426 678 419 m 615 403 l 614 372 l 632 376 l 632 408 l 615 403 m 721 456 l 707 444 q 705 414 706 431 q 704 389 704 397 q 721 397 713 393 l 724 426 l 721 456 m 708 844 l 710 815 q 726 843 719 828 q 736 875 733 858 l 708 844 m 669 813 l 653 804 l 653 765 l 672 778 l 672 794 q 669 813 672 808 m 625 789 l 610 782 l 606 743 l 622 749 l 625 789 m 158 617 l 169 593 q 174 647 169 624 q 188 701 178 671 l 182 725 q 165 671 171 699 q 158 617 158 643 m 215 651 l 200 671 q 193 628 196 654 q 190 560 190 603 l 203 549 q 205 604 203 588 q 215 651 207 621 m 253 613 l 235 629 q 226 553 226 592 l 228 518 q 246 504 236 511 q 247 556 246 531 q 253 613 247 582 m 275 506 l 296 517 l 300 583 l 279 593 q 275 554 276 568 q 274 528 274 540 q 275 506 275 513 m 350 538 l 350 567 l 326 574 q 324 529 322 550 l 350 538 m 565 360 l 583 365 q 585 396 586 383 l 565 388 l 565 360 m 143 297 l 139 347 q 111 240 111 300 q 117 193 111 214 q 126 251 121 229 q 143 297 132 274 m 175 219 q 165 238 171 225 q 154 260 158 250 q 140 169 140 219 q 144 126 140 136 q 169 96 147 115 l 167 144 q 175 219 167 183 m 260 40 l 283 31 q 276 64 278 53 q 269 121 269 97 l 242 142 q 260 40 242 86 m 313 24 l 342 19 q 328 86 332 49 l 294 103 q 301 65 296 85 q 313 24 306 46 m 371 18 l 400 18 l 394 58 l 354 72 q 362 45 356 63 q 371 18 368 28 m 501 31 l 422 49 q 431 19 425 31 q 460 22 450 19 q 501 31 471 24 m 143 688 q 159 740 153 724 q 182 778 165 756 q 188 801 185 792 q 197 826 190 810 q 142 706 142 781 q 143 688 143 694 m 574 767 q 513 713 533 744 l 533 722 q 568 735 550 728 l 574 767 m 379 560 l 379 549 l 411 558 l 379 560 m 529 346 l 529 367 q 501 347 515 361 q 476 321 488 333 l 529 346 m 603 182 q 571 207 603 207 q 522 174 522 207 q 556 149 522 149 q 589 158 575 149 q 603 182 603 167 m 217 167 l 194 192 l 190 146 q 199 75 190 108 q 213 63 203 68 q 231 54 222 57 q 219 105 222 78 q 217 167 217 132 m 547 182 q 563 194 547 194 q 576 181 576 194 q 572 172 576 175 q 563 168 568 169 q 547 182 547 168 z "},"f":{"ha":797,"x_min":119,"x_max":729,"o":"m 119 936 l 729 936 l 729 790 q 711 793 721 793 q 697 793 701 793 q 598 772 642 793 q 536 717 554 750 q 483 694 517 703 q 421 676 450 685 q 366 647 389 669 q 339 593 343 624 q 326 507 331 536 q 313 389 313 410 q 314 380 313 386 q 318 367 315 374 l 374 567 q 437 636 386 613 q 540 660 488 660 l 549 653 l 544 647 q 447 624 497 647 q 385 560 397 601 l 335 379 q 350 386 343 376 l 504 556 q 540 578 517 575 q 594 581 563 581 l 729 579 l 729 449 q 669 383 729 404 q 568 364 642 374 q 488 321 522 358 q 447 215 447 278 q 458 161 447 188 q 489 111 468 135 q 524 0 524 67 l 119 0 l 119 936 m 658 713 l 675 701 l 676 696 q 667 688 671 688 q 640 672 651 678 q 621 665 629 665 q 588 699 588 665 q 594 722 588 710 q 617 735 600 735 q 658 713 642 735 m 628 708 q 615 717 625 717 q 608 713 611 717 q 606 707 606 708 q 617 696 606 696 q 628 708 628 703 z "},"g":{"ha":1082,"x_min":67,"x_max":989,"o":"m 982 404 l 982 168 q 736 1 883 53 q 540 -33 636 -33 q 185 128 317 -33 q 67 469 67 271 q 222 828 67 692 q 543 947 360 947 q 821 861 707 947 q 989 617 935 775 q 882 658 943 642 q 764 674 821 674 q 662 660 707 674 q 578 614 617 647 q 560 598 568 604 q 546 592 551 592 q 525 615 525 592 q 551 661 525 629 q 565 692 565 678 l 565 764 l 561 768 l 556 764 q 518 711 540 744 q 488 654 488 664 q 495 627 488 644 q 504 606 503 610 q 486 592 504 592 q 469 604 479 592 q 419 658 451 628 q 365 704 393 682 l 361 710 l 364 722 q 354 744 364 735 q 332 754 344 754 q 310 747 321 754 q 299 721 299 739 q 332 688 299 688 q 350 694 340 688 q 411 644 381 672 q 464 585 442 615 q 453 574 464 579 q 437 565 443 568 q 422 549 431 561 q 413 521 413 536 q 425 496 413 503 q 401 471 407 488 q 394 429 394 454 q 453 314 394 361 q 446 281 446 296 q 482 199 446 238 q 435 160 450 176 q 401 108 413 138 l 408 103 q 417 114 415 111 q 453 158 429 133 q 490 189 482 189 q 514 179 506 179 l 525 178 q 546 184 536 178 q 565 201 556 190 q 574 196 572 201 q 576 176 576 190 q 599 128 576 156 q 653 88 622 101 l 656 97 q 643 151 656 121 q 585 206 624 197 l 582 213 q 637 227 593 219 q 699 242 681 235 q 694 256 697 250 l 674 249 q 626 238 663 244 q 571 221 589 232 q 560 244 563 225 q 557 264 557 263 q 589 346 557 303 q 624 386 597 358 q 637 408 631 394 q 643 436 643 421 q 637 469 643 457 q 610 499 631 482 q 590 524 590 515 q 628 547 590 540 q 686 553 667 553 q 867 499 775 553 q 982 404 935 458 m 496 426 q 488 406 496 417 q 479 394 486 404 q 472 374 472 383 l 475 364 l 472 361 q 450 375 461 361 q 439 404 439 389 q 451 435 439 419 q 464 458 464 450 l 461 471 q 485 455 475 471 q 496 426 496 439 z "},"h":{"ha":932,"x_min":19,"x_max":935,"o":"m 718 772 q 702 914 718 850 q 661 1015 686 978 q 633 933 643 974 q 622 850 622 892 q 623 818 622 833 q 629 786 624 803 q 694 608 661 697 q 718 772 718 688 m 218 753 q 225 674 218 714 q 244 597 232 635 q 299 751 264 671 q 310 797 308 772 q 311 835 311 822 q 294 935 311 883 q 269 994 283 968 q 218 753 218 881 m 560 440 q 565 419 560 429 l 576 429 l 589 426 q 651 456 622 426 q 679 524 679 486 q 674 547 679 539 q 661 556 668 556 q 599 521 632 556 q 560 440 560 481 m 253 508 q 288 442 253 471 q 343 417 317 417 l 356 418 q 368 411 364 418 l 375 410 l 379 411 l 381 428 q 368 471 381 451 q 325 521 353 500 q 267 542 297 542 q 253 508 253 531 m 661 536 l 663 525 q 640 472 663 499 q 579 440 614 440 l 576 453 q 606 510 576 485 q 661 536 636 536 m 360 446 q 339 436 360 436 q 286 465 308 436 q 271 521 264 493 q 332 496 304 521 q 360 446 360 471 m 807 269 l 807 288 q 621 325 724 325 l 614 313 q 639 314 622 314 q 807 269 729 314 m 807 0 l 542 0 l 542 194 q 508 183 526 186 q 465 179 490 179 q 426 185 450 179 q 388 197 403 190 l 388 0 l 125 0 l 125 210 q 47 135 82 181 l 38 146 q 76 191 49 167 q 125 228 103 215 l 125 265 q 29 190 72 240 l 19 203 q 67 248 42 229 q 125 281 93 267 l 125 311 q 28 256 78 294 l 19 265 q 65 299 39 285 q 125 328 92 314 l 125 731 q 170 931 136 842 q 272 1093 204 1021 l 282 1096 q 300 1079 300 1096 l 297 1061 l 301 1049 q 358 901 335 986 q 388 736 388 794 l 388 539 l 543 539 l 543 744 q 574 908 543 822 q 643 1060 594 965 q 638 1082 638 1075 q 642 1090 639 1086 q 653 1094 646 1094 l 661 1093 q 767 935 719 1056 q 807 715 807 833 l 807 335 q 874 301 842 322 q 935 251 899 285 l 926 240 q 807 319 876 292 l 807 288 q 871 246 849 264 q 925 190 903 221 l 915 182 q 869 231 897 208 q 807 269 842 253 l 807 240 q 858 200 826 229 q 903 151 890 171 l 893 142 q 852 185 874 164 q 807 224 831 206 l 807 0 m 406 331 q 370 364 390 350 q 332 378 350 378 l 317 376 q 308 343 308 368 l 354 338 l 351 322 l 310 329 l 317 311 l 346 307 l 346 296 l 324 299 l 332 288 l 363 288 l 360 274 l 343 274 q 376 247 360 257 q 413 238 393 238 l 431 240 l 435 261 q 406 331 435 294 m 608 385 q 535 345 572 385 q 499 268 499 306 q 504 246 499 256 q 545 251 524 243 q 596 289 567 260 l 572 288 l 572 297 l 604 299 l 614 313 l 590 311 l 592 322 l 621 325 l 625 342 l 594 335 l 594 347 l 626 354 q 608 385 624 385 m 807 319 l 807 335 q 668 357 750 357 q 626 354 639 357 l 625 342 q 676 346 650 346 q 807 319 744 346 m 807 224 l 807 240 q 711 283 767 267 q 604 299 656 299 l 596 289 q 705 275 660 289 q 807 224 750 261 m 125 328 l 125 311 q 249 333 182 333 q 310 329 281 333 l 308 343 q 272 345 288 344 q 247 346 257 346 q 125 328 183 346 m 125 281 l 125 265 q 218 292 168 285 q 324 299 268 299 l 317 311 q 213 305 261 311 q 125 281 165 299 m 125 228 l 125 210 q 228 257 174 240 q 343 274 282 274 l 332 288 q 125 228 222 288 z "},"i":{"ha":610,"x_min":72,"x_max":525,"o":"m 357 976 l 360 972 q 343 935 344 950 l 394 956 q 447 964 419 964 q 456 963 453 964 q 464 960 460 963 q 438 946 451 953 q 415 931 424 939 l 454 935 q 482 933 469 935 q 494 926 494 931 l 490 922 q 466 919 476 922 q 440 907 456 915 q 484 892 465 901 q 514 865 503 883 l 510 863 l 493 864 l 468 860 q 501 829 486 847 q 521 792 515 811 q 521 783 521 789 q 521 771 521 776 q 511 776 514 775 q 494 786 497 785 l 478 790 q 501 763 493 774 q 519 726 515 743 l 515 725 q 483 750 501 742 q 497 717 492 733 q 507 687 501 701 q 525 663 513 672 l 524 660 q 498 678 511 663 q 478 701 485 693 q 482 681 478 692 q 490 661 486 671 l 517 615 l 514 613 q 481 631 499 631 q 499 599 493 614 q 506 567 506 585 l 482 582 q 511 508 496 544 l 507 506 q 493 524 503 514 q 475 539 483 533 q 489 499 475 533 q 503 463 503 464 l 493 469 q 482 475 486 476 q 493 452 486 468 q 500 411 500 436 q 498 382 500 394 q 493 356 496 369 q 485 203 488 289 q 483 85 483 118 l 483 47 q 462 10 483 22 q 404 -3 440 -3 q 355 0 390 -3 q 317 3 319 3 l 214 -6 q 140 31 164 -6 q 122 96 122 58 q 131 160 122 117 q 139 228 139 203 q 137 296 139 265 q 129 374 135 326 l 129 381 q 147 457 129 428 q 201 496 171 496 q 231 485 217 496 q 246 465 246 474 l 240 463 l 229 464 q 199 444 214 464 q 185 399 185 424 q 189 361 185 379 q 197 328 193 343 q 201 286 200 313 q 203 229 203 260 q 222 125 203 158 q 285 92 242 92 q 345 122 324 92 q 367 199 367 153 q 344 282 367 244 q 351 251 347 269 q 356 221 356 232 q 345 159 356 186 q 313 119 335 132 l 321 142 q 328 181 329 165 q 302 170 318 188 q 286 132 286 153 q 291 117 286 121 q 300 110 296 113 l 292 108 q 260 149 260 108 q 263 165 260 156 q 269 185 265 174 q 253 166 258 175 q 247 146 247 157 l 249 135 l 246 131 q 233 145 239 131 q 228 169 228 160 q 244 208 228 193 q 269 224 253 217 q 226 208 247 229 l 224 214 q 237 237 224 225 q 265 249 250 249 l 297 244 l 308 246 q 239 300 264 271 q 207 381 207 338 q 221 429 207 413 q 253 446 235 446 q 288 435 271 446 q 321 408 306 425 q 294 456 313 433 q 250 497 276 478 q 219 526 224 515 q 214 558 214 538 q 258 651 214 610 l 254 654 q 236 642 242 647 q 207 606 217 625 q 199 583 203 590 q 186 576 196 576 l 182 565 l 185 549 q 192 531 188 539 l 189 524 q 168 544 176 528 q 160 582 160 561 q 124 633 124 592 q 125 648 124 642 q 131 663 126 654 q 115 669 121 667 q 104 676 108 672 q 96 699 96 685 q 108 720 96 711 q 129 729 119 729 q 153 747 138 747 q 188 741 165 747 q 217 735 210 735 q 242 743 231 735 q 250 751 244 746 q 244 758 250 756 q 233 761 238 760 l 222 760 q 215 778 215 760 l 192 776 q 183 779 186 776 q 181 783 181 782 l 182 793 q 176 799 182 796 q 106 829 138 799 q 79 871 79 854 q 88 889 79 882 l 74 904 l 72 913 l 75 921 q 94 932 83 929 q 117 938 106 935 l 201 960 q 213 954 211 957 q 229 967 219 963 l 250 971 q 275 964 263 971 q 310 933 300 951 q 331 955 315 939 q 357 976 347 971 m 142 125 q 178 140 154 140 q 183 143 181 142 q 165 150 179 150 q 142 125 144 146 m 143 81 q 158 103 147 92 q 178 118 168 115 l 172 119 q 151 108 160 119 q 143 81 143 97 m 156 63 q 156 51 156 56 q 161 38 157 47 q 167 73 161 57 q 192 94 174 89 l 183 96 q 162 85 168 96 q 156 63 156 74 m 208 75 q 190 69 201 75 q 181 36 181 56 l 182 22 q 208 75 182 58 m 233 825 l 242 828 l 239 832 q 176 849 211 838 q 113 872 142 860 q 156 845 110 865 q 233 825 203 825 m 261 796 q 270 780 261 788 q 292 772 279 772 q 336 801 336 772 q 297 826 336 826 q 274 817 286 826 q 261 796 261 807 m 218 908 q 243 915 235 913 q 269 931 269 925 q 247 944 269 944 q 223 933 232 944 q 218 908 214 922 m 118 911 l 125 904 q 135 909 131 904 q 140 919 140 914 l 133 926 l 118 911 m 125 686 q 135 669 125 676 q 154 684 143 676 q 175 694 165 692 l 201 701 l 161 703 q 143 710 149 703 q 125 686 125 710 m 154 619 q 161 597 154 607 q 181 635 167 619 q 218 665 194 651 q 172 657 190 671 q 154 619 154 643 m 461 411 q 471 401 461 401 q 481 411 481 401 q 471 421 481 421 q 461 411 461 421 m 160 331 q 169 321 160 321 q 178 331 178 328 q 174 339 178 335 q 169 340 171 339 q 160 331 160 340 m 161 288 q 171 279 168 279 l 179 288 q 176 294 179 292 q 171 299 172 297 q 161 288 161 299 m 444 215 q 454 206 444 206 q 463 215 463 213 q 458 225 463 221 q 454 226 456 225 q 444 215 444 226 m 443 172 q 451 163 443 163 q 460 172 460 163 q 451 183 460 183 q 443 172 443 183 m 150 167 q 176 172 160 172 q 170 178 174 178 q 165 179 167 179 q 151 171 158 179 q 150 167 151 169 m 443 126 q 453 117 443 117 q 461 126 461 124 q 458 133 461 131 q 453 138 454 136 q 443 126 443 138 m 442 81 q 450 71 442 71 q 458 81 458 71 q 450 90 458 90 q 442 81 442 90 m 457 365 q 468 356 457 356 q 479 365 479 356 q 468 376 479 376 q 457 365 457 376 m 363 551 q 379 546 365 550 q 389 582 389 563 l 385 601 q 363 551 378 572 m 410 582 q 408 562 410 571 q 404 543 406 553 l 417 547 l 418 563 q 408 594 418 583 l 410 582 m 278 906 l 274 911 l 224 892 q 251 881 228 881 q 269 889 261 881 q 278 906 278 897 m 324 581 q 331 569 326 574 q 339 564 336 565 q 356 589 349 574 q 364 618 364 604 l 363 629 q 348 602 357 614 q 324 581 339 590 m 301 601 q 310 593 306 597 q 328 628 325 608 q 301 601 310 611 m 456 319 q 465 310 456 310 q 475 319 475 317 l 465 328 q 458 324 461 328 q 456 319 456 321 m 447 265 q 458 251 447 251 q 469 265 469 251 q 458 276 469 276 q 447 265 447 276 z "},"j":{"ha":853,"x_min":68,"x_max":768,"o":"m 764 961 q 758 933 758 949 q 763 899 758 922 q 768 865 768 875 q 758 826 768 842 q 717 806 744 806 q 708 800 708 803 q 721 738 708 782 q 728 697 728 713 q 726 674 728 681 q 715 632 721 653 l 731 607 q 761 481 761 551 q 701 286 761 374 q 743 125 722 206 q 731 71 743 99 q 740 43 740 51 q 715 -6 740 18 q 649 -29 690 -29 q 594 -12 614 -29 q 575 40 575 4 q 581 77 575 58 q 599 114 588 96 q 608 161 611 132 q 581 138 590 144 q 540 111 550 113 l 536 74 q 560 25 536 44 q 574 -11 574 13 q 560 -45 574 -32 q 525 -58 547 -58 q 492 -46 507 -58 q 464 -58 479 -58 q 438 -50 450 -58 q 414 -26 426 -42 q 404 -36 408 -33 q 378 -47 390 -47 q 326 -15 343 -47 q 314 -7 325 -11 l 297 -8 q 140 85 208 -8 q 68 329 68 183 q 105 490 68 426 q 193 553 142 553 q 242 534 218 553 q 265 481 265 515 q 258 451 265 468 q 228 347 228 407 q 260 238 228 279 q 332 197 292 197 q 375 208 357 197 q 411 288 411 231 q 409 317 411 301 q 403 349 407 333 q 386 410 399 365 q 374 482 374 456 q 425 614 374 558 l 428 626 q 417 653 428 636 q 404 675 406 671 q 394 733 394 700 q 403 792 394 767 q 360 824 371 813 q 339 874 339 846 q 352 910 339 899 q 388 921 365 921 q 440 906 419 921 q 462 921 449 910 q 482 935 475 932 q 563 960 518 960 q 614 949 592 960 q 660 914 636 938 q 708 940 674 918 q 764 961 742 961 m 301 167 q 289 181 301 181 q 263 159 278 181 q 249 119 249 138 q 256 93 249 103 q 269 83 263 83 l 276 88 l 275 107 q 288 146 275 126 l 301 167 m 354 136 q 351 146 353 142 q 346 150 350 150 q 327 131 338 150 q 317 90 317 111 q 344 46 317 46 q 354 54 354 51 l 344 88 q 351 119 344 94 q 354 136 354 129 m 476 724 l 474 708 q 429 676 449 700 l 435 665 q 450 685 443 678 q 475 700 463 697 q 476 688 475 692 q 482 681 478 685 q 465 665 472 674 q 453 644 457 656 q 460 640 458 642 q 463 639 461 639 q 489 675 468 658 q 496 669 490 672 q 511 681 506 678 q 550 689 528 689 q 599 675 579 689 q 617 689 604 676 q 654 672 644 683 q 668 640 664 661 q 676 646 674 642 q 660 681 671 669 q 621 697 650 692 l 626 708 q 665 697 650 708 q 694 665 681 686 l 699 676 q 668 708 686 696 q 626 719 650 719 q 624 735 626 732 q 674 726 657 735 q 704 700 692 717 l 707 713 q 635 746 679 746 q 619 744 625 744 q 594 765 614 765 q 564 736 576 765 l 567 729 q 544 711 567 711 l 539 711 q 527 723 531 714 q 521 739 524 732 q 508 747 518 746 q 483 736 494 747 q 446 729 468 736 q 418 715 424 722 q 422 704 418 706 q 449 719 431 713 q 476 724 467 726 m 581 643 q 550 664 581 664 q 525 660 536 664 q 514 642 514 657 q 547 617 514 617 q 569 624 558 617 q 581 643 581 632 m 631 451 q 669 469 653 451 q 682 508 685 486 q 619 467 658 474 l 617 460 q 631 451 617 454 m 221 457 q 204 471 221 471 q 175 450 175 471 q 193 436 175 436 q 221 457 221 436 m 203 393 q 192 403 203 403 q 165 389 181 403 q 149 364 149 375 q 163 353 149 353 q 189 367 175 353 q 203 393 203 381 m 675 36 q 664 8 665 18 q 672 3 664 6 q 690 10 681 3 q 699 29 699 17 q 686 40 699 40 l 675 36 m 635 22 q 622 38 635 38 q 615 33 617 38 q 613 26 613 28 q 626 10 613 10 q 632 13 631 10 q 635 22 633 17 m 701 415 l 699 422 q 632 394 667 394 q 611 397 618 394 q 608 389 610 396 q 640 363 608 363 q 685 379 668 363 q 701 415 701 396 m 156 265 q 171 281 164 275 q 188 296 175 288 q 204 307 201 304 l 206 315 q 202 322 206 319 q 194 326 199 325 q 166 312 185 326 q 147 275 147 297 q 156 265 151 265 m 213 240 q 221 254 221 247 q 210 265 221 265 q 183 243 199 265 q 167 199 167 221 q 169 192 168 194 q 172 189 171 190 q 190 217 181 203 q 213 240 199 232 m 251 203 q 240 215 251 211 q 213 196 226 215 q 199 161 199 176 q 213 133 199 133 q 217 142 217 138 q 232 181 217 169 q 242 190 233 183 q 251 203 251 197 m 444 836 l 449 856 l 444 860 q 431 843 431 860 q 474 807 431 811 q 488 790 481 803 q 494 807 494 796 q 488 835 494 825 q 472 850 481 844 q 464 843 467 847 q 460 833 461 839 l 461 822 l 458 817 q 447 825 450 817 q 444 836 444 833 m 669 844 q 663 858 669 854 q 649 860 656 861 l 651 842 q 648 831 651 835 q 639 825 644 828 l 632 832 l 633 842 l 626 851 q 604 813 604 836 l 606 801 q 616 810 611 803 q 624 818 621 817 l 635 817 q 661 826 653 817 q 669 844 669 836 m 692 593 q 689 605 690 599 q 679 611 688 611 q 675 608 676 611 q 674 604 674 606 q 669 579 674 590 q 654 553 664 568 q 677 563 663 549 q 692 593 692 576 m 672 325 l 671 332 q 582 292 635 292 l 556 296 q 567 273 554 282 q 597 264 581 264 q 649 282 626 264 q 672 325 672 300 z "},"k":{"ha":1132,"x_min":18,"x_max":1099,"o":"m 531 0 l 250 0 q 176 35 210 0 q 143 118 143 69 q 159 185 143 158 q 204 228 175 211 q 150 261 167 240 q 126 350 126 290 q 150 442 126 397 q 206 518 167 472 q 217 540 221 533 q 161 564 182 536 q 151 590 151 578 l 147 594 q 136 585 136 588 l 139 572 q 131 567 133 567 q 83 600 111 567 q 54 646 61 626 q 34 657 38 651 q 31 685 31 663 l 33 736 q 18 754 25 744 q 49 808 18 781 q 138 842 85 842 l 168 838 q 230 918 186 886 q 326 950 274 950 q 359 1035 326 999 q 444 1072 392 1072 l 450 1069 l 450 1046 q 500 1056 475 1056 q 563 1035 536 1056 q 590 1001 590 1014 q 583 992 590 997 q 576 982 576 986 q 608 941 596 960 q 621 914 621 922 q 604 896 621 907 q 619 842 619 872 q 617 810 619 824 q 603 796 614 796 q 585 813 593 804 l 567 817 l 556 786 q 567 725 567 757 l 564 694 q 569 689 567 690 q 574 688 572 688 q 582 694 581 692 l 713 936 l 1074 936 l 992 788 q 1026 736 1026 776 q 986 688 1022 700 q 994 657 994 671 q 979 625 994 640 q 942 610 964 610 q 924 570 942 589 q 879 551 907 551 l 858 554 l 818 485 l 856 419 l 872 421 q 909 401 896 421 q 918 367 922 382 q 960 353 942 367 q 979 315 979 340 q 972 292 979 303 q 990 279 982 289 q 1004 240 1004 264 q 988 192 1004 215 l 1099 0 l 722 0 l 531 363 l 531 0 m 446 678 q 422 738 446 710 q 357 769 394 769 q 305 745 324 769 q 286 688 286 721 q 314 619 286 649 q 356 596 338 596 q 369 613 369 596 l 367 622 q 335 651 346 632 q 324 690 324 669 q 334 717 324 707 q 358 728 344 728 q 388 715 372 728 q 413 676 403 701 q 415 660 414 674 q 429 651 415 651 q 446 678 446 651 m 399 860 q 370 848 382 860 q 358 819 358 836 q 369 792 358 803 q 399 781 381 781 q 426 792 415 781 q 438 819 438 803 q 426 848 438 836 q 399 860 414 860 m 935 681 q 901 672 919 672 q 856 685 878 672 q 865 660 850 668 q 899 651 881 651 q 926 662 915 651 q 935 681 936 672 m 957 738 l 954 744 q 929 739 940 739 q 892 750 910 739 l 890 739 q 925 718 890 718 q 957 738 957 718 m 894 617 q 856 620 869 617 q 824 642 842 624 q 818 626 818 636 q 831 605 818 613 q 858 597 844 597 q 894 617 894 597 m 238 760 q 211 750 222 760 q 200 722 200 740 q 211 694 200 707 q 238 682 222 682 q 266 694 254 682 q 278 722 278 706 q 266 749 278 738 q 238 760 254 760 m 428 628 q 403 617 415 628 q 390 594 390 606 q 401 588 390 590 q 418 593 410 588 q 438 619 438 606 q 433 624 438 622 q 428 628 429 626 m 869 358 q 856 374 869 371 q 826 338 843 356 q 806 314 818 328 l 818 313 q 854 328 839 313 q 869 358 869 343 m 856 258 q 903 274 882 258 q 924 301 924 289 q 918 311 924 307 q 907 315 913 315 q 880 295 899 315 q 856 258 861 275 m 957 236 q 956 247 957 244 q 936 260 950 260 q 917 233 929 246 q 890 217 904 221 l 910 215 q 943 219 929 215 q 957 236 957 224 m 399 835 q 413 819 413 835 q 399 804 413 804 q 382 819 382 804 q 399 835 382 835 m 238 738 q 254 722 254 738 q 238 706 254 706 q 224 722 224 706 q 238 738 224 738 z "},"l":{"ha":839,"x_min":119,"x_max":756,"o":"m 518 683 q 553 667 540 683 q 567 633 567 651 q 553 599 567 613 q 518 585 539 585 q 483 598 497 585 q 468 633 468 611 q 481 667 468 651 q 518 683 494 683 m 532 650 q 518 635 518 650 q 532 621 518 621 q 546 635 546 621 q 532 650 546 650 m 119 0 l 119 936 l 622 936 q 503 883 557 928 q 429 775 450 838 q 351 764 397 764 l 322 765 l 293 768 q 275 751 275 768 q 317 714 275 733 q 408 694 360 694 q 397 681 406 690 q 382 663 389 671 q 297 375 297 536 q 307 294 297 336 q 336 251 317 251 q 352 257 340 251 q 369 267 364 263 q 390 288 374 272 q 410 304 407 304 q 419 293 419 300 q 402 254 419 276 q 361 219 385 232 q 381 191 367 204 q 417 178 394 178 q 461 194 443 178 q 482 226 474 206 q 497 176 479 197 q 542 154 514 154 q 592 178 574 154 q 608 215 603 192 q 628 192 615 201 q 658 183 642 183 q 707 203 689 183 q 725 246 725 222 l 721 264 l 756 271 l 756 0 l 119 0 m 414 747 l 408 719 l 388 718 q 328 728 357 718 q 300 744 300 738 l 310 747 l 372 744 l 414 747 z "},"m":{"ha":1332,"x_min":88,"x_max":1275,"o":"m 88 0 l 181 936 l 281 936 q 274 985 274 961 q 306 1078 274 1039 q 390 1117 338 1117 q 477 1077 442 1117 q 513 988 513 1038 q 504 931 513 963 q 490 876 490 878 l 486 825 q 508 717 486 765 q 579 633 531 669 q 599 597 589 626 q 632 564 610 568 q 658 581 649 564 q 669 607 661 585 q 690 640 678 629 q 789 826 789 706 q 781 900 789 839 q 774 965 774 961 q 815 1071 774 1033 q 896 1103 850 1103 q 975 1067 942 1103 q 1008 979 1008 1031 l 1004 936 l 1104 936 l 1167 161 q 1206 186 1182 161 q 1235 253 1235 217 q 1215 328 1235 271 q 1163 475 1189 401 q 1153 538 1153 503 q 1192 649 1153 604 q 1222 676 1208 665 q 1253 693 1236 688 q 1258 689 1256 693 q 1196 638 1217 671 q 1175 561 1175 604 q 1183 507 1175 533 q 1204 456 1185 501 q 1247 353 1233 388 q 1275 243 1275 286 q 1244 156 1275 194 q 1171 104 1214 118 l 1179 0 l 868 0 l 864 36 q 831 83 831 51 q 858 125 831 110 l 835 403 l 785 281 q 808 231 808 260 q 790 183 808 201 q 743 165 772 165 l 679 0 l 575 0 l 553 57 q 517 78 533 60 q 500 121 500 96 q 519 168 500 153 l 439 424 l 417 251 q 443 233 433 244 q 453 206 453 222 q 441 174 453 189 q 407 160 429 160 l 390 0 l 88 0 m 968 972 q 947 1034 968 1011 q 897 1057 925 1057 q 838 1028 861 1057 q 815 960 815 999 q 836 903 815 926 q 889 879 857 879 q 944 908 919 879 q 968 972 968 936 m 803 753 l 1021 772 l 1021 783 l 803 764 l 803 753 m 468 978 q 439 1050 468 1025 q 389 1069 417 1069 q 338 1047 358 1069 q 318 986 318 1024 q 340 922 318 953 q 396 892 363 892 q 447 915 426 892 q 468 978 468 939 m 247 796 l 244 785 l 464 756 l 464 765 l 247 796 m 460 103 q 481 93 471 103 q 490 71 490 83 q 460 39 490 39 q 437 48 446 39 q 428 71 428 57 q 438 93 428 83 q 460 103 447 103 m 756 64 q 778 54 768 64 q 788 29 788 44 q 778 7 788 17 q 756 -3 768 -3 q 731 6 742 -3 q 721 29 721 15 q 731 54 721 44 q 756 64 740 64 m 603 861 q 617 856 610 861 q 624 840 624 850 q 603 819 624 819 q 581 840 581 819 q 603 861 581 861 m 681 819 q 660 840 660 819 q 681 861 660 861 q 703 840 703 861 q 681 819 703 819 m 776 692 l 1025 625 l 1031 636 l 781 700 l 776 692 m 253 644 l 256 633 l 483 689 l 479 697 l 253 644 m 956 521 l 963 532 l 743 647 l 735 639 l 956 521 m 304 544 l 308 533 l 515 636 l 507 644 l 304 544 z "},"n":{"ha":1329,"x_min":-4,"x_max":1318,"o":"m 381 936 l 544 936 l 756 576 q 769 653 756 610 q 801 771 801 753 q 781 832 801 806 q 742 898 756 863 q 729 971 729 933 q 756 1076 729 1028 q 822 1135 782 1124 q 897 988 822 1040 q 1031 929 964 958 q 1079 877 1061 907 q 1097 813 1097 847 l 1097 319 q 1112 307 1097 310 q 1151 304 1126 304 q 1172 304 1161 304 q 1190 325 1190 307 l 1189 344 q 1174 356 1181 351 q 1157 382 1160 365 q 1167 406 1157 394 q 1190 417 1176 417 q 1214 407 1204 417 q 1224 382 1224 397 q 1211 357 1224 369 q 1204 343 1204 350 q 1204 324 1204 333 q 1217 310 1207 310 q 1249 322 1231 310 q 1259 347 1254 335 q 1285 360 1264 360 q 1311 349 1304 360 q 1318 326 1318 339 q 1309 305 1318 314 q 1289 296 1300 296 q 1270 299 1282 296 q 1254 303 1258 303 q 1243 299 1246 300 q 1231 281 1231 292 q 1238 267 1231 278 q 1249 251 1244 257 q 1281 241 1254 246 q 1307 214 1307 236 q 1297 188 1307 199 q 1275 178 1286 178 q 1253 187 1264 178 q 1243 204 1243 196 q 1234 243 1243 225 q 1210 261 1225 261 q 1198 247 1201 261 q 1192 219 1194 233 q 1199 203 1192 214 q 1206 181 1206 192 q 1195 158 1206 167 q 1174 149 1185 149 q 1150 159 1160 149 q 1140 183 1140 169 q 1155 210 1140 201 q 1174 225 1169 218 q 1178 240 1174 226 q 1183 261 1183 254 q 1174 275 1183 275 l 1100 275 q 1097 260 1097 268 l 1097 0 l 850 0 q 778 19 808 0 q 763 6 767 10 q 747 -19 747 -11 q 763 -35 747 -24 q 782 -46 778 -46 l 803 -42 q 836 -76 836 -42 q 826 -99 836 -92 q 806 -107 815 -107 q 793 -106 797 -107 q 771 -71 771 -97 q 759 -55 771 -64 q 740 -46 747 -46 q 731 -59 733 -46 q 728 -86 728 -72 q 744 -124 736 -104 q 736 -146 740 -140 q 711 -157 726 -157 q 688 -145 696 -157 q 679 -124 679 -133 q 692 -100 679 -110 q 706 -89 704 -90 q 713 -58 713 -78 q 696 -44 713 -44 q 664 -54 674 -44 q 648 -77 656 -69 q 628 -85 640 -85 q 606 -74 618 -85 q 594 -54 594 -64 q 606 -27 594 -37 q 628 -17 618 -17 q 653 -32 638 -17 q 674 -29 667 -31 q 696 -15 696 -24 q 677 9 689 0 q 658 18 665 18 l 650 17 q 628 26 639 17 q 617 49 617 36 q 626 73 617 63 q 649 83 635 83 q 683 50 683 83 q 681 32 683 43 q 692 19 688 24 q 708 6 706 6 q 733 24 718 6 q 749 50 749 43 l 746 57 l 556 367 q 518 226 518 303 q 538 143 518 176 q 582 60 582 68 l 579 28 q 533 -53 574 -7 q 485 -131 492 -100 q 457 -183 479 -161 q 410 -206 435 -206 q 333 -156 365 -206 q 300 -78 315 -128 q 225 15 285 -28 q 165 92 165 57 q 213 193 165 119 q 235 256 235 228 l 235 463 q 224 475 235 475 l 146 475 q 128 454 136 475 q 121 415 121 433 l 124 406 q 142 378 142 394 q 131 350 142 360 q 108 340 119 340 q 85 350 96 340 q 74 374 74 360 q 87 399 74 390 q 104 421 100 407 q 108 449 108 435 q 89 463 108 463 q 62 443 67 458 q 53 422 57 428 q 26 410 43 410 q 6 422 15 410 q -4 442 -4 433 q 6 469 -4 460 q 31 478 15 478 l 56 471 q 70 476 61 471 q 89 490 79 482 q 99 503 99 497 q 69 528 99 511 q 46 538 53 538 l 31 535 q 4 568 4 535 q 13 591 4 581 q 36 601 22 601 q 59 594 49 601 q 69 571 69 586 q 75 553 69 557 l 107 525 q 117 526 114 518 q 121 543 121 533 q 119 566 121 551 q 104 585 118 581 q 92 607 92 592 q 104 635 92 628 q 126 643 117 643 q 151 632 143 643 q 158 614 158 621 q 151 591 158 600 q 144 579 144 582 l 146 525 q 158 515 146 515 l 224 515 q 235 528 235 515 l 235 760 q 268 876 235 826 q 381 936 308 936 m 972 286 q 958 313 972 299 q 924 361 924 349 q 947 398 924 382 q 969 433 969 414 q 954 456 969 447 q 926 497 926 471 q 936 522 926 513 q 961 532 946 531 q 981 542 976 533 l 983 554 q 952 581 983 565 q 926 629 921 597 q 960 658 929 646 q 990 685 990 671 q 962 708 990 692 q 933 751 933 724 q 940 786 933 761 q 946 815 947 811 q 888 867 908 844 q 867 929 867 890 l 865 940 q 860 931 861 935 q 854 894 854 915 q 884 842 854 871 q 914 799 914 814 q 900 771 914 789 q 886 742 886 753 q 916 712 886 724 q 946 681 946 700 q 928 657 946 667 q 908 640 911 647 q 904 626 904 633 q 917 602 904 617 q 931 578 931 588 q 906 544 931 558 q 882 506 882 531 q 903 479 882 493 q 924 435 924 465 q 899 410 924 422 q 874 385 874 397 q 900 351 874 375 q 926 307 926 328 q 918 283 926 296 q 883 265 906 265 q 847 291 856 265 q 831 325 838 317 q 814 333 824 333 q 794 326 804 329 q 775 324 785 324 q 751 350 751 324 q 756 385 756 372 q 746 406 756 400 q 693 415 713 410 q 654 472 654 428 q 663 510 654 490 q 671 538 671 529 q 661 556 671 549 q 639 563 651 563 q 623 559 632 561 q 603 557 614 557 q 569 565 582 557 q 551 607 551 578 q 564 635 551 617 q 576 664 576 653 l 575 671 q 543 690 571 689 q 508 696 515 692 q 481 738 486 703 q 458 781 476 774 l 451 781 q 425 758 425 781 q 438 714 431 736 q 444 678 444 692 q 393 615 444 636 q 368 588 368 606 q 381 561 368 579 q 393 532 393 543 q 361 493 393 510 q 329 457 329 476 q 350 432 329 442 q 381 422 363 426 q 405 408 399 418 q 411 386 411 397 q 386 329 411 363 q 361 274 361 296 q 376 234 361 254 q 407 203 390 214 q 392 235 397 222 q 388 264 388 247 q 407 317 388 290 q 453 396 453 381 q 429 428 453 415 q 406 457 406 440 q 421 483 406 467 q 436 514 436 500 q 422 542 436 528 q 407 569 407 557 q 436 597 407 597 q 465 633 465 599 q 464 658 465 649 q 470 674 465 668 q 485 681 475 681 q 506 672 497 681 q 524 641 519 658 q 531 593 529 624 q 535 552 532 563 q 565 542 538 542 q 617 518 593 542 q 640 463 640 494 q 636 433 636 444 q 644 412 636 418 q 665 403 651 406 q 715 383 703 394 q 733 340 733 367 q 731 310 731 322 q 738 283 731 289 q 761 276 746 276 q 780 280 764 276 q 803 283 796 283 q 834 276 821 283 q 853 251 847 269 q 861 222 858 233 q 875 211 864 211 q 899 240 888 211 q 933 268 910 268 l 954 264 q 972 286 972 264 m 376 781 q 354 758 354 781 q 376 733 354 733 q 401 758 401 733 q 376 781 401 781 m 901 164 q 882 143 882 164 q 901 126 882 126 q 921 143 921 126 q 901 164 921 164 m 304 111 q 274 99 288 111 q 260 67 260 86 q 272 33 260 47 q 304 19 285 19 q 338 33 324 19 q 351 67 351 47 q 338 99 351 86 q 304 111 324 111 m 474 -12 q 504 1 490 -12 q 518 35 518 15 q 506 68 518 54 q 474 82 493 82 q 440 68 454 82 q 426 35 426 54 q 439 1 426 15 q 474 -12 451 -12 m 850 461 q 832 443 832 461 q 850 426 832 426 q 864 443 864 426 q 850 461 864 461 m 304 86 q 326 67 326 86 q 304 44 326 44 q 285 67 285 44 q 304 86 285 86 m 471 15 q 451 35 451 15 q 471 54 451 54 q 493 35 493 54 q 471 15 493 15 z "},"o":{"ha":1232,"x_min":-3,"x_max":1226,"o":"m 754 715 q 781 669 754 694 q 840 644 807 644 q 888 683 888 644 q 874 717 888 700 q 843 700 861 700 q 815 708 825 700 q 806 733 806 717 l 810 756 q 769 747 783 758 q 754 715 754 735 m 404 764 l 408 740 q 399 721 408 733 q 376 708 390 708 q 344 722 361 708 q 332 689 332 704 q 371 650 332 650 q 434 673 407 650 q 461 725 461 696 q 451 755 461 742 q 422 768 442 768 l 404 764 m 536 150 q 562 124 536 135 q 626 114 588 114 q 692 124 667 114 q 718 150 718 133 q 692 174 718 164 q 626 183 667 183 q 563 174 589 183 q 536 150 536 164 m 13 272 l -3 293 q 59 343 25 321 q 131 381 93 365 q 124 434 125 418 q 124 460 124 450 q 153 628 124 547 q 240 781 183 710 q 218 840 218 803 q 242 897 218 875 q 299 919 265 919 q 344 906 326 919 q 365 886 350 901 q 483 934 417 917 q 619 951 550 951 q 825 907 736 951 l 849 893 q 918 931 876 931 q 975 907 951 931 q 999 851 999 883 q 976 794 999 817 q 1108 457 1108 650 l 1104 393 q 1169 354 1147 369 q 1226 299 1206 329 l 1208 283 q 1167 325 1193 304 q 1099 367 1122 360 l 1081 303 q 1137 265 1110 286 q 1183 221 1164 244 l 1165 204 q 1122 244 1136 233 q 1071 275 1099 263 q 1046 221 1061 244 q 1089 190 1071 204 q 1129 150 1115 169 l 1114 135 q 1076 169 1090 158 q 1032 199 1056 186 q 851 27 961 89 q 614 -35 740 -35 q 363 33 478 -35 q 194 201 256 96 q 79 126 131 174 l 64 147 q 119 192 85 169 q 179 226 129 197 q 166 253 172 239 q 156 281 160 268 q 90 244 115 261 q 39 201 65 226 l 24 221 q 146 306 74 272 q 139 331 142 318 q 135 351 136 344 q 69 315 103 336 q 13 272 36 294 m 460 278 l 454 247 q 415 249 432 249 q 383 250 397 250 l 358 250 q 453 171 392 188 q 533 213 479 200 q 635 225 586 225 q 725 216 688 225 q 794 183 763 207 q 882 260 851 204 q 742 275 813 275 l 742 299 q 819 296 783 299 q 892 283 856 293 q 901 333 901 304 q 806 344 857 344 q 782 344 793 344 q 758 342 765 342 l 758 369 q 808 374 783 374 q 851 372 836 374 q 901 363 865 369 q 899 389 901 374 q 890 414 896 404 q 875 415 885 415 q 861 415 865 415 q 803 413 829 415 q 761 408 778 410 l 758 431 q 826 439 799 436 q 876 442 854 442 q 726 528 829 528 q 674 465 699 479 q 614 451 650 451 q 557 468 586 451 q 508 518 528 485 q 427 497 465 518 q 365 436 389 475 q 433 435 418 436 q 471 426 449 433 l 465 400 q 424 407 444 404 q 382 410 404 410 l 350 408 q 343 385 347 400 q 338 363 339 371 l 399 367 q 471 357 440 367 l 465 329 q 427 336 446 333 q 388 339 408 339 q 354 338 365 339 q 335 333 340 333 q 339 300 335 317 q 344 278 343 283 q 406 282 381 282 q 460 278 435 282 m 179 226 l 194 201 q 358 250 274 238 q 344 278 349 261 q 254 257 282 265 q 179 226 226 249 m 146 306 l 156 281 q 335 333 242 318 l 338 363 q 238 341 289 356 q 146 306 188 326 m 131 381 l 135 351 q 235 387 176 372 q 350 408 293 401 l 365 436 q 131 381 264 436 m 876 442 l 890 414 q 1003 400 944 414 q 1099 367 1063 386 l 1104 393 q 997 426 1060 411 q 876 442 935 442 m 901 363 l 901 333 q 1071 275 992 318 l 1081 303 q 997 338 1042 322 q 901 363 951 353 m 892 283 l 882 260 q 1032 199 965 242 l 1046 221 q 975 257 1013 242 q 892 283 938 272 z "},"p":{"ha":1028,"x_min":-29,"x_max":993,"o":"m 189 683 l 189 853 q 212 912 189 888 q 269 936 235 936 l 663 936 q 897 844 800 936 q 993 610 993 751 q 896 382 993 468 q 636 296 799 296 q 549 301 588 296 q 533 269 543 283 q 510 239 517 249 q 497 200 497 219 l 499 188 q 508 122 508 157 q 475 9 508 60 q 415 -42 442 -42 q 396 -29 396 -42 q 403 -11 396 -21 q 415 7 415 6 q 433 47 426 26 q 439 88 439 68 q 436 114 439 106 q 417 167 422 147 q 411 197 411 186 l 419 249 q 406 292 419 276 q 383 278 397 292 q 364 229 364 258 q 366 205 364 211 q 381 189 368 199 q 403 142 403 169 q 351 35 403 90 q 229 -26 294 -26 q 195 -22 206 -26 q 165 -1 185 -17 l 151 -3 q 110 11 131 -3 q 71 49 90 25 q 44 63 58 57 q 17 69 31 69 q -25 44 -7 69 q -15 74 -29 57 q 25 92 -1 92 l 38 90 q 60 85 54 83 q 43 124 49 114 q 13 153 32 143 l 3 160 q 33 150 15 160 q 60 128 51 140 q 88 68 64 124 q 113 33 99 43 q 144 22 126 18 q 142 46 142 29 q 154 129 147 88 q 165 165 154 149 q 197 182 175 182 l 222 179 l 224 204 q 217 261 224 235 q 196 318 210 288 q 190 364 190 339 q 256 506 190 449 q 235 572 256 535 q 189 683 189 656 m 483 761 l 489 761 q 510 753 504 761 q 511 749 510 751 q 500 726 500 732 q 514 722 506 722 q 532 732 522 722 q 538 743 535 735 q 542 755 540 751 q 549 760 543 758 q 563 761 556 761 q 574 753 574 761 l 572 747 q 583 740 572 743 q 599 747 596 744 q 621 764 613 764 q 642 754 633 764 q 650 738 650 744 q 645 725 650 735 q 640 710 640 715 q 651 700 640 700 q 669 726 665 704 q 676 754 672 749 q 681 761 679 760 q 700 768 689 768 l 714 761 q 721 746 714 749 q 758 743 728 743 q 779 725 779 743 q 771 710 779 717 q 751 685 751 692 q 775 671 751 671 q 783 673 779 671 q 790 679 786 675 q 825 714 807 701 q 867 726 843 726 q 900 717 890 717 q 910 729 913 717 q 882 746 908 746 q 847 738 871 746 q 811 729 824 729 q 782 751 782 729 q 795 769 782 763 q 810 781 808 776 l 811 788 q 788 808 811 808 q 775 799 775 808 q 747 763 775 763 q 722 786 722 763 q 726 800 722 793 q 735 816 729 807 q 750 828 742 825 q 775 832 758 832 l 790 832 q 799 847 799 832 q 791 860 799 853 q 778 868 783 868 q 753 860 769 868 q 726 826 736 851 q 714 795 717 800 q 707 789 711 790 q 700 786 703 788 q 683 792 693 786 q 656 804 661 804 q 639 797 647 804 q 621 779 631 789 l 614 778 l 588 785 q 574 781 581 785 q 560 772 567 776 l 547 769 q 529 793 529 769 l 533 831 q 524 855 533 843 q 507 867 515 867 q 490 854 490 867 q 496 832 490 843 q 511 794 511 803 q 501 777 511 783 q 482 771 490 771 q 469 774 476 771 q 446 781 451 781 q 426 771 436 781 q 418 761 424 768 q 438 743 418 743 q 456 749 444 743 q 483 761 479 761 m 679 625 q 644 681 679 657 q 564 704 610 704 q 498 691 524 704 q 472 643 472 678 q 485 610 479 632 q 492 569 490 588 q 599 558 543 569 q 652 578 625 558 q 679 625 679 597 m 769 650 q 750 632 750 650 q 771 611 750 611 q 783 617 778 611 q 789 629 789 622 q 769 650 789 650 m 738 394 q 722 425 738 410 q 688 475 688 461 q 698 495 688 488 q 718 503 708 503 q 750 482 728 503 q 771 471 763 471 q 779 483 779 471 q 764 510 779 492 l 763 517 q 799 542 763 542 q 841 517 818 542 q 864 469 864 493 q 888 442 864 442 q 901 456 896 442 q 906 482 906 469 q 893 519 906 507 q 858 539 881 532 q 829 550 836 546 q 815 571 815 558 q 825 588 815 581 q 838 614 838 603 q 828 628 838 628 q 815 618 819 628 q 808 600 811 608 q 761 568 792 568 q 746 583 749 568 q 741 601 743 599 q 726 604 739 604 q 711 589 711 604 q 720 574 711 582 q 742 558 729 567 q 749 536 749 551 l 747 526 q 721 514 739 514 q 694 517 711 514 q 674 521 676 521 l 664 513 q 657 481 664 492 q 624 471 650 471 q 607 481 617 471 q 593 490 597 490 l 585 486 q 572 469 576 472 q 550 461 563 461 q 526 478 533 461 q 510 499 521 499 q 494 483 501 499 q 485 465 488 468 q 449 453 472 453 l 433 454 q 400 470 419 463 q 365 478 381 478 q 333 469 350 478 q 297 435 304 456 q 290 383 290 415 l 286 333 l 294 328 q 311 342 304 328 q 315 361 315 358 q 310 383 315 368 q 304 406 304 399 q 312 427 304 417 q 331 438 319 438 q 352 426 347 438 q 357 388 357 414 q 360 363 357 372 q 375 354 364 354 q 394 372 394 354 q 384 394 394 382 q 374 413 374 406 q 406 447 374 447 q 435 438 421 447 q 460 413 450 428 q 472 388 465 400 q 489 376 479 376 q 501 386 501 376 q 499 396 500 394 q 476 433 476 414 q 487 453 476 447 q 514 458 497 458 q 545 441 532 458 q 558 406 558 424 q 553 383 558 400 q 549 356 549 365 q 568 332 549 332 q 586 358 586 332 q 568 436 576 397 q 589 461 568 461 q 608 449 601 461 q 619 438 613 444 q 631 432 625 432 q 640 444 638 432 q 649 460 643 457 l 660 464 q 681 447 672 464 q 689 410 689 431 l 685 369 q 701 354 685 354 q 724 366 711 354 q 738 394 738 378 m 608 856 q 593 875 593 856 q 583 882 592 878 q 574 877 576 882 q 571 871 571 872 q 579 857 571 867 q 589 842 588 847 l 590 836 q 583 815 583 821 q 585 811 583 813 q 590 810 588 810 q 615 827 611 810 q 640 846 618 844 q 661 853 661 847 q 649 865 657 865 q 608 856 622 856 m 904 665 q 889 683 904 683 q 868 671 878 683 q 858 649 858 658 q 876 632 858 632 q 894 644 883 632 q 904 665 904 656 m 350 857 q 365 835 350 840 l 379 850 q 390 871 390 868 q 375 888 390 888 q 350 857 350 888 m 492 308 q 475 313 488 313 q 447 307 456 313 q 456 288 456 296 q 453 274 456 281 q 446 249 446 254 q 460 235 446 235 q 476 251 476 235 l 472 281 q 492 308 472 300 m 242 126 q 248 108 243 118 q 258 90 253 99 l 253 86 q 222 111 238 99 l 218 97 q 227 77 218 85 q 244 69 236 69 q 265 78 256 69 q 274 97 274 86 q 269 114 274 107 q 242 126 260 129 z "},"q":{"ha":1150,"x_min":67,"x_max":1264,"o":"m 132 593 q 150 551 144 564 q 193 490 168 515 q 225 547 204 525 q 236 556 228 550 q 317 453 260 490 q 421 422 364 422 q 463 429 439 422 q 416 483 433 451 q 399 550 399 514 q 419 631 399 596 q 450 667 431 650 q 383 626 414 657 q 340 558 351 594 q 324 551 331 551 q 299 580 308 551 q 289 650 289 608 q 299 731 289 694 q 332 808 310 768 q 293 787 311 808 q 269 744 275 765 q 254 665 258 722 q 232 590 250 607 q 204 578 219 578 q 163 622 163 578 q 176 648 163 638 q 206 658 189 658 q 232 644 219 658 l 247 728 q 276 793 256 767 q 344 825 306 829 l 386 871 q 356 879 369 879 q 310 860 335 879 q 244 767 271 829 q 215 718 232 736 q 167 694 193 694 q 131 728 131 694 q 140 752 131 742 q 163 763 149 763 q 183 756 174 763 q 197 738 192 750 q 235 781 217 751 q 286 860 279 854 q 323 887 308 881 q 357 893 338 893 q 401 883 378 893 q 442 911 414 894 q 451 917 444 913 q 407 935 438 935 q 300 896 346 935 q 239 821 272 872 q 217 796 231 806 q 185 786 203 786 q 157 797 167 786 q 147 819 147 808 q 182 857 147 857 q 202 847 193 857 q 215 825 211 838 q 247 857 229 836 q 300 914 286 903 q 347 940 319 929 q 404 950 375 950 q 469 925 444 950 q 582 949 524 949 q 753 897 681 949 q 863 753 825 844 q 903 763 882 763 q 1009 671 960 763 q 1058 458 1058 579 q 1021 275 1058 360 q 919 117 989 203 l 1264 -117 l 1136 -79 l 1197 -172 l 1060 -101 l 1117 -206 l 1019 -126 l 1019 -133 l 1044 -222 l 958 -129 l 982 -244 l 978 -246 l 808 32 q 551 -35 692 -35 q 268 53 400 -35 q 85 283 136 142 l 96 283 l 113 283 q 92 328 99 313 q 75 375 79 354 q 67 451 67 415 l 113 443 q 108 470 108 464 q 107 492 107 476 q 132 593 107 549 m 656 174 q 578 194 617 171 q 594 159 578 174 q 628 144 610 144 q 656 174 656 144 m 750 108 q 719 113 732 108 q 686 128 707 117 q 700 101 686 113 q 731 90 714 90 q 750 108 750 90 m 790 164 q 725 175 761 164 q 769 147 736 147 q 790 164 790 147 m 863 214 l 838 213 q 799 215 814 213 q 779 218 785 218 q 802 194 788 203 q 835 186 817 186 q 858 196 849 186 q 863 214 867 206 m 908 279 q 876 268 896 272 q 842 264 857 264 l 806 267 q 854 239 825 239 q 885 244 875 239 q 902 258 896 250 q 908 279 908 267 m 667 554 q 624 449 667 496 q 517 403 582 403 q 506 382 506 403 q 528 356 506 363 q 582 349 551 349 q 682 393 633 349 q 740 522 740 446 q 702 633 740 582 q 626 683 664 683 q 610 671 610 683 q 667 554 667 626 m 878 383 q 939 404 914 383 q 964 451 964 425 q 950 478 964 468 q 895 428 929 449 q 824 399 861 407 q 878 383 847 383 m 740 244 l 715 243 q 644 263 688 243 q 661 235 649 247 q 708 214 681 214 q 735 229 726 214 q 740 244 738 233 m 456 750 q 433 774 456 774 q 410 750 410 774 q 433 726 410 726 q 456 750 456 726 m 874 321 q 904 313 879 313 q 933 320 921 313 q 944 343 944 328 q 940 358 944 356 q 910 338 929 347 q 874 321 892 328 z "},"r":{"ha":1040,"x_min":33,"x_max":1010,"o":"m 151 936 l 367 936 q 358 978 358 961 q 371 1019 358 1006 q 399 1033 383 1033 q 465 1001 435 1033 q 506 936 490 975 l 742 936 q 782 981 763 965 q 838 1003 810 1003 q 879 956 879 1003 q 874 919 879 935 q 853 879 868 904 q 972 656 972 800 q 911 490 972 561 q 790 413 861 433 l 769 406 l 789 369 l 1010 0 l 635 0 l 478 272 l 478 0 l 151 0 l 151 181 q 169 172 158 176 q 192 165 181 167 q 228 238 207 206 q 283 293 249 269 q 244 324 261 306 q 126 197 160 281 q 71 254 97 219 q 120 327 86 293 q 200 382 154 361 q 188 408 193 393 q 178 439 182 424 q 38 339 100 414 l 33 386 q 39 444 33 418 q 96 479 67 465 q 160 504 125 493 l 156 561 q 110 549 133 560 q 67 526 97 543 q 100 593 78 558 q 151 658 122 628 l 151 936 m 843 672 q 763 805 843 746 q 572 864 682 864 q 413 824 474 864 q 353 731 353 783 l 360 739 q 497 814 404 814 q 555 799 535 814 q 575 760 575 783 q 535 703 575 724 q 479 667 494 683 q 460 607 460 644 q 473 561 460 579 q 513 543 486 543 l 533 547 q 518 596 518 569 q 537 649 518 629 q 581 669 556 669 q 626 647 610 669 q 643 599 643 624 q 621 540 643 565 q 683 562 658 540 q 707 617 707 583 q 701 649 707 633 q 682 674 694 665 q 640 703 646 697 q 615 751 615 725 q 635 783 615 769 q 679 797 654 797 q 785 742 742 797 q 824 636 824 692 q 824 614 824 625 q 818 599 819 603 q 835 630 828 611 q 843 672 843 649 m 350 265 l 315 275 q 271 151 271 219 q 310 153 294 151 q 342 161 325 156 q 340 190 340 171 q 342 226 340 208 q 350 265 344 244 m 439 229 q 410 257 439 257 l 394 253 l 397 225 l 394 183 q 423 201 407 188 q 439 229 439 215 m 449 760 q 482 726 449 726 q 505 737 496 726 q 514 760 514 747 q 479 793 514 793 q 449 760 449 793 m 672 735 q 707 703 672 703 q 729 713 719 703 q 739 736 739 722 q 706 768 739 768 q 672 735 672 768 z "},"s":{"ha":868,"x_min":71,"x_max":824,"o":"m 146 69 l 121 99 q 78 89 93 101 l 74 88 l 71 94 q 75 113 71 104 q 97 129 79 121 q 76 210 76 165 q 121 322 76 274 q 228 371 165 371 q 328 332 285 371 q 371 231 371 293 q 340 153 371 185 q 268 122 308 122 q 203 149 229 122 q 178 210 178 176 q 185 247 178 231 q 203 268 192 264 l 197 232 q 215 186 197 210 q 222 219 215 207 q 232 208 231 211 q 279 186 250 186 q 258 214 261 200 q 291 222 279 213 q 303 246 303 232 q 285 267 303 267 q 257 253 272 267 l 251 256 l 253 267 q 243 293 253 285 q 222 301 233 301 q 176 279 199 301 q 150 211 150 251 q 194 122 150 157 q 310 88 238 88 q 457 142 401 88 q 506 249 506 189 q 453 361 506 319 q 371 393 413 393 q 346 379 346 393 q 351 364 350 368 l 343 360 q 324 369 333 360 q 319 378 322 371 q 313 405 317 385 q 293 425 308 425 q 281 418 283 421 q 276 404 278 415 q 274 392 275 393 q 261 397 265 394 q 247 425 247 408 q 254 453 247 436 q 233 474 249 474 q 210 454 219 474 q 222 440 222 451 q 204 421 222 421 q 191 431 197 421 q 185 450 185 442 q 192 474 185 463 q 210 496 199 486 l 213 513 q 207 531 213 525 q 196 536 201 536 q 172 524 179 536 q 185 503 185 518 q 163 483 185 483 q 147 493 153 483 q 142 514 142 503 q 154 543 142 531 q 185 594 185 571 q 163 626 185 626 q 143 619 153 626 q 136 611 140 618 q 144 601 143 606 l 147 588 q 125 568 147 568 q 108 578 111 568 q 104 603 104 589 q 113 633 107 622 q 135 655 118 644 q 172 676 153 665 q 193 714 189 689 q 164 742 193 742 q 142 736 151 742 q 146 719 146 729 q 125 697 146 697 q 100 724 100 697 q 128 762 100 749 q 183 775 157 775 q 203 788 199 783 q 217 822 217 800 q 206 840 217 835 q 188 844 194 846 l 192 828 q 186 810 192 819 q 165 800 181 800 q 138 826 138 800 q 158 858 138 842 q 207 875 179 875 l 229 871 q 250 879 243 876 q 271 907 271 890 q 257 928 271 918 q 250 931 256 929 q 240 910 247 915 q 229 903 233 904 q 222 901 225 901 q 201 910 210 901 q 192 931 192 919 q 205 955 192 946 q 240 964 218 964 q 263 960 253 964 q 287 949 274 957 q 313 933 300 940 q 340 926 326 926 q 371 933 360 926 q 382 957 382 939 q 363 994 382 968 q 335 975 354 975 q 318 981 324 975 q 308 1001 313 988 q 344 1032 308 1032 q 376 1021 361 1032 q 401 994 392 1010 q 413 967 408 978 q 431 951 418 957 l 454 947 q 491 963 474 947 q 508 1013 508 979 l 490 1008 q 476 1013 479 1008 q 469 1024 472 1017 q 489 1053 469 1053 q 531 1024 519 1053 q 538 965 538 1004 q 557 930 544 944 q 589 915 569 915 q 623 925 610 915 q 636 958 636 935 q 633 965 636 961 l 624 961 q 597 982 597 961 q 621 1001 597 1001 q 650 987 642 1001 q 658 953 658 972 q 643 904 658 933 q 671 865 660 892 q 683 818 678 847 q 720 770 694 790 q 774 750 746 750 q 806 768 788 768 l 824 761 l 792 672 l 683 708 q 665 696 678 696 q 637 704 651 696 q 608 721 622 713 q 544 746 574 738 q 481 754 515 754 q 431 734 450 754 q 413 685 413 714 q 425 650 413 667 q 449 628 438 633 q 498 622 461 624 q 547 617 535 621 q 710 528 639 600 q 790 332 790 444 q 704 118 790 208 q 461 -17 608 17 q 433 -40 447 -21 q 410 -21 415 -40 l 369 -22 l 328 -21 q 304 -40 317 -21 q 288 -12 293 -37 q 244 3 265 -4 q 225 -4 232 3 l 204 -25 q 194 -7 194 -25 q 206 24 194 1 q 178 33 196 33 q 156 31 163 33 q 129 14 150 29 q 118 31 118 18 q 126 52 118 43 q 146 69 133 61 m 324 553 q 403 529 375 553 q 424 493 424 511 l 447 496 q 506 476 478 496 q 526 424 533 456 q 568 401 556 413 q 586 361 586 385 q 575 328 586 342 q 588 285 588 310 q 564 243 588 261 q 572 211 569 222 q 574 197 574 200 q 560 156 574 172 q 519 128 547 140 q 578 146 556 128 q 607 196 607 169 q 603 214 607 201 q 599 233 599 226 q 613 253 599 246 q 635 267 628 260 q 647 299 647 278 q 638 324 647 311 q 615 360 615 351 l 617 368 q 626 408 626 386 q 610 453 626 436 q 560 469 593 469 l 542 468 q 526 515 549 493 q 461 536 503 536 l 433 533 q 425 547 428 536 q 419 563 422 558 q 394 581 411 576 q 354 586 378 586 q 349 590 351 588 q 347 593 347 592 l 349 611 q 340 651 349 633 q 312 673 331 669 q 293 690 293 676 q 307 719 293 704 q 325 740 321 733 q 335 763 335 756 q 328 782 335 772 l 324 758 q 296 727 318 743 q 268 697 274 711 l 267 690 q 285 670 267 679 q 308 653 303 661 q 329 588 329 625 q 324 553 329 568 m 601 831 q 594 851 601 842 q 563 869 582 869 l 550 867 q 560 843 550 854 l 567 844 q 579 831 579 844 q 567 818 579 818 l 557 822 q 539 797 539 814 q 561 790 546 790 q 591 801 581 790 q 601 831 601 813 m 279 819 q 268 808 268 819 q 279 797 268 797 q 290 808 290 797 q 279 819 290 819 m 289 308 q 282 305 285 308 q 279 300 279 301 q 289 292 279 292 q 297 300 297 297 l 289 308 m 481 111 q 469 99 469 111 q 481 86 469 86 q 493 99 493 86 q 481 111 493 111 z "},"t":{"ha":953,"x_min":32,"x_max":914,"o":"m 314 624 l 129 624 q 85 599 99 624 q 71 546 71 575 q 76 514 71 526 l 69 514 q 50 549 56 529 q 44 592 44 568 q 53 652 44 624 q 86 711 63 681 q 56 696 68 707 q 35 668 50 690 q 42 735 32 703 q 74 794 51 767 q 93 850 89 817 q 70 837 83 849 q 49 814 57 825 q 58 906 49 864 q 90 982 67 947 q 108 1024 100 996 q 119 1071 117 1053 q 222 1031 176 1071 q 288 936 263 994 l 676 936 q 746 1008 708 982 q 840 1040 792 1040 l 861 1039 l 863 1019 q 869 979 863 1000 q 884 943 872 972 q 900 894 896 914 q 904 839 904 875 l 901 824 l 899 826 q 863 856 883 847 q 869 813 863 831 q 889 772 882 788 q 908 728 901 747 q 914 685 914 710 q 864 719 893 715 q 900 606 900 665 q 892 557 900 581 q 871 514 885 533 l 874 540 q 851 599 874 578 q 804 621 828 621 l 644 621 l 644 456 q 558 419 599 447 q 508 342 508 383 q 549 257 508 292 q 644 222 589 222 l 644 0 l 314 0 l 314 221 q 413 263 376 232 q 449 338 449 293 q 424 399 449 371 q 314 451 386 440 l 314 624 m 719 799 q 712 849 724 825 q 676 890 700 874 q 681 872 679 878 q 682 860 682 867 q 665 817 682 840 q 624 775 647 793 q 626 788 626 782 q 594 854 626 822 q 525 886 563 886 q 557 828 547 861 q 567 757 567 794 q 558 690 567 722 q 661 749 614 728 q 779 775 722 775 q 788 794 785 782 q 790 817 790 806 q 788 842 790 833 q 779 871 786 851 q 756 824 765 838 q 719 799 742 804 m 629 700 q 606 685 622 694 q 589 672 590 675 q 602 658 589 663 q 628 654 615 654 q 702 681 661 654 q 751 740 743 707 l 696 732 q 658 688 700 688 q 629 700 649 688 m 344 781 q 310 825 324 797 q 297 879 297 853 l 300 901 q 263 851 275 881 q 250 804 250 822 q 210 847 225 824 q 197 899 194 871 q 174 828 174 868 q 185 783 174 801 q 310 749 249 783 q 415 668 351 725 q 397 760 397 714 q 406 828 397 797 q 436 886 415 858 q 385 863 408 881 q 350 818 361 844 q 344 781 344 804 m 365 672 l 335 700 q 303 686 321 686 q 278 696 288 686 q 268 721 268 706 l 271 735 q 244 744 261 740 q 213 750 228 749 q 256 679 213 713 q 333 646 300 646 q 359 653 349 646 q 365 672 369 661 m 589 288 l 593 304 q 708 270 654 297 q 801 193 761 243 l 789 178 q 589 288 710 275 m 578 332 l 578 347 l 618 350 q 720 332 672 350 q 811 281 768 314 l 801 267 q 608 333 718 333 q 578 332 589 333 m 347 388 q 317 393 326 392 q 285 394 307 394 q 150 365 213 394 l 143 381 q 282 413 210 413 q 317 411 304 413 q 351 403 329 410 l 347 388 m 251 915 l 261 922 q 215 997 244 968 q 140 1036 186 1026 l 133 1025 q 206 986 175 1015 q 251 915 238 957 m 842 1014 q 761 989 799 1014 q 693 922 724 964 l 700 915 q 763 976 731 956 q 844 1001 801 1001 l 842 1014 m 594 379 l 590 390 q 654 400 621 400 q 721 392 685 400 q 790 368 757 385 q 788 360 789 364 q 782 354 786 356 q 650 383 721 383 q 594 379 622 383 m 143 261 l 132 274 q 343 357 222 357 l 369 356 l 369 340 q 246 322 301 340 q 143 261 190 303 m 178 172 l 164 186 q 367 310 238 290 l 371 293 q 178 172 251 274 m 567 157 q 541 200 567 183 q 481 217 515 217 q 415 199 442 217 q 388 154 388 181 q 412 110 388 131 q 476 90 436 90 q 533 106 508 90 q 567 157 567 125 m 479 207 q 494 189 494 207 q 479 172 494 172 q 463 189 463 172 q 479 207 463 207 m 431 192 q 449 175 449 192 q 431 160 449 160 q 414 175 414 160 q 431 192 414 192 m 524 192 q 539 175 539 192 q 524 158 539 158 q 508 175 508 158 q 524 192 508 192 z "},"u":{"ha":1060,"x_min":118,"x_max":942,"o":"m 406 936 l 406 656 l 321 778 l 322 772 l 494 456 l 494 461 l 424 688 l 424 693 l 494 551 l 494 572 l 465 850 l 525 497 l 528 504 l 547 778 l 551 526 l 576 628 l 632 858 l 588 549 l 658 729 l 606 567 l 672 672 l 672 660 l 831 906 l 826 904 l 672 692 l 672 936 l 942 936 l 942 240 q 824 46 942 125 q 538 -33 706 -33 q 224 54 344 -33 q 118 229 118 131 l 118 936 l 406 936 m 140 364 l 303 368 l 385 368 l 344 358 l 163 313 l 207 317 l 363 342 l 372 342 l 182 226 l 406 329 l 408 310 l 454 351 l 406 329 l 406 350 l 454 374 l 454 381 l 418 378 l 406 379 l 406 397 l 140 364 m 603 404 l 672 404 l 672 390 l 876 403 l 885 404 l 672 417 l 672 424 l 603 404 m 672 360 l 633 372 l 672 339 l 672 357 l 906 285 l 672 382 l 672 360 m 508 242 l 521 240 l 550 33 l 546 239 l 538 240 l 529 331 l 508 242 m 554 319 l 560 242 l 572 242 l 554 319 m 672 581 l 672 628 l 581 490 l 661 593 l 663 582 l 568 447 l 567 442 l 672 558 l 672 542 l 858 757 l 672 581 m 321 640 l 406 492 l 457 418 q 434 461 444 444 q 406 501 424 478 l 406 532 l 321 640 m 672 506 l 672 536 l 585 442 q 627 466 604 451 q 672 494 650 481 l 672 479 l 875 611 l 885 619 l 672 506 m 406 553 l 494 421 l 406 590 l 406 553 m 672 449 l 672 468 l 590 418 l 672 442 l 672 428 l 894 535 l 907 542 l 672 449 m 165 504 l 424 394 l 432 399 l 406 421 l 165 504 m 518 419 q 532 408 518 408 q 544 419 544 408 q 532 432 544 432 q 518 419 518 432 m 514 372 q 525 358 514 358 q 538 372 538 358 q 525 383 529 383 q 518 380 521 383 q 514 372 515 376 m 553 389 q 565 376 553 376 q 576 389 576 376 q 565 401 576 401 q 553 389 553 401 m 565 358 l 592 247 l 576 242 l 649 25 l 601 247 l 610 253 l 565 358 m 479 250 l 493 246 l 522 338 l 522 344 l 479 250 m 794 85 l 664 299 l 668 306 l 607 344 l 794 85 m 671 313 l 879 174 l 674 335 l 671 313 m 276 567 l 406 435 l 406 469 l 250 600 l 276 567 m 490 344 l 425 282 q 440 264 428 274 l 365 107 l 468 253 l 443 263 q 466 306 454 285 q 490 344 478 326 m 233 121 l 418 282 q 407 310 407 300 l 233 121 m 626 260 l 724 36 l 647 272 l 626 260 m 457 186 l 419 46 l 485 194 l 490 210 l 457 186 z "},"v":{"ha":981,"x_min":7,"x_max":978,"o":"m 478 936 l 599 936 l 601 908 q 574 825 601 858 q 531 799 547 792 q 558 831 550 814 q 565 861 565 849 q 536 853 550 853 q 499 863 514 853 q 474 915 474 879 l 478 936 m 274 936 l 274 906 l 256 903 l 257 892 l 276 894 l 282 863 l 261 856 l 264 844 l 283 850 l 292 818 l 274 810 l 276 801 l 297 807 l 308 779 l 292 768 l 297 757 l 315 768 l 332 743 l 315 732 l 322 722 l 338 733 l 354 711 l 339 699 l 346 692 l 361 704 q 442 576 421 632 q 463 458 463 521 l 460 424 q 470 465 467 439 q 474 519 474 492 q 456 658 474 596 q 393 768 438 721 l 392 776 q 406 792 392 792 q 435 757 429 792 l 433 743 q 483 599 467 660 q 506 438 506 514 q 488 382 506 406 q 444 358 469 358 l 433 360 q 513 326 467 326 q 606 380 567 326 q 646 513 646 433 q 640 608 646 564 q 619 708 633 651 l 607 760 l 622 789 l 647 778 l 651 789 l 625 797 l 633 824 l 660 818 l 663 826 l 635 832 l 640 865 l 667 863 l 667 874 l 640 876 l 640 903 l 667 903 l 667 914 l 640 914 q 636 936 638 929 l 978 936 l 607 0 l 339 0 l 206 376 q 256 521 238 443 q 275 674 275 599 q 250 836 275 757 q 258 740 254 788 q 186 438 258 586 l 178 458 q 211 558 196 499 q 226 679 226 618 q 216 785 226 729 q 189 867 206 842 q 199 824 190 860 q 204 794 203 806 l 207 740 q 157 513 207 628 l 147 540 q 175 708 175 624 q 140 868 175 799 q 143 846 140 860 q 149 811 146 832 q 153 749 153 790 q 129 593 153 668 l 111 642 l 115 722 q 110 800 115 768 q 93 868 106 832 q 97 825 96 839 q 99 783 99 811 q 89 706 99 739 l 7 936 l 274 936 m 524 885 l 524 879 q 558 889 546 876 l 553 894 q 524 885 543 888 m 567 697 q 594 689 583 697 q 606 669 606 681 q 567 644 606 644 q 540 651 551 644 q 529 669 529 658 q 540 689 529 681 q 567 697 551 697 z "},"w":{"ha":1514,"x_min":11,"x_max":1472,"o":"m 665 185 q 706 169 686 181 q 735 129 735 153 q 722 113 735 113 l 694 115 q 634 101 669 115 q 599 68 599 88 q 624 56 599 58 q 678 54 649 54 q 721 46 704 51 q 753 14 753 35 q 747 -4 753 3 q 720 -10 743 -6 q 694 -15 697 -14 q 564 -35 629 -35 q 347 33 433 -35 q 247 261 247 113 l 257 407 q 175 667 257 579 q 22 735 111 735 q 11 793 11 765 q 56 910 11 860 q 190 967 107 967 q 393 865 303 967 q 508 506 508 736 q 519 489 508 489 q 526 497 524 489 q 517 603 517 546 q 583 851 517 750 q 781 964 657 964 q 988 845 903 964 q 1074 550 1074 726 q 1086 547 1083 547 q 1118 642 1100 567 q 1142 824 1142 740 l 1136 915 q 1154 958 1136 942 q 1194 975 1172 975 q 1242 951 1224 975 q 1271 886 1260 926 q 1317 885 1294 886 q 1364 876 1339 885 q 1378 918 1364 906 q 1419 931 1393 931 q 1456 916 1442 931 q 1471 881 1471 901 q 1447 833 1471 850 q 1443 829 1444 831 q 1448 811 1442 828 q 1463 754 1454 794 q 1472 681 1472 714 q 1460 601 1472 639 q 1438 600 1451 600 q 1408 602 1426 600 q 1383 604 1390 604 q 1376 572 1379 588 q 1372 547 1374 557 q 1301 349 1353 439 q 1138 188 1236 235 q 1152 151 1140 169 q 1182 122 1164 133 q 1201 111 1194 115 q 1208 100 1208 107 q 1186 78 1208 90 q 1142 67 1164 67 q 1047 124 1076 67 l 1042 129 q 1039 113 1039 124 q 1061 58 1039 85 q 1138 25 1090 25 q 1146 17 1146 22 q 1122 -24 1146 -6 q 1040 -47 1092 -47 q 900 8 967 -47 q 824 167 824 72 q 833 228 824 200 l 836 282 q 814 422 836 360 q 772 485 792 485 l 768 478 l 771 454 l 774 413 q 749 281 774 339 q 665 185 724 222 m 1313 781 q 1289 817 1313 817 q 1279 814 1283 817 q 1275 800 1275 811 q 1281 777 1275 789 q 1300 765 1286 765 q 1313 781 1313 765 m 1422 758 q 1415 781 1422 769 q 1396 793 1407 793 q 1388 775 1388 790 q 1395 749 1388 760 q 1410 739 1403 739 q 1422 758 1422 739 m 463 628 q 458 662 458 654 q 451 689 457 669 q 331 878 425 808 q 242 924 300 900 l 233 918 q 256 901 233 913 q 289 883 279 890 q 394 771 346 844 q 463 628 436 707 m 401 639 q 332 814 401 739 q 218 878 272 878 q 211 874 215 878 l 214 868 q 330 782 283 840 q 401 639 376 724 m 361 607 q 334 724 361 669 q 254 810 307 778 q 227 824 242 817 q 199 833 213 832 l 193 829 l 196 825 q 299 735 256 793 q 361 607 343 676 m 1199 332 q 1287 464 1253 393 q 1335 614 1321 535 l 1282 633 q 1231 451 1268 532 q 1114 294 1189 363 l 1111 286 q 1126 278 1115 278 q 1166 302 1149 290 q 1199 332 1183 314 z "},"x":{"ha":1210,"x_min":22,"x_max":1192,"o":"m 664 796 q 824 763 754 796 l 836 757 q 849 763 842 757 q 857 776 857 769 q 800 817 857 800 q 711 835 743 835 l 688 833 q 666 841 672 833 q 660 860 660 849 q 698 898 660 883 q 779 913 736 913 q 817 911 804 913 q 838 907 832 907 q 888 940 867 907 q 904 989 904 968 l 903 1021 q 908 1045 903 1038 q 932 1054 914 1053 q 958 1047 947 1054 q 968 1021 968 1039 q 956 999 968 1004 q 924 974 932 988 q 915 951 915 961 q 922 940 915 947 q 926 938 924 939 q 978 966 951 940 q 1006 1006 1006 992 q 1017 1036 1006 1026 q 1042 1046 1028 1046 q 1056 1042 1049 1046 q 1074 1011 1074 1031 q 1067 990 1074 997 q 1007 957 1035 972 q 951 913 951 926 l 954 908 l 1033 919 q 1042 923 1039 921 q 1053 939 1044 925 q 1081 953 1061 953 q 1103 941 1093 953 q 1114 918 1114 929 q 1103 893 1114 903 q 1075 883 1092 883 q 1042 890 1064 883 q 1008 897 1019 897 q 938 878 960 897 q 917 831 917 860 q 940 795 917 814 q 1000 776 964 776 q 1031 780 1010 776 q 1078 789 1051 783 q 1097 786 1090 789 q 1118 760 1118 778 q 1104 733 1118 740 q 1055 713 1083 721 q 999 697 1026 704 q 978 681 988 694 q 961 657 969 668 q 890 596 929 617 q 794 563 851 575 q 771 546 781 558 q 761 517 761 533 q 770 488 761 503 q 788 461 779 474 q 807 405 800 432 q 814 350 814 378 l 822 346 q 831 378 831 346 q 828 409 831 399 q 819 447 826 419 q 843 469 819 469 q 896 452 869 469 q 938 410 922 435 q 969 309 954 385 q 1021 204 985 233 q 1076 161 1049 182 q 1118 106 1106 136 q 1135 94 1122 94 l 1160 99 q 1182 86 1172 99 q 1192 60 1192 74 q 1182 36 1192 47 q 1156 25 1172 25 q 1115 60 1129 25 q 1107 79 1110 75 q 1090 90 1100 90 q 1068 64 1068 90 q 1072 32 1068 44 q 1107 -6 1082 3 q 1135 -12 1125 -8 q 1154 -43 1154 -22 q 1147 -69 1154 -57 q 1121 -82 1140 -82 q 1089 -68 1097 -82 q 1078 -32 1081 -54 q 1042 60 1049 6 q 1036 67 1040 64 q 1026 72 1032 69 q 1014 63 1018 72 q 1010 36 1010 53 q 1014 6 1010 19 q 1026 -26 1018 -8 q 1035 -58 1035 -43 q 1001 -94 1035 -94 q 963 -58 963 -94 q 972 -33 963 -42 q 986 -22 982 -25 q 992 -1 992 -14 q 983 29 992 14 q 954 44 975 44 q 916 31 936 44 q 896 -12 896 18 q 883 -43 896 -33 q 860 -53 871 -53 q 837 -43 850 -53 q 824 -17 824 -33 q 846 18 824 4 q 879 40 876 38 q 939 179 939 96 q 886 326 939 258 q 864 281 878 297 q 831 265 850 265 q 788 289 806 265 q 778 308 783 294 q 768 342 774 321 q 735 374 757 374 q 719 361 719 374 q 725 341 719 349 q 743 322 731 333 q 771 271 771 299 q 760 237 771 253 q 731 210 749 221 q 695 201 722 206 q 664 182 668 196 q 636 106 657 128 q 604 90 621 90 q 556 119 572 90 q 543 154 549 129 q 501 214 533 199 q 453 226 482 224 q 417 247 425 228 l 413 268 q 425 310 413 293 q 450 331 432 318 q 475 350 468 343 l 476 357 q 467 368 476 368 q 414 333 443 368 q 385 261 385 299 q 364 250 378 250 q 341 270 347 250 q 313 290 335 290 q 289 231 303 281 q 275 167 275 182 q 293 129 275 142 q 336 117 311 117 l 382 119 q 408 115 400 119 q 426 81 426 106 q 388 42 426 42 q 360 53 371 42 q 349 81 349 64 q 321 88 335 88 q 293 72 301 88 q 288 56 290 68 q 292 38 288 44 q 317 3 307 11 q 359 -23 335 -14 q 383 -58 383 -32 q 372 -87 383 -74 q 340 -100 360 -100 q 317 -90 328 -100 q 306 -68 306 -81 q 271 8 306 -31 q 229 40 242 40 q 211 18 211 40 l 214 -6 q 228 -40 215 -12 q 240 -83 240 -68 q 204 -124 240 -124 q 182 -117 193 -124 q 164 -90 164 -104 q 193 -47 164 -64 q 188 -8 193 -26 q 174 38 183 11 q 144 51 161 51 q 118 42 129 51 q 97 18 107 33 q 85 -5 94 4 q 63 -14 76 -14 q 34 -3 46 -14 q 22 24 22 7 q 29 49 22 38 q 51 62 36 60 q 72 67 65 64 q 197 188 149 107 q 261 346 235 249 q 293 440 261 407 q 349 465 318 465 q 363 454 363 465 l 360 447 q 338 386 343 421 q 342 378 338 381 q 351 374 346 375 q 360 382 357 374 q 389 456 367 421 q 446 513 411 492 q 459 522 453 517 q 465 538 465 528 q 435 578 465 560 q 360 596 404 596 q 303 633 326 607 q 276 693 279 660 q 271 695 275 694 q 261 697 267 696 l 226 686 l 194 682 q 153 696 167 682 q 139 724 139 710 q 165 759 139 751 q 228 767 192 767 q 243 774 240 771 q 247 796 238 789 q 303 813 267 811 q 374 818 340 815 l 376 824 q 336 854 376 835 q 228 879 285 879 q 173 873 194 879 q 131 847 151 867 l 133 833 q 100 801 133 801 q 78 810 88 801 q 68 831 68 818 q 101 874 68 856 q 167 893 135 893 l 222 894 q 235 903 235 894 q 224 913 235 911 q 192 915 214 915 q 151 913 175 915 q 108 908 128 910 q 94 913 101 908 q 79 940 79 922 q 88 964 79 954 q 108 974 96 974 q 140 960 133 974 q 143 942 143 954 q 150 934 143 935 q 193 931 157 933 q 246 925 229 928 q 258 936 258 925 q 233 954 254 950 q 199 960 213 958 q 163 965 185 961 q 135 988 140 969 l 133 997 q 144 1019 133 1011 q 165 1028 156 1028 q 195 1008 190 1028 q 219 977 200 988 q 281 960 238 967 q 342 940 324 953 q 416 895 394 903 q 482 888 438 888 q 519 893 494 888 q 554 899 544 899 q 585 892 574 899 q 596 865 596 885 l 594 854 q 556 829 588 838 q 519 818 524 821 q 446 781 468 797 q 424 749 424 764 q 450 726 424 726 q 549 778 494 761 q 664 796 603 796 m 649 729 l 649 722 q 624 674 649 701 q 596 635 600 647 l 594 625 q 601 606 594 615 q 614 588 607 596 l 617 572 q 597 531 617 557 q 576 489 576 506 q 587 466 576 476 q 597 436 597 456 q 589 411 597 428 q 581 379 581 394 q 592 347 581 357 q 617 338 604 338 q 606 374 606 357 q 617 408 606 390 q 639 443 628 426 l 643 458 q 633 483 643 471 q 624 507 624 496 q 636 542 624 517 q 649 569 649 560 q 641 596 649 576 q 633 624 633 615 q 644 651 633 632 q 652 667 649 658 q 656 694 656 676 q 649 729 656 711 m 486 472 q 507 419 488 460 q 515 389 515 401 l 513 374 q 526 413 526 388 l 519 472 q 531 500 519 485 q 556 546 556 535 q 549 567 556 553 l 547 546 q 515 512 544 528 q 486 472 486 496 m 689 415 l 696 414 q 713 426 707 414 q 719 454 719 439 q 690 515 719 493 q 703 494 701 504 q 706 476 706 483 q 702 448 706 460 q 689 415 699 436 m 504 324 q 471 311 485 324 q 457 279 457 299 q 471 246 457 260 q 504 232 485 232 q 538 244 524 232 q 551 279 551 257 q 538 310 551 296 q 504 324 524 324 m 696 317 q 664 304 678 317 q 650 272 650 292 q 663 238 650 251 q 696 225 676 225 q 730 238 717 225 q 743 272 743 251 q 729 304 743 292 q 696 317 715 317 m 325 742 q 340 721 325 721 q 352 727 349 721 q 356 750 356 733 q 342 767 356 767 q 325 742 325 767 m 960 739 q 939 753 960 753 q 919 738 919 753 q 939 725 919 725 q 960 739 960 725 m 458 690 q 403 664 438 674 l 401 657 q 417 647 401 647 q 453 660 442 647 q 464 683 464 672 l 458 690 m 824 644 q 847 656 839 644 q 856 686 856 667 q 846 706 856 699 q 838 682 844 693 q 819 661 831 671 q 815 653 817 656 q 814 650 814 651 l 824 644 m 500 285 q 519 265 519 285 q 500 243 519 243 q 476 265 476 243 q 483 279 476 274 q 500 285 490 285 m 700 279 q 722 258 722 279 q 700 236 722 236 q 678 258 678 236 q 700 279 678 279 z "},"y":{"ha":983,"x_min":13,"x_max":967,"o":"m 649 381 l 649 194 q 675 183 667 194 q 683 150 683 171 q 657 58 683 125 q 643 0 643 24 l 511 0 q 475 17 493 8 l 467 15 q 450 7 464 14 q 424 0 436 0 l 317 0 l 318 13 q 301 74 318 33 q 285 133 285 114 q 297 170 285 156 q 322 185 308 185 l 322 386 q 303 425 322 407 q 268 453 278 443 q 182 632 182 536 q 169 669 182 650 q 136 688 157 688 q 103 678 121 688 q 79 649 86 668 q 58 629 72 629 q 42 645 49 629 q 35 678 35 661 q 40 702 35 690 q 67 750 46 714 q 83 797 83 779 l 79 818 l 13 936 l 118 936 q 110 1001 110 968 q 162 1151 110 1082 q 289 1221 214 1221 q 219 1167 243 1196 q 176 1040 176 1115 q 183 981 176 1006 q 204 936 190 957 l 371 936 l 476 732 l 578 936 l 771 936 q 800 1044 800 985 q 774 1146 800 1101 q 697 1219 747 1190 q 797 1164 746 1214 q 864 1008 864 1099 q 861 973 864 989 q 854 936 858 957 l 967 936 l 894 814 q 894 790 892 807 q 924 732 908 763 q 940 679 940 701 q 931 646 940 661 q 915 631 922 631 l 911 632 q 878 676 894 654 q 839 692 863 692 q 804 672 814 692 q 783 596 794 651 q 736 493 771 540 q 658 414 707 454 q 649 381 649 406 m 292 601 q 324 540 292 575 q 388 506 356 506 q 378 561 392 536 l 357 556 q 335 565 346 556 q 325 589 325 574 q 332 610 325 600 q 301 621 307 621 q 292 601 292 621 m 336 118 q 351 82 336 103 q 383 57 365 61 q 390 68 386 58 q 374 106 390 83 q 344 129 358 129 q 336 118 336 129 m 576 71 q 588 58 576 58 q 600 67 596 64 q 631 124 631 90 l 625 128 q 594 108 611 128 q 576 71 576 88 m 204 936 l 118 936 q 194 832 138 879 q 281 789 247 789 q 314 824 314 789 q 306 843 314 835 q 256 878 278 860 q 204 936 228 901 m 644 615 q 651 594 651 606 q 642 572 651 582 q 618 563 632 563 q 599 569 606 563 q 588 529 588 551 l 592 508 q 658 549 626 513 q 689 611 689 586 q 675 626 689 626 l 644 615 m 854 936 l 771 936 q 683 857 733 881 q 661 826 661 846 q 694 785 661 785 q 775 828 722 785 q 854 936 838 879 z "},"z":{"ha":1032,"x_min":85,"x_max":940,"o":"m 940 0 l 642 0 q 614 -4 628 0 q 593 -10 600 -8 q 551 -21 563 -21 q 528 -4 528 -21 q 558 29 531 14 q 653 85 647 79 q 725 194 708 133 q 749 226 732 213 q 767 247 767 239 q 599 194 661 233 q 419 0 497 131 l 228 0 l 192 -11 q 169 -18 183 -14 q 143 -22 154 -22 q 128 -16 136 -22 q 121 -1 121 -10 q 130 31 126 15 q 133 58 133 47 q 103 119 133 94 q 89 156 89 133 q 139 246 89 207 q 231 286 181 278 q 304 432 264 376 q 432 539 358 507 q 450 576 450 546 q 435 608 450 599 q 393 622 421 617 q 319 642 343 633 q 269 665 294 651 q 242 644 257 664 q 213 625 226 625 q 185 638 197 625 q 146 672 151 671 q 96 703 107 693 q 85 731 85 714 q 113 778 85 761 q 160 788 136 782 q 151 810 154 797 q 147 836 147 824 q 119 849 128 843 q 92 897 92 868 q 112 939 92 925 q 154 953 132 953 l 165 951 q 215 929 186 949 q 267 899 251 904 q 323 922 300 914 q 374 931 346 931 l 407 928 q 424 964 424 928 q 424 976 424 969 q 450 989 428 989 q 470 985 460 989 q 497 974 481 982 q 522 964 514 967 q 542 961 529 961 q 576 966 557 961 q 604 978 596 971 q 666 1047 639 1019 q 711 1074 693 1074 q 721 1068 719 1074 q 724 1057 722 1063 q 718 1024 724 1036 q 697 989 713 1013 q 700 983 699 986 q 708 979 701 979 q 728 988 719 979 q 763 1021 751 1011 q 808 1046 785 1040 q 849 1060 831 1051 q 886 1093 872 1072 q 892 1088 890 1093 q 894 1075 893 1082 q 888 1051 894 1063 q 878 1032 882 1039 q 842 983 860 1008 q 824 932 824 957 q 839 936 832 932 q 853 944 846 940 l 857 928 q 844 892 857 911 l 839 878 q 853 875 843 875 q 876 875 863 875 q 849 818 883 856 q 887 794 874 807 q 900 769 900 781 q 871 763 883 768 q 844 746 858 758 q 864 708 857 729 q 876 660 871 688 q 858 658 865 658 q 831 663 843 658 l 835 640 l 839 590 q 835 554 839 565 q 815 558 824 554 q 799 564 806 561 q 804 519 804 539 q 790 460 804 478 q 769 471 782 461 q 744 483 756 481 q 754 445 751 464 q 757 414 757 426 q 753 383 757 392 q 727 385 750 383 q 700 386 704 386 l 703 358 q 701 331 703 344 q 686 296 699 318 l 940 296 l 940 0 m 557 758 q 600 856 600 794 q 583 910 600 888 q 539 928 567 932 q 556 886 556 908 q 548 860 556 871 q 529 850 540 850 q 494 866 508 850 q 479 918 479 882 q 449 908 467 910 q 432 893 432 906 l 433 885 q 467 849 442 861 q 518 828 493 838 q 540 812 536 818 q 543 790 543 806 q 513 717 543 754 q 453 664 494 694 l 450 657 q 464 650 457 650 q 517 668 490 650 q 590 750 553 693 l 578 749 q 557 758 561 749 m 767 757 q 758 785 767 772 q 742 807 749 797 q 762 839 754 818 q 769 878 769 860 q 742 911 769 911 q 718 890 718 911 l 724 828 q 714 774 724 797 q 640 692 696 729 q 546 632 593 661 q 527 619 532 624 q 519 604 522 614 l 522 600 l 529 603 q 644 678 590 657 q 683 689 656 682 q 719 699 710 696 q 754 721 742 707 q 767 757 767 735 m 356 671 q 371 654 356 654 q 394 664 385 654 l 464 733 q 474 753 472 742 q 476 768 476 765 q 433 832 476 794 q 382 892 389 869 q 349 881 376 888 q 318 854 322 874 q 356 835 329 844 q 417 817 383 826 q 453 792 440 807 q 461 767 461 781 l 457 746 q 431 726 450 733 q 389 711 413 719 q 356 671 356 693 m 674 890 q 665 934 674 915 q 638 953 657 953 q 618 946 628 953 q 608 932 608 939 l 611 928 q 644 906 628 924 q 671 869 661 888 l 674 890 m 226 869 q 212 902 226 889 q 181 915 197 915 q 167 904 167 915 q 174 894 171 896 q 201 884 194 888 q 219 868 207 881 l 224 864 l 226 869 m 508 881 q 528 867 518 867 q 542 881 542 867 q 535 894 542 888 q 523 883 529 885 q 508 881 517 882 m 174 708 l 197 729 q 226 745 201 732 q 253 768 250 758 l 254 776 q 251 788 254 783 q 242 797 247 792 q 236 792 238 797 q 233 779 235 786 q 218 760 233 768 q 186 740 192 746 q 171 719 171 731 l 174 708 m 728 626 q 704 619 718 621 q 606 599 656 610 q 519 565 556 588 q 480 527 493 549 q 467 496 467 506 l 469 490 l 481 496 q 517 521 508 515 q 563 543 539 536 q 633 558 579 550 q 692 569 686 567 q 728 626 728 581 m 699 483 q 696 492 697 489 q 668 500 689 500 q 583 478 626 500 q 506 431 574 472 q 465 409 489 418 q 424 400 442 400 q 385 410 403 400 q 365 439 367 419 q 343 398 353 421 q 333 354 333 375 q 346 323 333 331 q 382 315 358 315 q 465 349 422 315 q 546 417 507 383 q 609 456 572 442 q 690 476 646 469 q 696 481 694 479 q 699 483 697 482 m 451 201 q 530 247 469 219 q 610 310 590 274 q 622 342 615 321 q 629 376 629 363 l 610 364 q 519 325 588 349 q 422 272 451 301 q 379 232 400 256 q 314 158 318 163 l 311 172 l 315 214 q 307 254 315 233 q 281 321 293 288 q 258 258 258 294 q 265 208 258 236 q 282 122 282 140 l 279 97 q 372 133 325 96 q 451 201 411 167 m 375 783 q 319 801 344 790 l 311 804 q 301 794 301 804 l 303 788 q 315 768 311 776 q 318 749 318 760 l 314 732 l 304 717 q 313 708 304 707 q 335 726 318 715 q 360 742 351 738 q 377 753 368 747 q 386 769 386 758 q 375 783 386 781 z "},"{":{"ha":414,"x_min":31,"x_max":381,"o":"m 31 415 l 31 521 q 119 553 94 521 q 136 615 136 574 q 133 676 136 636 q 129 724 129 715 q 124 782 126 753 q 121 833 121 811 q 176 975 121 929 q 332 1021 231 1021 l 381 1021 l 381 903 l 356 903 q 291 877 311 903 q 271 804 271 851 q 272 770 271 782 q 277 725 274 758 q 283 671 281 692 q 285 631 285 650 q 256 519 285 557 q 167 469 226 482 q 256 419 226 456 q 285 306 285 382 q 282 247 285 271 q 278 208 279 222 q 271 131 271 163 q 290 56 271 82 q 356 31 310 31 l 381 31 l 381 -86 l 331 -86 q 179 -44 231 -86 q 121 103 121 3 q 124 157 121 124 q 129 213 126 190 q 133 278 129 239 q 136 321 136 317 q 108 394 136 372 q 31 415 81 415 z "},"|":{"ha":371,"x_min":111,"x_max":258,"o":"m 111 1042 l 258 1042 l 258 -347 l 111 -347 l 111 1042 z "},"}":{"ha":414,"x_min":33,"x_max":383,"o":"m 383 521 l 383 415 q 294 382 319 415 q 278 321 278 360 q 281 269 278 299 q 286 213 283 239 q 290 149 286 189 q 293 103 293 110 q 235 -43 293 4 q 83 -86 182 -86 l 33 -86 l 33 31 l 58 31 q 124 56 106 31 q 143 131 143 81 q 142 165 143 153 q 137 203 140 176 q 133 242 133 231 q 129 306 129 289 q 158 417 129 381 q 247 467 188 454 q 158 519 188 482 q 129 631 129 556 q 132 689 129 665 q 136 726 135 713 q 143 804 143 772 q 124 878 143 853 q 58 903 104 903 l 33 903 l 33 1021 l 82 1021 q 238 975 182 1021 q 293 833 293 929 q 290 773 293 813 q 286 724 286 733 q 281 667 283 696 q 278 615 278 638 q 294 553 278 575 q 383 521 319 521 z "},"~":{"ha":806,"x_min":49,"x_max":757,"o":"m 181 268 l 49 268 q 103 467 49 401 q 242 526 153 526 q 335 510 289 526 q 436 460 371 497 q 516 419 485 433 q 569 406 547 406 q 610 431 596 406 q 625 518 625 457 l 757 518 q 704 314 757 379 q 572 257 658 257 q 483 272 524 257 q 378 324 442 286 q 318 357 333 349 q 246 381 274 381 q 200 358 215 381 q 181 268 181 331 z "},"":{"ha":339,"x_min":11,"x_max":306,"o":"m 139 -133 l 11 -144 q 69 44 43 -54 q 108 231 94 142 l 306 243 q 139 -133 239 32 z "},"":{"ha":749,"x_min":26,"x_max":694,"o":"m 147 425 l 147 571 l 274 571 l 279 617 q 343 801 293 728 q 579 918 424 918 q 694 896 653 918 l 661 746 q 636 754 653 750 q 596 758 619 758 q 519 724 547 758 q 485 632 492 690 l 476 571 l 618 571 l 618 425 l 460 425 l 428 176 q 357 -39 410 31 q 153 -126 290 -126 q 80 -120 111 -126 q 26 -103 49 -114 l 57 44 q 122 32 86 32 q 197 72 174 32 q 235 231 219 111 l 257 425 l 147 425 z "},"":{"ha":615,"x_min":10,"x_max":576,"o":"m 138 -133 l 10 -144 q 107 231 76 39 l 304 243 q 138 -133 238 32 m 410 -133 l 282 -144 q 340 44 314 -54 q 379 231 365 142 l 576 243 q 410 -133 513 39 z "},"":{"ha":1389,"x_min":107,"x_max":1281,"o":"m 231 -15 q 142 21 176 -15 q 107 113 107 57 q 142 206 107 169 q 232 242 176 242 q 322 206 288 242 q 356 113 356 171 q 322 20 356 56 q 231 -15 288 -15 m 693 -15 q 604 21 639 -15 q 569 113 569 57 q 604 206 569 169 q 694 242 639 242 q 784 206 750 242 q 818 113 818 171 q 784 20 818 56 q 693 -15 750 -15 m 1156 -15 q 1067 21 1101 -15 q 1032 113 1032 57 q 1067 206 1032 169 q 1157 242 1101 242 q 1247 206 1213 242 q 1281 113 1281 171 q 1247 20 1281 56 q 1156 -15 1213 -15 z "},"":{"ha":706,"x_min":36,"x_max":668,"o":"m 256 936 l 449 936 l 429 657 l 668 674 l 668 510 l 429 528 l 449 -69 l 256 -69 l 275 528 l 36 510 l 36 674 l 275 657 l 256 936 z "},"":{"ha":706,"x_min":36,"x_max":668,"o":"m 258 936 l 446 936 l 432 676 l 668 694 l 668 531 l 432 546 l 432 329 l 668 346 l 668 182 l 432 199 l 447 -69 l 258 -69 l 272 199 l 36 182 l 36 346 l 272 329 l 272 546 l 36 531 l 36 694 l 272 676 l 258 936 z "},"":{"ha":417,"x_min":-8,"x_max":425,"o":"m 133 1224 l 283 1224 l 425 1049 l 278 1049 l 210 1140 l 138 1049 l -8 1049 l 133 1224 z "},"":{"ha":1763,"x_min":26,"x_max":1733,"o":"m 279 918 q 457 843 392 918 q 522 650 522 768 q 447 436 522 515 q 272 363 378 363 q 96 436 165 363 q 26 635 26 510 q 96 838 26 758 q 279 918 165 918 m 276 803 q 208 758 231 803 q 185 640 185 713 q 209 523 185 568 q 278 478 233 478 q 367 640 367 478 q 347 756 367 717 q 276 803 324 803 m 929 543 q 1107 468 1042 543 q 1172 275 1172 393 q 1097 61 1172 140 q 922 -12 1028 -12 q 747 61 817 -12 q 678 260 678 135 q 747 463 678 382 q 929 543 817 543 m 928 428 q 859 383 882 428 q 836 265 836 338 q 859 147 836 190 q 928 103 882 103 q 1017 265 1017 103 q 996 384 1017 340 q 928 428 975 428 m 1490 543 q 1668 468 1603 543 q 1733 275 1733 393 q 1658 61 1733 140 q 1483 -12 1589 -12 q 1307 61 1376 -12 q 1238 260 1238 135 q 1307 463 1238 383 q 1490 543 1376 543 m 1488 428 q 1419 383 1442 428 q 1396 265 1396 338 q 1420 148 1396 193 q 1489 103 1444 103 q 1578 265 1578 103 q 1558 381 1578 342 q 1488 428 1535 428 m 396 -15 l 282 -15 l 801 917 l 914 917 l 396 -15 z "},"":{"ha":868,"x_min":71,"x_max":824,"o":"m 146 69 l 121 99 q 78 89 93 101 l 74 88 l 71 94 q 75 113 71 104 q 97 129 79 121 q 76 210 76 165 q 121 322 76 274 q 228 371 165 371 q 328 332 285 371 q 371 231 371 293 q 340 153 371 185 q 268 122 308 122 q 203 149 229 122 q 178 210 178 176 q 185 247 178 231 q 203 268 192 264 l 197 232 q 215 186 197 210 q 222 219 215 207 q 232 208 231 211 q 279 186 250 186 q 258 214 261 200 q 291 222 279 213 q 303 246 303 232 q 285 267 303 267 q 257 253 272 267 l 251 256 l 253 267 q 243 293 253 285 q 222 301 233 301 q 176 279 199 301 q 150 211 150 251 q 194 122 150 157 q 310 88 238 88 q 457 142 401 88 q 506 249 506 189 q 453 361 506 319 q 371 393 413 393 q 346 379 346 393 q 351 364 350 368 l 343 360 q 324 369 333 360 q 319 378 322 371 q 313 405 317 385 q 293 425 308 425 q 281 418 283 421 q 276 404 278 415 q 274 392 275 393 q 261 397 265 394 q 247 425 247 408 q 254 453 247 436 q 233 474 249 474 q 210 454 219 474 q 222 440 222 451 q 204 421 222 421 q 191 431 197 421 q 185 450 185 442 q 192 474 185 463 q 210 496 199 486 l 213 513 q 207 531 213 525 q 196 536 201 536 q 172 524 179 536 q 185 503 185 518 q 163 483 185 483 q 147 493 153 483 q 142 514 142 503 q 154 543 142 531 q 185 594 185 571 q 163 626 185 626 q 143 619 153 626 q 136 611 140 618 q 144 601 143 606 l 147 588 q 125 568 147 568 q 108 578 111 568 q 104 603 104 589 q 113 633 107 622 q 135 655 118 644 q 172 676 153 665 q 193 714 189 689 q 164 742 193 742 q 142 736 151 742 q 146 719 146 729 q 125 697 146 697 q 100 724 100 697 q 128 762 100 749 q 183 775 157 775 q 203 788 199 783 q 217 822 217 800 q 206 840 217 835 q 188 844 194 846 l 192 828 q 186 810 192 819 q 165 800 181 800 q 138 826 138 800 q 158 858 138 842 q 207 875 179 875 l 229 871 q 250 879 243 876 q 271 907 271 890 q 257 928 271 918 q 250 931 256 929 q 240 910 247 915 q 229 903 233 904 q 222 901 225 901 q 201 910 210 901 q 192 931 192 919 q 205 955 192 946 q 240 964 218 964 q 263 960 253 964 q 287 949 274 957 q 313 933 300 940 q 340 926 326 926 q 371 933 360 926 q 382 957 382 939 q 363 994 382 968 q 335 975 354 975 q 318 981 324 975 q 308 1001 313 988 q 344 1032 308 1032 q 376 1021 361 1032 q 401 994 392 1010 q 413 967 408 978 q 431 951 418 957 l 454 947 q 491 963 474 947 q 508 1013 508 979 l 490 1008 q 476 1013 479 1008 q 469 1024 472 1017 q 489 1053 469 1053 q 531 1024 519 1053 q 538 965 538 1004 q 557 930 544 944 q 589 915 569 915 q 623 925 610 915 q 636 958 636 935 q 633 965 636 961 l 624 961 q 597 982 597 961 q 621 1001 597 1001 q 650 987 642 1001 q 658 953 658 972 q 643 904 658 933 q 671 865 660 892 q 683 818 678 847 q 720 770 694 790 q 774 750 746 750 q 806 768 788 768 l 824 761 l 792 672 l 683 708 q 665 696 678 696 q 637 704 651 696 q 608 721 622 713 q 544 746 574 738 q 481 754 515 754 q 431 734 450 754 q 413 685 413 714 q 425 650 413 667 q 449 628 438 633 q 498 622 461 624 q 547 617 535 621 q 710 528 639 600 q 790 332 790 444 q 704 118 790 208 q 461 -17 608 17 q 433 -40 447 -21 q 410 -21 415 -40 l 369 -22 l 328 -21 q 304 -40 317 -21 q 288 -12 293 -37 q 244 3 265 -4 q 225 -4 232 3 l 204 -25 q 194 -7 194 -25 q 206 24 194 1 q 178 33 196 33 q 156 31 163 33 q 129 14 150 29 q 118 31 118 18 q 126 52 118 43 q 146 69 133 61 m 324 553 q 403 529 375 553 q 424 493 424 511 l 447 496 q 506 476 478 496 q 526 424 533 456 q 568 401 556 413 q 586 361 586 385 q 575 328 586 342 q 588 285 588 310 q 564 243 588 261 q 572 211 569 222 q 574 197 574 200 q 560 156 574 172 q 519 128 547 140 q 578 146 556 128 q 607 196 607 169 q 603 214 607 201 q 599 233 599 226 q 613 253 599 246 q 635 267 628 260 q 647 299 647 278 q 638 324 647 311 q 615 360 615 351 l 617 368 q 626 408 626 386 q 610 453 626 436 q 560 469 593 469 l 542 468 q 526 515 549 493 q 461 536 503 536 l 433 533 q 425 547 428 536 q 419 563 422 558 q 394 581 411 576 q 354 586 378 586 q 349 590 351 588 q 347 593 347 592 l 349 611 q 340 651 349 633 q 312 673 331 669 q 293 690 293 676 q 307 719 293 704 q 325 740 321 733 q 335 763 335 756 q 328 782 335 772 l 324 758 q 296 727 318 743 q 268 697 274 711 l 267 690 q 285 670 267 679 q 308 653 303 661 q 329 588 329 625 q 324 553 329 568 m 601 831 q 594 851 601 842 q 563 869 582 869 l 550 867 q 560 843 550 854 l 567 844 q 579 831 579 844 q 567 818 579 818 l 557 822 q 539 797 539 814 q 561 790 546 790 q 591 801 581 790 q 601 831 601 813 m 279 819 q 268 808 268 819 q 279 797 268 797 q 290 808 290 797 q 279 819 290 819 m 289 308 q 282 305 285 308 q 279 300 279 301 q 289 292 279 292 q 297 300 297 297 l 289 308 m 481 111 q 469 99 469 111 q 481 86 469 86 q 493 99 493 86 q 481 111 493 111 m 511 1076 l 358 1076 l 218 1251 l 363 1251 l 433 1158 l 507 1251 l 651 1251 l 511 1076 z "},"":{"ha":353,"x_min":25,"x_max":333,"o":"m 333 615 l 167 350 l 333 86 l 186 86 l 25 350 l 186 615 l 333 615 z "},"":{"ha":1278,"x_min":38,"x_max":1235,"o":"m 1235 174 l 1235 0 l 707 0 q 665 -3 692 0 q 615 -9 638 -7 q 563 -13 593 -11 q 507 -15 533 -15 q 153 126 279 -15 q 38 460 38 256 q 167 817 38 683 q 511 951 297 951 q 578 949 543 951 q 636 943 613 946 q 678 941 658 943 q 724 936 697 939 l 1215 936 l 1215 763 l 850 763 l 850 568 l 1194 568 l 1194 396 l 850 396 l 850 174 l 1235 174 m 639 169 l 639 764 q 529 783 597 783 q 340 703 414 783 q 261 468 261 617 q 336 240 261 326 q 544 153 411 153 q 639 169 603 153 z "},"":{"ha":339,"x_min":26,"x_max":321,"o":"m 224 586 l 26 574 q 193 950 93 785 l 321 961 q 263 773 289 871 q 224 586 238 675 z "},"":{"ha":339,"x_min":25,"x_max":319,"o":"m 122 949 l 319 961 q 244 762 286 857 q 153 586 201 667 l 25 574 q 83 763 57 667 q 122 949 108 858 z "},"":{"ha":608,"x_min":24,"x_max":590,"o":"m 221 586 l 24 574 q 190 950 88 778 l 318 961 q 260 773 286 871 q 221 586 235 675 m 493 586 l 296 574 q 463 950 363 785 l 590 961 q 493 586 524 778 z "},"":{"ha":608,"x_min":22,"x_max":589,"o":"m 119 949 l 317 961 q 241 762 283 857 q 150 586 199 667 l 22 574 q 119 949 89 760 m 392 949 l 589 961 q 422 586 522 753 l 294 574 q 352 763 326 667 q 392 949 378 858 z "},"":{"ha":447,"x_min":43,"x_max":404,"o":"m 224 296 q 96 347 149 296 q 43 476 43 399 q 96 606 43 553 q 224 658 149 658 q 352 606 300 658 q 404 476 404 554 q 352 348 404 400 q 224 296 300 296 z "},"":{"ha":694,"x_min":42,"x_max":653,"o":"m 42 418 l 653 418 l 653 288 l 42 288 l 42 418 z "},"":{"ha":1389,"x_min":42,"x_max":1347,"o":"m 42 418 l 1347 418 l 1347 288 l 42 288 l 42 418 z "},"":{"ha":417,"x_min":14,"x_max":404,"o":"m 110 1049 l 14 1049 q 42 1178 14 1135 q 119 1221 69 1221 q 167 1213 146 1221 q 210 1193 189 1206 q 246 1174 231 1181 q 272 1167 261 1167 q 298 1178 290 1167 q 310 1226 306 1190 l 404 1226 q 294 1057 404 1057 q 249 1063 265 1057 q 204 1083 232 1068 q 172 1101 188 1092 q 143 1108 157 1108 q 110 1049 110 1108 z "},"":{"ha":1182,"x_min":11,"x_max":1132,"o":"m 11 936 l 454 936 l 454 825 l 299 825 l 299 385 l 164 385 l 164 825 l 11 825 l 11 936 m 1132 385 l 1000 385 l 988 647 l 983 835 q 929 647 956 740 l 849 394 l 744 394 l 674 651 l 629 835 l 622 650 l 608 385 l 486 385 l 524 936 l 708 936 l 769 721 q 789 644 778 692 q 808 563 806 572 q 835 651 819 597 q 856 722 850 706 l 922 936 l 1096 936 l 1132 385 z "},"":{"ha":868,"x_min":71,"x_max":824,"o":"m 146 69 l 121 99 q 78 89 93 101 l 74 88 l 71 94 q 75 113 71 104 q 97 129 79 121 q 76 210 76 165 q 121 322 76 274 q 228 371 165 371 q 328 332 285 371 q 371 231 371 293 q 340 153 371 185 q 268 122 308 122 q 203 149 229 122 q 178 210 178 176 q 185 247 178 231 q 203 268 192 264 l 197 232 q 215 186 197 210 q 222 219 215 207 q 232 208 231 211 q 279 186 250 186 q 258 214 261 200 q 291 222 279 213 q 303 246 303 232 q 285 267 303 267 q 257 253 272 267 l 251 256 l 253 267 q 243 293 253 285 q 222 301 233 301 q 176 279 199 301 q 150 211 150 251 q 194 122 150 157 q 310 88 238 88 q 457 142 401 88 q 506 249 506 189 q 453 361 506 319 q 371 393 413 393 q 346 379 346 393 q 351 364 350 368 l 343 360 q 324 369 333 360 q 319 378 322 371 q 313 405 317 385 q 293 425 308 425 q 281 418 283 421 q 276 404 278 415 q 274 392 275 393 q 261 397 265 394 q 247 425 247 408 q 254 453 247 436 q 233 474 249 474 q 210 454 219 474 q 222 440 222 451 q 204 421 222 421 q 191 431 197 421 q 185 450 185 442 q 192 474 185 463 q 210 496 199 486 l 213 513 q 207 531 213 525 q 196 536 201 536 q 172 524 179 536 q 185 503 185 518 q 163 483 185 483 q 147 493 153 483 q 142 514 142 503 q 154 543 142 531 q 185 594 185 571 q 163 626 185 626 q 143 619 153 626 q 136 611 140 618 q 144 601 143 606 l 147 588 q 125 568 147 568 q 108 578 111 568 q 104 603 104 589 q 113 633 107 622 q 135 655 118 644 q 172 676 153 665 q 193 714 189 689 q 164 742 193 742 q 142 736 151 742 q 146 719 146 729 q 125 697 146 697 q 100 724 100 697 q 128 762 100 749 q 183 775 157 775 q 203 788 199 783 q 217 822 217 800 q 206 840 217 835 q 188 844 194 846 l 192 828 q 186 810 192 819 q 165 800 181 800 q 138 826 138 800 q 158 858 138 842 q 207 875 179 875 l 229 871 q 250 879 243 876 q 271 907 271 890 q 257 928 271 918 q 250 931 256 929 q 240 910 247 915 q 229 903 233 904 q 222 901 225 901 q 201 910 210 901 q 192 931 192 919 q 205 955 192 946 q 240 964 218 964 q 263 960 253 964 q 287 949 274 957 q 313 933 300 940 q 340 926 326 926 q 371 933 360 926 q 382 957 382 939 q 363 994 382 968 q 335 975 354 975 q 318 981 324 975 q 308 1001 313 988 q 344 1032 308 1032 q 376 1021 361 1032 q 401 994 392 1010 q 413 967 408 978 q 431 951 418 957 l 454 947 q 491 963 474 947 q 508 1013 508 979 l 490 1008 q 476 1013 479 1008 q 469 1024 472 1017 q 489 1053 469 1053 q 531 1024 519 1053 q 538 965 538 1004 q 557 930 544 944 q 589 915 569 915 q 623 925 610 915 q 636 958 636 935 q 633 965 636 961 l 624 961 q 597 982 597 961 q 621 1001 597 1001 q 650 987 642 1001 q 658 953 658 972 q 643 904 658 933 q 671 865 660 892 q 683 818 678 847 q 720 770 694 790 q 774 750 746 750 q 806 768 788 768 l 824 761 l 792 672 l 683 708 q 665 696 678 696 q 637 704 651 696 q 608 721 622 713 q 544 746 574 738 q 481 754 515 754 q 431 734 450 754 q 413 685 413 714 q 425 650 413 667 q 449 628 438 633 q 498 622 461 624 q 547 617 535 621 q 710 528 639 600 q 790 332 790 444 q 704 118 790 208 q 461 -17 608 17 q 433 -40 447 -21 q 410 -21 415 -40 l 369 -22 l 328 -21 q 304 -40 317 -21 q 288 -12 293 -37 q 244 3 265 -4 q 225 -4 232 3 l 204 -25 q 194 -7 194 -25 q 206 24 194 1 q 178 33 196 33 q 156 31 163 33 q 129 14 150 29 q 118 31 118 18 q 126 52 118 43 q 146 69 133 61 m 324 553 q 403 529 375 553 q 424 493 424 511 l 447 496 q 506 476 478 496 q 526 424 533 456 q 568 401 556 413 q 586 361 586 385 q 575 328 586 342 q 588 285 588 310 q 564 243 588 261 q 572 211 569 222 q 574 197 574 200 q 560 156 574 172 q 519 128 547 140 q 578 146 556 128 q 607 196 607 169 q 603 214 607 201 q 599 233 599 226 q 613 253 599 246 q 635 267 628 260 q 647 299 647 278 q 638 324 647 311 q 615 360 615 351 l 617 368 q 626 408 626 386 q 610 453 626 436 q 560 469 593 469 l 542 468 q 526 515 549 493 q 461 536 503 536 l 433 533 q 425 547 428 536 q 419 563 422 558 q 394 581 411 576 q 354 586 378 586 q 349 590 351 588 q 347 593 347 592 l 349 611 q 340 651 349 633 q 312 673 331 669 q 293 690 293 676 q 307 719 293 704 q 325 740 321 733 q 335 763 335 756 q 328 782 335 772 l 324 758 q 296 727 318 743 q 268 697 274 711 l 267 690 q 285 670 267 679 q 308 653 303 661 q 329 588 329 625 q 324 553 329 568 m 601 831 q 594 851 601 842 q 563 869 582 869 l 550 867 q 560 843 550 854 l 567 844 q 579 831 579 844 q 567 818 579 818 l 557 822 q 539 797 539 814 q 561 790 546 790 q 591 801 581 790 q 601 831 601 813 m 279 819 q 268 808 268 819 q 279 797 268 797 q 290 808 290 797 q 279 819 290 819 m 289 308 q 282 305 285 308 q 279 300 279 301 q 289 292 279 292 q 297 300 297 297 l 289 308 m 481 111 q 469 99 469 111 q 481 86 469 86 q 493 99 493 86 q 481 111 493 111 m 511 1076 l 358 1076 l 218 1251 l 363 1251 l 433 1158 l 507 1251 l 651 1251 l 511 1076 z "},"":{"ha":353,"x_min":19,"x_max":328,"o":"m 186 350 l 19 615 l 165 615 l 328 350 l 165 86 l 19 86 l 186 350 z "},"":{"ha":1278,"x_min":38,"x_max":1235,"o":"m 1235 174 l 1235 0 l 707 0 q 665 -3 692 0 q 615 -9 638 -7 q 563 -13 593 -11 q 507 -15 533 -15 q 153 126 279 -15 q 38 460 38 256 q 167 817 38 683 q 511 951 297 951 q 578 949 543 951 q 636 943 613 946 q 678 941 658 943 q 724 936 697 939 l 1215 936 l 1215 763 l 850 763 l 850 568 l 1194 568 l 1194 396 l 850 396 l 850 174 l 1235 174 m 639 169 l 639 764 q 529 783 597 783 q 340 703 414 783 q 261 468 261 617 q 336 240 261 326 q 544 153 411 153 q 639 169 603 153 z "},"":{"ha":983,"x_min":13,"x_max":967,"o":"m 649 381 l 649 194 q 675 183 667 194 q 683 150 683 171 q 657 58 683 125 q 643 0 643 24 l 511 0 q 475 17 493 8 l 467 15 q 450 7 464 14 q 424 0 436 0 l 317 0 l 318 13 q 301 74 318 33 q 285 133 285 114 q 297 170 285 156 q 322 185 308 185 l 322 386 q 303 425 322 407 q 268 453 278 443 q 182 632 182 536 q 169 669 182 650 q 136 688 157 688 q 103 678 121 688 q 79 649 86 668 q 58 629 72 629 q 42 645 49 629 q 35 678 35 661 q 40 702 35 690 q 67 750 46 714 q 83 797 83 779 l 79 818 l 13 936 l 118 936 q 110 1001 110 968 q 162 1151 110 1082 q 289 1221 214 1221 q 219 1167 243 1196 q 176 1040 176 1115 q 183 981 176 1006 q 204 936 190 957 l 371 936 l 476 732 l 578 936 l 771 936 q 800 1044 800 985 q 774 1146 800 1101 q 697 1219 747 1190 q 797 1164 746 1214 q 864 1008 864 1099 q 861 973 864 989 q 854 936 858 957 l 967 936 l 894 814 q 894 790 892 807 q 924 732 908 763 q 940 679 940 701 q 931 646 940 661 q 915 631 922 631 l 911 632 q 878 676 894 654 q 839 692 863 692 q 804 672 814 692 q 783 596 794 651 q 736 493 771 540 q 658 414 707 454 q 649 381 649 406 m 292 601 q 324 540 292 575 q 388 506 356 506 q 378 561 392 536 l 357 556 q 335 565 346 556 q 325 589 325 574 q 332 610 325 600 q 301 621 307 621 q 292 601 292 621 m 336 118 q 351 82 336 103 q 383 57 365 61 q 390 68 386 58 q 374 106 390 83 q 344 129 358 129 q 336 118 336 129 m 576 71 q 588 58 576 58 q 600 67 596 64 q 631 124 631 90 l 625 128 q 594 108 611 128 q 576 71 576 88 m 204 936 l 118 936 q 194 832 138 879 q 281 789 247 789 q 314 824 314 789 q 306 843 314 835 q 256 878 278 860 q 204 936 228 901 m 644 615 q 651 594 651 606 q 642 572 651 582 q 618 563 632 563 q 599 569 606 563 q 588 529 588 551 l 592 508 q 658 549 626 513 q 689 611 689 586 q 675 626 689 626 l 644 615 m 854 936 l 771 936 q 683 857 733 881 q 661 826 661 846 q 694 785 661 785 q 775 828 722 785 q 854 936 838 879 m 353 1007 q 285 1034 314 1007 q 257 1100 257 1061 q 284 1167 257 1140 q 353 1194 311 1194 q 417 1167 392 1194 q 443 1100 443 1140 q 417 1034 443 1061 q 353 1007 392 1007 m 633 1007 q 566 1034 593 1007 q 539 1100 539 1061 q 565 1168 539 1142 q 633 1194 592 1194 q 699 1168 672 1194 q 725 1100 725 1142 q 699 1034 725 1061 q 633 1007 674 1007 z "},"":{"ha":694,"x_min":0,"x_max":0,"o":""},"":{"ha":350,"x_min":51,"x_max":300,"o":"m 285 -12 l 65 -12 l 96 614 l 254 614 l 285 -12 m 176 938 q 266 902 232 938 q 300 811 300 867 q 266 720 300 756 q 176 685 232 685 q 85 720 119 685 q 51 811 51 756 q 86 901 51 865 q 176 938 121 938 z "},"":{"ha":749,"x_min":93,"x_max":651,"o":"m 513 -15 l 376 -15 l 376 121 q 259 156 310 131 q 169 226 208 182 q 93 456 93 315 q 167 681 93 585 q 376 801 242 776 l 376 935 l 513 935 l 513 808 q 580 800 543 808 q 644 781 617 792 l 611 625 q 488 650 564 650 q 357 599 406 650 q 308 463 308 547 q 360 325 308 374 q 489 276 411 276 q 562 283 529 276 q 626 301 594 289 l 651 149 q 588 126 621 135 q 513 117 554 117 l 513 -15 z "},"":{"ha":749,"x_min":60,"x_max":693,"o":"m 693 0 l 60 0 l 60 113 q 165 190 121 138 q 215 317 215 250 q 211 372 215 354 l 75 372 l 75 517 l 186 517 q 175 629 175 572 q 261 839 175 760 q 489 918 347 918 q 583 909 543 918 q 651 885 624 900 l 618 725 q 567 743 597 736 q 500 750 538 750 q 401 714 431 750 q 371 619 371 678 q 373 574 371 589 q 383 517 375 560 l 575 517 l 575 372 l 403 372 q 390 274 403 315 q 365 222 379 243 q 322 175 350 200 l 693 172 l 693 0 z "},"":{"ha":749,"x_min":14,"x_max":735,"o":"m 374 764 q 463 751 424 764 q 536 714 503 739 l 642 831 l 735 736 l 614 628 q 649 546 640 582 q 658 467 658 510 q 645 372 658 411 q 610 300 632 332 l 728 188 l 636 94 l 535 217 q 460 176 503 190 q 372 161 417 161 q 284 174 326 161 q 211 214 242 188 l 111 94 l 21 188 l 136 297 q 100 368 114 328 q 86 463 86 408 q 101 561 86 517 q 135 628 113 594 l 14 735 l 107 831 l 214 713 q 374 764 278 764 m 374 622 q 283 578 319 622 q 246 464 246 535 q 288 343 246 389 q 374 303 325 303 q 463 344 425 303 q 501 465 501 385 q 466 578 501 535 q 374 622 431 622 z "},"":{"ha":749,"x_min":-8,"x_max":757,"o":"m 467 0 l 268 0 l 268 222 l 51 222 l 51 321 l 268 321 l 268 410 l 51 410 l 51 508 l 218 508 l -8 903 l 218 903 l 315 681 q 349 598 332 643 q 374 529 365 553 q 404 602 389 563 q 436 682 419 642 l 535 903 l 757 903 l 519 508 l 685 508 l 685 410 l 467 410 l 467 321 l 685 321 l 685 222 l 467 222 l 467 0 z "},"":{"ha":371,"x_min":111,"x_max":258,"o":"m 111 243 l 258 243 l 258 -243 l 111 -243 l 111 243 m 111 938 l 258 938 l 258 451 l 111 451 l 111 938 z "},"":{"ha":757,"x_min":51,"x_max":706,"o":"m 215 476 q 336 368 215 410 q 432 335 382 351 q 499 308 482 318 q 529 340 518 321 q 540 382 540 358 q 447 480 540 444 q 265 550 354 515 q 215 476 215 524 m 633 908 l 600 781 q 519 808 564 797 q 417 819 474 819 q 293 753 293 819 q 442 656 293 701 q 629 571 572 615 q 706 413 706 511 q 680 317 706 358 q 606 243 654 275 q 648 190 629 224 q 667 114 667 157 q 561 -61 667 -1 q 358 -108 478 -108 q 219 -94 288 -108 q 99 -47 151 -81 l 139 82 q 233 42 172 61 q 350 24 294 24 q 442 41 408 24 q 475 94 475 58 q 443 151 475 129 q 328 199 411 172 q 135 283 194 240 q 51 439 51 344 q 81 533 51 486 q 167 608 111 581 q 127 661 143 628 q 111 735 111 694 q 197 893 111 836 q 414 950 282 950 q 633 908 540 950 z "},"":{"ha":417,"x_min":-26,"x_max":442,"o":"m 69 1049 q 2 1076 31 1049 q -26 1142 -26 1103 q 1 1209 -26 1182 q 69 1236 28 1236 q 134 1209 108 1236 q 160 1142 160 1182 q 134 1076 160 1103 q 69 1049 108 1049 m 350 1049 q 283 1076 310 1049 q 256 1142 256 1103 q 282 1210 256 1183 q 350 1236 308 1236 q 415 1210 389 1236 q 442 1142 442 1183 q 416 1076 442 1103 q 350 1049 390 1049 z "},"":{"ha":918,"x_min":33,"x_max":885,"o":"m 461 900 q 761 775 638 900 q 885 472 885 650 q 762 167 885 293 q 461 42 639 42 q 158 167 282 42 q 33 472 33 293 q 158 775 33 650 q 461 900 283 900 m 461 821 q 224 719 321 821 q 126 471 126 618 q 224 222 126 324 q 461 121 321 121 q 697 222 600 121 q 794 471 794 324 q 697 718 794 615 q 461 821 600 821 m 647 683 l 626 608 q 565 632 603 624 q 493 640 528 640 q 367 595 413 640 q 322 468 322 550 q 370 344 322 393 q 493 294 418 294 q 571 304 533 294 q 632 329 608 314 l 653 257 q 572 224 619 236 q 481 213 525 213 q 294 284 363 213 q 225 464 225 356 q 304 651 225 579 q 493 722 383 722 q 589 711 546 722 q 647 683 632 700 z "},"":{"ha":503,"x_min":33,"x_max":463,"o":"m 463 369 l 333 369 l 324 415 q 260 376 293 389 q 182 363 228 363 q 74 401 114 363 q 33 499 33 440 q 107 619 33 578 q 310 660 181 660 l 310 669 q 286 708 310 693 q 224 722 263 722 q 153 713 185 722 q 94 686 121 704 l 67 776 q 147 808 101 796 q 251 821 192 821 q 410 763 357 821 q 456 626 456 711 l 456 478 q 457 418 456 440 q 463 369 458 396 m 314 529 l 314 578 q 213 563 250 578 q 176 511 176 547 q 193 472 176 488 q 238 457 210 457 q 279 469 260 457 q 307 499 299 481 q 312 513 310 503 q 314 529 314 522 z "},"":{"ha":624,"x_min":25,"x_max":603,"o":"m 333 615 l 167 350 l 333 86 l 186 86 l 25 350 l 186 615 l 333 615 m 603 615 l 436 350 l 603 86 l 456 86 l 294 350 l 456 615 l 603 615 z "},"":{"ha":806,"x_min":44,"x_max":761,"o":"m 44 586 l 761 586 l 761 147 l 626 147 l 626 457 l 44 457 l 44 586 z "},"":{"ha":806,"x_min":44,"x_max":761,"o":"m 44 436 l 761 436 l 761 307 l 44 307 l 44 436 z "},"":{"ha":686,"x_min":32,"x_max":656,"o":"m 344 951 q 565 860 474 951 q 656 639 656 769 q 565 417 656 508 q 344 325 475 325 q 123 416 214 325 q 32 639 32 507 q 124 860 32 768 q 344 951 215 951 m 344 889 q 176 815 246 889 q 107 638 107 742 q 176 460 107 533 q 344 388 244 388 q 514 460 444 388 q 583 638 583 532 q 514 815 583 742 q 344 889 444 889 m 290 600 l 290 457 l 217 457 l 217 804 q 272 811 246 808 q 328 814 297 814 q 400 807 372 814 q 447 786 428 800 q 478 711 478 763 q 459 660 478 681 q 411 631 440 639 q 467 543 458 618 q 475 490 471 507 q 486 457 479 472 l 410 457 q 397 501 404 467 q 389 547 390 535 q 324 600 381 600 l 290 600 m 290 757 l 290 657 l 325 657 q 381 669 360 657 q 401 707 401 681 q 384 744 401 729 q 331 758 367 758 l 290 757 z "},"":{"ha":417,"x_min":31,"x_max":389,"o":"m 31 1160 l 389 1160 l 389 1049 l 31 1049 l 31 1160 z "},"":{"ha":472,"x_min":26,"x_max":449,"o":"m 238 951 q 390 892 331 951 q 449 749 449 833 q 386 601 449 660 q 236 543 324 543 q 86 601 146 543 q 26 744 26 660 q 88 892 26 832 q 238 951 149 951 m 239 854 q 167 822 194 854 q 139 746 139 790 q 167 670 139 700 q 239 640 196 640 q 310 670 282 640 q 339 747 339 700 q 313 823 339 792 q 239 854 286 854 z "},"":{"ha":806,"x_min":44,"x_max":761,"o":"m 335 804 l 471 804 l 471 564 l 761 564 l 761 435 l 471 435 l 471 189 l 335 189 l 335 435 l 44 435 l 44 564 l 335 564 l 335 804 m 44 129 l 761 129 l 761 0 l 44 0 l 44 129 z "},"":{"ha":500,"x_min":36,"x_max":464,"o":"m 36 369 l 36 449 l 122 525 q 218 613 199 593 q 283 725 283 678 q 262 773 283 754 q 201 792 240 792 q 138 781 168 792 q 82 753 108 771 l 40 858 q 129 901 75 883 q 243 918 183 918 q 399 871 343 918 q 454 750 454 824 q 406 624 454 685 q 294 521 374 585 l 261 493 l 464 490 l 464 369 l 36 369 z "},"":{"ha":496,"x_min":29,"x_max":467,"o":"m 81 772 l 51 874 q 135 905 82 892 q 246 918 189 918 q 394 879 342 918 q 446 781 446 840 q 415 706 446 738 q 332 657 383 674 q 428 615 390 650 q 467 528 467 579 q 399 408 467 453 q 217 363 332 363 q 112 374 163 363 q 29 401 61 385 l 61 510 q 124 485 85 497 q 197 474 163 474 q 269 491 242 474 q 296 536 296 508 q 262 588 296 569 q 176 606 228 606 l 135 606 l 135 700 l 174 700 q 244 711 218 700 q 281 757 281 726 q 207 807 281 807 q 140 797 172 807 q 81 772 108 788 z "},"":{"ha":417,"x_min":94,"x_max":435,"o":"m 215 1224 l 435 1224 l 261 1049 l 94 1049 l 215 1224 z "},"":{"ha":788,"x_min":71,"x_max":719,"o":"m 714 679 l 714 218 q 715 117 714 171 q 719 0 717 63 l 536 0 l 526 99 q 464 29 499 56 q 349 -11 411 -11 q 292 -1 318 -11 q 247 32 265 8 l 260 -275 l 71 -275 l 71 679 l 282 679 l 282 317 q 307 200 282 242 q 390 158 332 158 q 468 192 435 158 q 503 257 496 219 l 503 679 l 714 679 z "},"":{"ha":731,"x_min":33,"x_max":642,"o":"m 408 -65 l 275 -65 l 275 367 l 267 367 q 121 429 192 367 q 33 626 33 507 q 113 839 33 760 q 443 942 215 942 q 642 926 574 942 l 642 -65 l 508 -65 l 508 811 l 408 811 l 408 -65 z "},"":{"ha":339,"x_min":46,"x_max":294,"o":"m 169 246 q 81 282 115 246 q 46 374 46 318 q 81 467 46 431 q 171 503 115 503 q 260 467 225 503 q 294 374 294 431 q 260 281 294 317 q 169 246 226 246 z "},"":{"ha":417,"x_min":64,"x_max":344,"o":"m 168 6 l 282 6 l 244 -61 q 315 -94 286 -67 q 344 -162 344 -122 q 293 -257 344 -225 q 176 -283 250 -283 q 64 -256 108 -283 l 92 -178 q 130 -194 110 -189 q 168 -200 150 -200 q 203 -192 190 -200 q 217 -165 217 -183 q 108 -114 217 -114 l 168 6 z "},"":{"ha":488,"x_min":63,"x_max":358,"o":"m 358 369 l 196 369 l 196 779 l 83 731 l 63 844 l 217 911 l 358 911 l 358 369 z "},"":{"ha":514,"x_min":22,"x_max":492,"o":"m 258 821 q 428 758 364 821 q 492 596 492 696 q 419 419 492 483 q 254 363 354 363 q 89 425 156 363 q 22 588 22 488 q 88 757 22 693 q 258 821 153 821 m 257 718 q 193 678 214 718 q 172 589 172 639 q 196 501 172 538 q 258 465 219 465 q 321 500 299 465 q 343 593 343 535 q 321 681 343 643 q 257 718 299 718 z "},"":{"ha":624,"x_min":21,"x_max":594,"o":"m 186 350 l 21 615 l 165 615 l 328 350 l 167 86 l 21 86 l 186 350 m 453 350 l 288 615 l 432 615 l 594 350 l 432 86 l 288 86 l 453 350 z "},"":{"ha":1132,"x_min":39,"x_max":1094,"o":"m 1021 0 l 871 0 l 871 125 l 599 125 l 599 213 l 836 547 l 1021 547 l 1021 228 l 1094 228 l 1094 125 l 1021 125 l 1021 0 m 871 228 l 871 331 q 874 390 871 349 q 876 433 876 432 q 822 343 849 388 l 746 229 l 871 228 m 335 369 l 172 369 l 172 779 l 60 731 l 39 844 l 193 911 l 335 911 l 335 369 m 344 -15 l 229 -15 l 742 918 l 857 918 l 344 -15 z "}}}
